<svg xmlns="http://www.w3.org/2000/svg" width="100" height="100" viewBox="0 0 26.5 26.5"><path style="line-height:normal;font-variant-ligatures:normal;font-variant-position:normal;font-variant-caps:normal;font-variant-numeric:normal;font-variant-alternates:normal;font-variant-east-asian:normal;font-feature-settings:normal;font-variation-settings:normal;text-indent:0;text-align:start;text-decoration-line:none;text-decoration-style:solid;text-decoration-color:#000;text-transform:none;text-orientation:mixed;white-space:normal;shape-padding:0;shape-margin:0;inline-size:0;isolation:auto;mix-blend-mode:normal;solid-color:#000;solid-opacity:1" d="M14.3 3c-1.4-.2-3 .2-4 .3-1.5 0-2.9 1-3.9 2L5.3 6.6c-.3.5-.6 1.1-.5 1.8l-.5 2.8c0 1 0 2 .5 2.7h.1l.3.3.1.3c0 .3 0 .8.3 1.2 1.5 1.6 2.6 3.5 3.7 5.4l.5-.2-1-1.7c-.4-.8-1-1.5-1.2-2.2L7 14.1l-.2-.2-.1-.5.2-1c.3-.9.7-1.7.8-2.4-.1-.7 0-1.1.3-1.5a4 4 0 011.1-1c1.2-1 3.2-1.2 4.6-1 .7.2 1.4.5 1.8 1.1a10.4 10.4 0 011.1 2.7V11c.4 1.3.5 2.2.5 3.4v1.1a3.2 3.2 0 000 .4v.2h.5v-.2l.2-.3.3-.6v-.1c.2.2.3.3.3.6l.4 1.5.4 1.2.2.5.2.1h.4c.8-.7 1.6-1.5 2-2.5.5-.8.6-1.7.5-2.5l.4-1.5c0-.6 0-1.2-.2-1.8-.4-1.4-1.1-2.8-2.1-4l-1.6-1.3c-.7-.5-1.6-1-2.5-1-.6 0-.9-.2-1.2-.5l-.3-.4a.9.9 0 00-.6-.3zm0 .5l.1.2.4.4c.3.4.8.7 1.6.7.7 0 1.5.4 2.2 1L20 6.8c.9 1.2 1.6 2.4 2 3.8v.1c.2.4.2.9.1 1.4 0 .5-.2 1-.4 1.5v.1c0 .8 0 1.6-.3 2.2-.4.9-1 1.5-1.8 2.1l-.4-1.3-.4-1.5a4 4 0 00-.5-1.2H18l-.5.5v-.2c0-1.2 0-2.2-.4-3.5v-.6a10.9 10.9 0 00-1.2-2.9A3 3 0 0013.7 6a6.7 6.7 0 00-6.3 2.2c-.3.5-.5 1-.4 1.8 0 .4-.5 1.3-.7 2.2a5 5 0 00-.3 1.2c0 .4 0 .8.4 1v-.1c0 .5.3 1.3.5 2l-.8-1c-.2-.2-.2-.6-.2-1 0-.2 0-.4-.2-.6l-.4-.3c-.4-.5-.5-1.3-.4-2.2l.5-3c-.1-.5 0-.9.4-1.3l1-1.3c1-.9 2.3-1.8 3.5-1.9 1.1 0 2.7-.4 4-.3zM7 17.1z" color="#000" font-weight="400" font-family="sans-serif" overflow="visible"></path><path d="M11.6 19.9c.4 0 .2 0 .6-.3.2-.1.3-.6 0-.5-.3 0-1.2.2-1.4 0-.3.3.1.6.4.8zM9.2 17.6c.4-.4.7-.6 1.4-.7.8-.3 1.6-.1 2.4 0 .4.1.9 0 1.2.3l-.4.3c-.7 0-1.4.2-2 .3l-1.5.1h-1c-.3 0-.3-.2-.1-.3z" fill="#000004"></path><path style="line-height:normal;font-variant-ligatures:normal;font-variant-position:normal;font-variant-caps:normal;font-variant-numeric:normal;font-variant-alternates:normal;font-variant-east-asian:normal;font-feature-settings:normal;font-variation-settings:normal;text-indent:0;text-align:start;text-decoration-line:none;text-decoration-style:solid;text-decoration-color:#000;text-transform:none;text-orientation:mixed;white-space:normal;shape-padding:0;shape-margin:0;inline-size:0;isolation:auto;mix-blend-mode:normal;solid-color:#000;solid-opacity:1" d="M18.3 6.7l-.2.2c1 .8 1.4 1.4 1.6 2l1 2.4.3-.1-1-2.4c-.3-.7-.7-1.3-1.7-2zM15.3 5.4l-.1.3c.8.3 1.4 1 2 2 .6 1 1.1 2.2 1.9 3.4l.3.7.2 1 .3 1.4h.3l-.3-1.4a15.4 15.4 0 00-.6-1.9l-1.9-3.3c-.6-1-1.2-1.8-2.1-2.2zM17.8 19c0 .6-1 1.3-1.3 1.6a11.5 11.5 0 01-1.4.8l-.1.1.3.5h.1a36 36 0 001.5-1c.3-.2 1.4-.9 1.5-2h-.6zM15 21.6z" color="#000" font-weight="400" font-family="sans-serif" overflow="visible"></path><g><path d="M13.9 10.7a4 4 0 00-2.8 1l-1.6.4c-.5-.2-1-.5-1.5-.5-.6 0-1.1.2-1.7.4-.3.2-1.3.3-.9.8.7-.1.3.7.6 1 .3.7.8 1.3 1.4 1.5.7.3 1.5 0 2-.6.3-.6.5-1.4.4-2.2 0-.3.7-.3 1-.3.3.2.2.8.5 1.2.3.6.8 1 1.5 1.3.9.3 2 0 2.6-.7.5-.7.7-1.5.7-2.3.2-.5 1-.2 1.2-.5 0-.2-.2-.4-.5-.3l-3-.2zm.3.5c.3 0 .5.4.2.6l-.5.4-1.3 1c-.2.4-.6.3-.7 0 0-.2.1-.3.3-.5l1.6-1.3.4-.2zm-5.8 1c.3 0 .4.3.2.4l-.4.4-1.1 1c-.1.1-.5.1-.5-.1l.1-.4 1.4-1.1.3-.2zm6 .1c.1 0 .2.2.1.3l-1 1c-.2.1-.6-.2-.4-.4l.9-.7.4-.2zm-5.7.7c.1 0 .2.2 0 .3l-.8.8c-.1.1-.4-.1-.2-.3l.7-.6.3-.2z"></path></g></svg>