<svg xmlns="http://www.w3.org/2000/svg" xmlns:xlink="http://www.w3.org/1999/xlink" width="493.44" height="380.16" viewBox="0 0 370.08 285.12" version="1.2"><defs><symbol overflow="visible" id="b"><path d="M3.203.11c.3 0 .602-.032.906-.094.301-.063.579-.172.829-.329.257-.164.46-.382.609-.656.156-.27.234-.554.234-.86 0-.206-.043-.41-.125-.609a1.49 1.49 0 00-.328-.515 1.82 1.82 0 00-.484-.39 3.012 3.012 0 00-.563-.25 7.132 7.132 0 00-.578-.188c-.2-.063-.398-.117-.594-.172-.199-.063-.398-.125-.593-.188-.2-.07-.371-.187-.516-.343a.81.81 0 01-.219-.563c0-.164.047-.316.14-.453a.959.959 0 01.36-.313c.145-.082.297-.132.453-.156.164-.031.332-.047.5-.047.157 0 .313.016.47.047.155.024.3.07.437.14a.853.853 0 01.359.298c.094.136.14.289.14.453h1.032c0-.3-.074-.578-.219-.828a1.617 1.617 0 00-.578-.625 2.086 2.086 0 00-.781-.328 4.85 4.85 0 00-.86-.079c-.304 0-.601.032-.89.094a2.211 2.211 0 00-.797.328c-.25.168-.445.387-.578.657A1.891 1.891 0 00.766-5c0 .2.035.398.109.594.082.199.191.375.328.531.145.148.305.273.484.375.188.105.375.188.563.25.195.063.395.125.594.188.195.062.394.12.594.171.195.055.394.118.593.188.196.062.367.18.516.344a.827.827 0 01.219.546c0 .18-.059.34-.172.485a1.014 1.014 0 01-.39.312 1.962 1.962 0 01-.5.157 3.618 3.618 0 01-.5.03c-.169 0-.337-.007-.5-.03A2.672 2.672 0 012.233-1a1.125 1.125 0 01-.406-.313.777.777 0 01-.156-.468H.64c0 .304.078.586.234.843.156.262.363.477.625.641.258.156.535.262.828.313.29.062.582.093.875.093zm0 0"/></symbol><symbol overflow="visible" id="c"><path d="M.61 0h1.03v-5.203c0-.113.008-.234.032-.36a.615.615 0 01.187-.312.435.435 0 01.64 0 .542.542 0 01.173.313c.02.125.031.246.031.359V0H3.75v-5.203c0-.113.008-.234.031-.36a.521.521 0 01.172-.312.429.429 0 01.313-.14c.132 0 .242.046.328.14a.542.542 0 01.172.313c.03.125.046.246.046.359V0h1.032v-5.203c0-.195-.016-.39-.047-.578a1.836 1.836 0 00-.188-.563.965.965 0 00-.39-.437 1.012 1.012 0 00-.532-.157c-.18 0-.343.04-.5.11a.906.906 0 00-.359.328 1.74 1.74 0 00-.187.453 1.802 1.802 0 00-.22-.453.813.813 0 00-.358-.328c-.157-.07-.32-.11-.485-.11-.137 0-.265.028-.39.079a.797.797 0 00-.329.218 1.933 1.933 0 00-.218.297v-.5H.609zm0 0"/></symbol><symbol overflow="visible" id="d"><path d="M2.61.11c.269 0 .538-.044.812-.126a2.03 2.03 0 00.734-.406c.219-.187.38-.406.485-.656V0h1.03v-4.688a2.99 2.99 0 00-.093-.75 1.77 1.77 0 00-.328-.671 1.823 1.823 0 00-.578-.5 2.132 2.132 0 00-.703-.25 3.7 3.7 0 00-.735-.079c-.304 0-.605.032-.906.094a2.054 2.054 0 00-.812.375 1.69 1.69 0 00-.547.688 2.009 2.009 0 00-.188.843h1.031c0-.218.067-.421.204-.609.144-.187.328-.312.546-.375.22-.062.442-.094.672-.094.239 0 .473.047.704.141a.992.992 0 01.53.484c.114.22.173.454.173.704v.656H3.469c-.262 0-.528.023-.797.062a3.5 3.5 0 00-.781.188c-.25.094-.48.23-.688.406-.2.18-.344.398-.437.656-.094.25-.141.508-.141.766 0 .273.035.539.11.797.081.261.218.496.406.703.187.21.406.355.656.437.258.082.531.125.812.125zM3-.829a2.07 2.07 0 01-.672-.11.951.951 0 01-.5-.39 1.222 1.222 0 01-.172-.64c0-.157.035-.305.11-.454a.829.829 0 01.312-.344c.133-.093.281-.16.438-.203.156-.05.312-.082.468-.094.164-.019.329-.03.485-.03H4.64v.765c0 .21-.04.418-.11.625-.074.2-.195.367-.36.5a1.624 1.624 0 01-.562.297c-.21.054-.414.078-.609.078zm0 0"/></symbol><symbol overflow="visible" id="e"><path d="M1.547 0h1.031v-3.625c0-.207.008-.414.031-.625.02-.207.055-.41.11-.61.062-.195.148-.382.265-.562.114-.187.258-.332.438-.437.187-.102.383-.157.594-.157.125 0 .242.028.359.079a.662.662 0 01.297.25c.07.105.117.218.14.343.02.125.032.258.032.39h1.031c0-.237-.023-.476-.063-.718a1.582 1.582 0 00-.28-.672 1.19 1.19 0 00-.548-.453 1.851 1.851 0 00-.703-.14c-.21 0-.418.042-.625.125-.199.085-.37.214-.515.39a2.74 2.74 0 00-.344.547c-.094.2-.168.402-.219.61v-1.579H1.547zm0 0"/></symbol><symbol overflow="visible" id="f"><path d="M4.188.11c.28 0 .554-.048.828-.141.28-.102.515-.266.703-.485.195-.218.336-.46.422-.734a3.05 3.05 0 00.125-.86v-.109H5.234v.063c0 .168-.015.328-.046.484A1.29 1.29 0 015-1.234a.89.89 0 01-.375.312 1.117 1.117 0 01-.438.094c-.199 0-.382-.05-.546-.156a1.13 1.13 0 01-.36-.422 2.43 2.43 0 01-.156-.547 4.525 4.525 0 01-.031-.563v-3.39h2.078v-.938H3.094v-2.64H2.063v2.64H.655v.938h1.406v3.39c0 .262.02.516.063.766.04.25.113.496.219.734.101.23.25.438.437.625.188.18.399.309.64.391.25.07.505.11.767.11zm0 0"/></symbol><symbol overflow="visible" id="g"><path d="M3.234-4.938c.176 0 .348-.035.516-.109a.674.674 0 00.36-.36c.081-.175.124-.35.124-.53 0-.176-.043-.348-.125-.516a.69.69 0 00-.359-.375c-.168-.07-.34-.11-.516-.11-.187 0-.367.04-.53.11a.732.732 0 00-.376.375c-.074.168-.11.34-.11.516 0 .18.036.355.11.53.082.169.207.29.375.36.164.074.344.11.531.11zm0 5.047C3.41.11 3.582.07 3.75 0a.747.747 0 00.36-.375 1.165 1.165 0 000-1.047.701.701 0 00-.36-.36 1.165 1.165 0 00-1.047 0 .747.747 0 00-.375.36c-.074.168-.11.34-.11.516 0 .187.036.367.11.531A.794.794 0 002.703 0c.164.07.344.11.531.11zm0 0"/></symbol><symbol overflow="visible" id="x"><path d="M.781 0h1.031v-4.266c0-.207.02-.414.063-.625.04-.218.125-.414.25-.593a1.13 1.13 0 01.484-.391 1.434 1.434 0 011.235 0c.195.086.36.215.484.39.125.18.207.376.25.594.04.211.063.418.063.625V0h1.03v-4.266c0-.25-.015-.5-.046-.75a2.81 2.81 0 00-.203-.75A2.28 2.28 0 005-6.406a1.604 1.604 0 00-.625-.407 2.324 2.324 0 00-.75-.125c-.262 0-.516.047-.766.141a1.44 1.44 0 00-.64.438c-.18.199-.313.421-.406.671v-3.796H.78zm0 0"/></symbol><symbol overflow="visible" id="y"><path d="M3.25.11c.29 0 .582-.04.875-.11.29-.063.563-.18.813-.36.25-.175.44-.398.578-.671.144-.27.222-.551.234-.844H4.719a.965.965 0 01-.25.61 1.07 1.07 0 01-.547.359 2.772 2.772 0 01-.672.078c-.219 0-.438-.04-.656-.125a1.32 1.32 0 01-.531-.375 1.516 1.516 0 01-.282-.594 2.691 2.691 0 01-.078-.656v-.375h4.078v-1.313c0-.28-.031-.554-.093-.828a2.19 2.19 0 00-.313-.781 2.108 2.108 0 00-.563-.625 1.939 1.939 0 00-.75-.344 3.688 3.688 0 00-.828-.093 3.94 3.94 0 00-.859.093 2.05 2.05 0 00-.75.344 2.344 2.344 0 00-.563.625c-.148.242-.25.5-.312.781a4.19 4.19 0 00-.078.828v1.688c0 .281.023.562.078.844.063.273.164.53.313.78.156.243.347.446.578.61.238.168.492.281.765.344.281.07.563.11.844.11zm-1.547-4v-.376c0-.218.024-.43.078-.64.051-.219.145-.414.282-.594.132-.176.304-.305.515-.39a1.747 1.747 0 011.297 0c.207.085.379.214.516.39.132.18.226.375.28.594.052.21.079.422.079.64v.375zm0 0"/></symbol><symbol overflow="visible" id="z"><path d="M.969 0h4.515v-.922H3.828v-8.562H1.156v.921h1.64v7.641H.97zm0 0"/></symbol><symbol overflow="visible" id="A"><path d="M3.234.11c.282 0 .555-.04.829-.11.28-.07.53-.191.75-.36.226-.163.414-.367.562-.609.156-.238.258-.492.313-.765.062-.282.093-.563.093-.844v-1.688c0-.28-.031-.554-.093-.828a2.19 2.19 0 00-.313-.781 2.108 2.108 0 00-.563-.625 1.939 1.939 0 00-.75-.344 3.688 3.688 0 00-.828-.093 3.94 3.94 0 00-.859.093 2.05 2.05 0 00-.75.344 2.344 2.344 0 00-.563.625c-.148.242-.25.5-.312.781a4.19 4.19 0 00-.078.828v1.688c0 .281.023.562.078.844A2.336 2.336 0 001.625-.36c.227.168.477.289.75.359.281.07.566.11.86.11zm0-.938c-.218 0-.437-.04-.656-.125a1.195 1.195 0 01-.515-.375 1.516 1.516 0 01-.282-.594 2.784 2.784 0 01-.078-.656v-1.688c0-.218.024-.43.078-.64.051-.219.145-.414.282-.594.132-.176.304-.305.515-.39a1.747 1.747 0 011.297 0c.207.085.379.214.516.39.132.18.226.375.28.594.052.21.079.422.079.64v1.688c0 .21-.027.43-.078.656a1.633 1.633 0 01-.281.594 1.243 1.243 0 01-.516.375 1.67 1.67 0 01-.64.125zm0 0"/></symbol><symbol overflow="visible" id="B"><path d="M1.5 0h1.031l.703-3.969L3.922 0h1.031l1.094-6.844H5.016l-.61 5.657-.656-3.75H2.703l-.656 3.75-.61-5.657H.407zm0 0"/></symbol><symbol overflow="visible" id="C"><path d="M2.813.11c.269 0 .53-.048.78-.141.25-.094.462-.239.641-.438.176-.207.313-.437.407-.687V0h1.03v-9.484h-1.03v3.796a2.148 2.148 0 00-.407-.671 1.462 1.462 0 00-.64-.438 2.212 2.212 0 00-.781-.14c-.313 0-.626.07-.938.203a1.701 1.701 0 00-.734.625c-.18.273-.305.57-.375.89a4.868 4.868 0 00-.094.953v1.688c0 .324.031.648.094.969.07.312.195.609.375.89.187.274.43.48.734.625.313.133.625.203.938.203zm.406-.938c-.219 0-.434-.04-.64-.125a1.14 1.14 0 01-.517-.39 1.516 1.516 0 01-.28-.595 2.612 2.612 0 01-.079-.64v-1.688c0-.218.024-.43.078-.64.051-.219.145-.414.282-.594.132-.176.304-.305.515-.39.207-.083.422-.126.64-.126.208 0 .41.047.61.141.207.086.375.215.5.39.125.18.207.376.25.594.04.211.063.418.063.625v1.688c0 .21-.024.422-.063.64a1.65 1.65 0 01-.25.594c-.125.18-.293.309-.5.39a1.52 1.52 0 01-.61.126zm0 0"/></symbol><symbol overflow="visible" id="D"><path d="M.781 0h1.031v-4.266c0-.207.02-.414.063-.625.04-.218.125-.414.25-.593a1.13 1.13 0 01.484-.391 1.434 1.434 0 011.235 0c.195.086.36.215.484.39.125.18.207.376.25.594.04.211.063.418.063.625V0h1.03v-4.266c0-.25-.015-.5-.046-.75a2.81 2.81 0 00-.203-.75A2.28 2.28 0 005-6.406a1.604 1.604 0 00-.625-.407 2.324 2.324 0 00-.75-.125c-.262 0-.516.047-.766.141a1.44 1.44 0 00-.64.438c-.18.199-.313.421-.406.671v-1.156H.78zm0 0"/></symbol><symbol overflow="visible" id="i"><path d="M3.203.11c.352 0 .703-.055 1.047-.157.344-.101.64-.281.89-.531a2.47 2.47 0 00.579-.89c.133-.333.203-.68.203-1.048 0-.257-.043-.515-.125-.765a2.92 2.92 0 00-.86-1.266 4.216 4.216 0 00-.64-.437 8.865 8.865 0 00-.688-.375 9.111 9.111 0 01-.687-.375 1.663 1.663 0 01-.547-.547 1.314 1.314 0 01-.219-.735c0-.195.04-.394.125-.593a.924.924 0 01.39-.454 1.135 1.135 0 011.126-.015.809.809 0 01.39.406c.083.18.125.36.125.547h1.516c0-.332-.062-.66-.187-.984a2.218 2.218 0 00-.547-.844 1.969 1.969 0 00-.86-.5 3.527 3.527 0 00-.984-.14c-.344 0-.684.058-1.016.171-.336.106-.625.29-.875.547-.242.25-.421.543-.546.875A3.048 3.048 0 00.64-6.984c0 .261.035.515.109.765.082.25.195.485.344.703.156.211.332.399.531.563.195.168.406.32.625.453.227.137.457.262.688.375.238.105.468.23.687.375.227.137.414.32.563.547.144.219.218.46.218.719 0 .21-.054.418-.156.625a.965.965 0 01-.438.453c-.199.093-.402.14-.609.14-.2 0-.39-.039-.578-.125a.906.906 0 01-.438-.39 1.178 1.178 0 01-.14-.563H.516c0 .344.066.68.203 1A2.206 2.206 0 002.188-.03c.343.094.68.14 1.015.14zm0 0"/></symbol><symbol overflow="visible" id="j"><path d="M.422 0h1.312v-5.031c0-.102.008-.207.032-.313a.7.7 0 01.125-.281c.07-.094.16-.14.265-.14a.29.29 0 01.25.14c.07.086.114.18.125.281.02.106.031.211.031.313V0h1.329v-5.031c0-.102.004-.207.015-.313a.7.7 0 01.125-.281c.07-.094.16-.14.266-.14.101 0 .191.046.266.14.07.086.113.18.125.281.019.106.03.211.03.313V0h1.329v-5.031c0-.219-.016-.426-.047-.625a2.196 2.196 0 00-.188-.61 1.153 1.153 0 00-.39-.484.99.99 0 00-.578-.188.95.95 0 00-.5.141.974.974 0 00-.375.36 1.732 1.732 0 00-.188.468 2.433 2.433 0 00-.219-.484.877.877 0 00-.374-.36 1.04 1.04 0 00-.485-.125c-.148 0-.289.028-.422.079a.877.877 0 00-.328.25 1.193 1.193 0 00-.219.343v-.578H.422zm0 0"/></symbol><symbol overflow="visible" id="k"><path d="M2.453.11c.25 0 .492-.04.735-.11.238-.07.453-.191.64-.36.188-.175.336-.378.453-.609V0h1.532v-4.64c0-.258-.04-.52-.11-.782a1.899 1.899 0 00-.36-.687 1.938 1.938 0 00-.609-.5A2.336 2.336 0 004-6.86a4.01 4.01 0 00-1.719.03c-.312.075-.601.212-.86.407-.25.2-.444.45-.577.75-.137.293-.203.59-.203.89h1.53c0-.155.052-.3.157-.437a.696.696 0 01.39-.281c.165-.05.337-.078.516-.078.164 0 .336.031.516.094a.694.694 0 01.39.328c.094.156.141.328.141.515v.438h-.797c-.273 0-.546.016-.828.047a3.178 3.178 0 00-.812.203 2.438 2.438 0 00-.735.422 1.675 1.675 0 00-.484.687c-.094.262-.14.528-.14.797 0 .281.035.559.109.828.07.262.195.5.375.719.187.219.41.375.672.469.27.093.539.14.812.14zm.61-1.376a1.97 1.97 0 01-.5-.062.688.688 0 01-.391-.266.758.758 0 01-.156-.453.644.644 0 01.375-.594c.113-.05.234-.093.359-.125a2.48 2.48 0 01.36-.062c.124-.008.25-.016.374-.016h.797v.516c0 .21-.054.406-.156.594a.841.841 0 01-.453.375c-.2.062-.402.093-.61.093zm0 0"/></symbol><symbol overflow="visible" id="l"><path d="M1.313 0h1.53v-3.625c0-.164.005-.332.016-.5.008-.164.036-.328.079-.484.039-.164.097-.32.171-.47.082-.144.196-.265.344-.359.145-.093.3-.14.469-.14a.78.78 0 01.344.078.387.387 0 01.234.234.75.75 0 01.078.329H6.11a3.49 3.49 0 00-.078-.72 1.876 1.876 0 00-.265-.671 1.19 1.19 0 00-.547-.453 1.733 1.733 0 00-.703-.157c-.211 0-.414.043-.61.125-.199.075-.367.188-.5.344-.136.157-.25.328-.344.516a5.164 5.164 0 00-.218.578v-1.469H1.313zm0 0"/></symbol><symbol overflow="visible" id="m"><path d="M4.11.11c.3 0 .597-.055.89-.157.3-.101.555-.273.766-.515.218-.239.367-.508.453-.813.093-.3.14-.61.14-.922v-.125H4.844v.063c0 .117-.012.234-.032.359a1.192 1.192 0 01-.125.36.644.644 0 01-.578.374.576.576 0 01-.406-.156.971.971 0 01-.25-.39 2.816 2.816 0 01-.094-.438 5.99 5.99 0 01-.015-.453V-5.47h1.812v-1.375H3.344v-2.64H1.813v2.64H.625v1.375h1.188v2.766c0 .273.019.543.062.812.05.274.133.54.25.797.113.25.27.477.469.672.195.188.426.324.687.406.27.082.547.125.828.125zm0 0"/></symbol><symbol overflow="visible" id="n"><path d="M.969 0h4.515v-1.375H4.078v-5.469H1.156v1.375h1.407v4.094H.968zm2.25-7.828c.187 0 .363-.035.531-.11a.747.747 0 00.36-.375 1.165 1.165 0 000-1.047.69.69 0 00-.36-.374 1.193 1.193 0 00-1.063 0 .732.732 0 00-.374.375c-.075.168-.11.34-.11.515 0 .188.035.367.11.531a.794.794 0 00.374.376c.176.074.352.109.532.109zm0 0"/></symbol><symbol overflow="visible" id="o"><path d="M.64 0h1.532v-4.266c0-.156.015-.312.047-.468.031-.157.094-.301.187-.438a.83.83 0 01.36-.297c.156-.07.312-.11.468-.11.157 0 .305.04.454.11a.853.853 0 01.359.297c.094.137.156.281.187.438.032.156.047.312.047.468V0h1.532v-4.266c0-.25-.024-.492-.063-.734a3.076 3.076 0 00-.188-.734 1.99 1.99 0 00-.375-.641 1.433 1.433 0 00-.609-.422 2.01 2.01 0 00-1.437-.016c-.23.075-.43.204-.594.391a2.61 2.61 0 00-.375.594v-1.016H.64zm0 0"/></symbol><symbol overflow="visible" id="p"><path d="M3.172 2.75c.281 0 .562-.031.844-.094.289-.062.55-.18.78-.344.24-.167.438-.374.595-.624.156-.243.265-.5.328-.782.062-.281.093-.562.093-.844v-6.906h-1.53v1.016a2.114 2.114 0 00-.391-.594 1.231 1.231 0 00-.594-.39 2.085 2.085 0 00-.703-.125 2.29 2.29 0 00-.75.125c-.242.085-.45.226-.625.421-.18.188-.32.403-.422.641a3.542 3.542 0 00-.203.734c-.031.25-.047.5-.047.75v1.688c0 .25.015.5.047.75.039.25.11.496.203.734.101.242.242.453.422.64.176.188.383.329.625.423.238.093.488.14.75.14.238 0 .472-.043.703-.125.238-.082.437-.218.594-.406.164-.187.296-.383.39-.594V.063c0 .164-.015.328-.047.484a1.09 1.09 0 01-.203.437.718.718 0 01-.375.297c-.156.063-.32.094-.484.094-.156 0-.313-.023-.469-.063a.808.808 0 01-.39-.265.696.696 0 01-.172-.422H.625c.008.3.082.598.219.89.144.29.344.532.594.72.25.195.519.331.812.406.3.07.61.109.922.109zm.047-4.016c-.219 0-.43-.054-.625-.171a.93.93 0 01-.422-.485 2.029 2.029 0 01-.11-.656v-1.688c0-.218.036-.43.11-.64a.95.95 0 01.422-.5c.195-.114.406-.172.625-.172.156 0 .304.039.453.11a.83.83 0 01.375.296c.094.125.156.274.187.438.032.156.047.312.047.468v1.688c0 .156-.015.312-.047.469a1.3 1.3 0 01-.187.453.804.804 0 01-.375.297 1.148 1.148 0 01-.453.093zm0 0"/></symbol><symbol overflow="visible" id="q"><path d="M5.484-1.266l.641-1.171-3.984-1.954 3.984-1.953-.64-1.187L.64-5.125v1.453zm0 0"/></symbol><symbol overflow="visible" id="r"><path d="M3.203.11a3.7 3.7 0 001-.141 2.37 2.37 0 00.875-.485 2.14 2.14 0 00.563-.828c.125-.32.187-.656.187-1H4.312c0 .2-.046.387-.14.563a.778.778 0 01-.406.39c-.18.086-.368.125-.563.125-.18 0-.344-.03-.5-.093a.986.986 0 01-.39-.313 1.473 1.473 0 01-.204-.469 2.943 2.943 0 01-.046-.515v-4.172c0-.164.015-.332.046-.5.04-.176.11-.332.204-.469a.868.868 0 01.39-.312c.156-.07.32-.11.5-.11.195 0 .383.043.563.125.187.086.32.215.406.39.094.18.14.36.14.548h1.516c0-.332-.062-.66-.187-.985a2.2 2.2 0 00-.563-.828 2.167 2.167 0 00-.875-.484 3.7 3.7 0 00-1-.14c-.293 0-.586.038-.875.109a2.062 2.062 0 00-.781.359c-.242.18-.438.39-.594.64a2.388 2.388 0 00-.328.797 4.51 4.51 0 00-.078.86v4.172c0 .293.023.578.078.86.063.28.172.546.328.796.156.25.352.465.594.64.238.169.5.29.781.36.29.07.582.11.875.11zm0 0"/></symbol><symbol overflow="visible" id="s"><path d="M3.234.11c.29 0 .579-.04.86-.11.281-.063.539-.172.781-.328.238-.156.438-.352.594-.594.164-.25.281-.515.343-.797.063-.289.094-.578.094-.86v-1.687c0-.289-.031-.57-.093-.843a2.254 2.254 0 00-.344-.782 2.086 2.086 0 00-1.375-.953 3.967 3.967 0 00-1.719 0 2.211 2.211 0 00-.797.328 2.265 2.265 0 00-.61.625c-.155.243-.265.5-.327.782a3.775 3.775 0 00-.094.843v1.688c0 .281.031.57.094.86.062.28.171.546.328.796a2.1 2.1 0 00.61.594c.25.156.515.266.796.328.281.07.566.11.86.11zm0-1.376c-.23 0-.445-.054-.64-.171a.93.93 0 01-.422-.485 2.029 2.029 0 01-.11-.656v-1.688c0-.218.036-.43.11-.64a.95.95 0 01.422-.5 1.26 1.26 0 011.265 0 .905.905 0 01.407.5c.082.21.125.422.125.64v1.688c0 .219-.043.437-.125.656a.886.886 0 01-.407.484c-.199.118-.406.172-.625.172zm0 0"/></symbol><symbol overflow="visible" id="t"><path d="M.64 2.64h1.532v-3.656c.094.211.223.407.39.594.165.188.364.324.594.406A2.052 2.052 0 004.61-.03c.25-.094.457-.235.625-.422.176-.188.317-.399.422-.64.102-.239.172-.485.203-.735.032-.25.047-.5.047-.75v-1.688c0-.25-.015-.5-.047-.75a2.783 2.783 0 00-.203-.734 2.28 2.28 0 00-.422-.64 1.414 1.414 0 00-.625-.423 2.324 2.324 0 00-.75-.125c-.242 0-.476.043-.703.125-.23.075-.43.204-.594.391-.167.18-.296.375-.39.594v-1.016H.64zm2.594-3.906c-.156 0-.312-.03-.468-.093a.804.804 0 01-.36-.297 1.3 1.3 0 01-.187-.453 2.385 2.385 0 01-.047-.47v-1.687c0-.156.015-.312.047-.468a1.05 1.05 0 01.187-.438.83.83 0 01.36-.297c.156-.07.312-.11.468-.11.227 0 .442.06.641.173a.905.905 0 01.406.5c.07.21.11.422.11.64v1.688c0 .219-.04.437-.11.656a.886.886 0 01-.406.484c-.2.118-.414.172-.64.172zm0 0"/></symbol><symbol overflow="visible" id="u"><path d="M3.203.11c.332 0 .66-.048.985-.141.332-.094.625-.25.875-.469.257-.227.453-.5.578-.813.125-.32.187-.648.187-.984H4.312c0 .188-.046.371-.14.547a.863.863 0 01-.422.375c-.18.074-.36.11-.547.11-.23 0-.445-.055-.64-.173a.883.883 0 01-.391-.5 1.972 1.972 0 01-.11-.64v-1.688c0-.218.036-.43.11-.64a.895.895 0 01.39-.5 1.26 1.26 0 01.641-.172c.188 0 .367.039.547.11.188.073.328.198.422.374.094.18.14.36.14.547h1.516a2.59 2.59 0 00-.187-.969 2.15 2.15 0 00-.579-.828 2.05 2.05 0 00-.875-.468 4 4 0 00-1.843-.032c-.281.063-.543.18-.781.344a2.06 2.06 0 00-.61.61c-.156.242-.265.5-.328.78a4.405 4.405 0 00-.078.844v1.688c0 .281.023.57.078.86.063.28.172.542.328.78.164.243.367.446.61.61.238.156.5.266.78.328.282.07.567.11.86.11zm0 0"/></symbol><symbol overflow="visible" id="v"><path d="M.969-1.266l4.843-2.406v-1.453L.97-7.531l-.64 1.187 4 1.953-4 1.954zm0 0"/></symbol><symbol overflow="visible" id="E"><path d="M.86 0h2.03v-5.063c0-.507-.015-1.015-.046-1.515a19.52 19.52 0 00-.156-1.516L2.5-9.609 5.625 0h2.11v-12.64H5.718v5.046c0 .512.008 1.024.031 1.532.031.511.078 1.023.14 1.53.07.5.145 1 .22 1.5L2.968-12.64H.859zm0 0"/></symbol><symbol overflow="visible" id="F"><path d="M4.297.14C4.69.14 5.078.095 5.453 0A3.124 3.124 0 006.5-.438c.32-.207.586-.472.797-.796.219-.332.367-.688.453-1.063.082-.383.125-.765.125-1.14v-2.235c0-.394-.043-.773-.125-1.14a3.08 3.08 0 00-.453-1.047 2.827 2.827 0 00-1.844-1.266 5.405 5.405 0 00-1.156-.125c-.375 0-.758.043-1.14.125-.376.074-.731.219-1.063.438-.324.218-.59.496-.797.828a3.42 3.42 0 00-.453 1.046 4.98 4.98 0 00-.125 1.141v2.234c0 .376.039.758.125 1.141.094.375.242.73.453 1.063.207.324.473.59.797.796.332.211.687.356 1.062.438.383.094.766.14 1.14.14zm0-1.828c-.293 0-.574-.078-.844-.234a1.236 1.236 0 01-.547-.656 2.422 2.422 0 01-.156-.86v-2.234c0-.3.05-.594.156-.875.102-.289.285-.508.547-.656.27-.156.55-.234.844-.234.3 0 .582.078.844.234.27.148.453.367.546.656.102.281.157.574.157.875v2.234c0 .293-.055.579-.157.86-.093.281-.277.5-.546.656a1.618 1.618 0 01-.844.234zm0 0"/></symbol><symbol overflow="visible" id="G"><path d="M5.469.14c.414 0 .82-.07 1.218-.203A2.513 2.513 0 007.704-.75c.281-.313.477-.672.594-1.078.125-.406.187-.817.187-1.234v-.172h-2.03v.093a2.202 2.202 0 01-.203.953.906.906 0 01-.33.36.787.787 0 01-.452.14.707.707 0 01-.532-.218 1.367 1.367 0 01-.312-.516A3.567 3.567 0 014.485-3a5.13 5.13 0 01-.032-.61v-3.687H6.86v-1.828H4.453v-3.516H2.422v3.516H.844v1.828h1.578v3.688c0 .367.023.73.078 1.093.063.356.172.704.328 1.047.156.336.363.633.625.89.27.263.582.45.938.563.351.102.71.157 1.078.157zm0 0"/></symbol><symbol overflow="visible" id="I"><path d="M.86 0h2.03v-5.672c0-.219.02-.43.063-.64.05-.208.133-.399.25-.579.125-.187.285-.32.485-.406.195-.094.398-.14.609-.14.219 0 .426.046.625.14.195.086.36.219.484.406.125.18.207.371.25.579.04.21.063.421.063.64V0h2.015v-5.672c0-.332-.023-.664-.062-1a3.973 3.973 0 00-.25-.969 2.699 2.699 0 00-.5-.859 1.91 1.91 0 00-.813-.563 2.717 2.717 0 00-.984-.187 2.64 2.64 0 00-.938.172 1.804 1.804 0 00-.78.531c-.22.242-.391.5-.516.781v-4.875H.859zm0 0"/></symbol><symbol overflow="visible" id="J"><path d="M4.328.14A5.55 5.55 0 005.578 0a3.346 3.346 0 001.125-.516 2.72 2.72 0 00.813-.937c.195-.383.304-.79.328-1.219H5.812a.867.867 0 01-.265.578 1.09 1.09 0 01-.563.328 2.691 2.691 0 01-.656.079c-.293 0-.574-.07-.844-.22a1.295 1.295 0 01-.578-.655 2.539 2.539 0 01-.156-.876v-.203h5.125v-2.03c0-.395-.043-.774-.125-1.141a3.08 3.08 0 00-.453-1.047 2.827 2.827 0 00-1.844-1.266 5.405 5.405 0 00-1.156-.125c-.375 0-.758.043-1.14.125-.376.074-.731.219-1.063.438-.324.218-.59.496-.797.828a3.42 3.42 0 00-.453 1.046 4.98 4.98 0 00-.125 1.141v2.234c0 .387.039.774.125 1.157.094.375.25.726.469 1.047.218.324.488.59.812.796.32.211.676.356 1.063.438.382.094.765.14 1.14.14zM2.75-5.468v-.203c0-.3.05-.594.156-.875.102-.289.285-.508.547-.656.27-.156.55-.234.844-.234.3 0 .582.078.844.234.27.148.453.367.546.656.102.281.157.574.157.875v.203zm0 0"/></symbol><symbol overflow="visible" id="K"><path d="M3.266.14c.332 0 .66-.046.984-.14.32-.102.61-.27.86-.5.25-.227.452-.492.609-.797V0h2.015v-6.188c0-.343-.046-.687-.14-1.03a2.297 2.297 0 00-.469-.923 2.466 2.466 0 00-.813-.671 3.433 3.433 0 00-.984-.344 5.754 5.754 0 00-2.297.047 2.834 2.834 0 00-1.14.546c-.336.262-.59.59-.766.985-.18.398-.266.805-.266 1.219h2.032c0-.22.066-.422.203-.61a1.03 1.03 0 01.531-.375c.219-.062.441-.093.672-.093.226 0 .457.042.687.125a.996.996 0 01.547.453c.125.21.188.433.188.671v.579H4.64c-.368 0-.735.027-1.11.078a4.566 4.566 0 00-1.094.265 3.04 3.04 0 00-.953.563c-.293.25-.507.555-.64.906a3.23 3.23 0 00-.188 1.078c0 .367.047.73.14 1.094.102.355.274.68.516.969.239.293.532.5.875.625.352.113.711.172 1.079.172zm.812-1.828c-.219 0-.437-.023-.656-.078a.971.971 0 01-.531-.359 1.011 1.011 0 01-.204-.61c0-.156.04-.304.126-.453a.897.897 0 01.374-.328 3.24 3.24 0 01.47-.171c.163-.04.331-.067.5-.079.163-.007.327-.015.484-.015h1.078v.687c0 .274-.074.528-.219.766a1.15 1.15 0 01-.625.5c-.262.094-.527.14-.797.14zm0 0"/></symbol><symbol overflow="visible" id="L"><path d="M.86 3.531h2.03v-4.89c.126.293.297.562.516.812.227.242.492.418.797.531.3.102.613.157.938.157.343 0 .675-.059 1-.172.332-.125.613-.313.843-.563.227-.258.41-.547.547-.86a3.64 3.64 0 00.266-.968c.05-.344.078-.68.078-1.015v-2.235c0-.344-.027-.68-.078-1.016a3.68 3.68 0 00-.266-.968c-.136-.32-.32-.61-.547-.86a2.01 2.01 0 00-.843-.562 3.007 3.007 0 00-1-.172 2.64 2.64 0 00-.938.172 1.98 1.98 0 00-.797.515c-.219.243-.39.508-.515.797v-1.359H.859zm3.453-5.219c-.22 0-.43-.039-.625-.125a1.06 1.06 0 01-.485-.406 2.027 2.027 0 01-.25-.578 3.154 3.154 0 01-.062-.64v-2.235c0-.219.02-.43.062-.64.05-.22.133-.415.25-.594a1.13 1.13 0 01.485-.39c.195-.095.406-.141.624-.141.301 0 .583.078.844.234.27.156.453.375.547.656.094.281.14.574.14.875v2.234c0 .293-.046.579-.14.86-.094.281-.277.5-.547.656a1.618 1.618 0 01-.843.234zm0 0"/></symbol><symbol overflow="visible" id="M"><path d="M3.281 0h2.031v-10.828h2.641v-1.813H.656v1.813h2.625zm0 0"/></symbol><clipPath id="a"><path d="M0 0h370v284.672H0zm0 0"/></clipPath><clipPath id="w"><path d="M269 211h101v47H269zm0 0"/></clipPath></defs><g clip-path="url(#a)"><path d="M0 0h370v284.672H0zm0 0" fill="#fff"/></g><path d="M10.398 80.668h169.223a8.554 8.554 0 013.293.656 8.492 8.492 0 012.793 1.863c.398.403.754.836 1.07 1.305.313.469.578.965.793 1.488.219.524.38 1.059.492 1.614.11.554.165 1.113.165 1.68v40.156c0 .562-.055 1.125-.165 1.675a8.68 8.68 0 01-1.285 3.102 8.61 8.61 0 01-5.476 3.66 8.652 8.652 0 01-1.68.164H10.398a8.654 8.654 0 01-3.293-.652 8.51 8.51 0 01-1.488-.797 8.611 8.611 0 01-3.824-7.152V89.273c0-.566.055-1.125.164-1.68a8.36 8.36 0 01.492-1.613c.215-.523.48-1.02.793-1.488a9.014 9.014 0 011.07-1.305 8.808 8.808 0 011.305-1.07 8.492 8.492 0 011.488-.793 8.554 8.554 0 013.293-.656zm0 0" fill="#fff0ca" stroke="#d4b554" stroke-width="2.15115"/><use xlink:href="#b" x="5.736" y="97.52" width="100%" height="100%"/><use xlink:href="#c" x="12.19" y="97.52" width="100%" height="100%"/><use xlink:href="#d" x="18.644" y="97.52" width="100%" height="100%"/><use xlink:href="#e" x="25.097" y="97.52" width="100%" height="100%"/><use xlink:href="#f" x="31.551" y="97.52" width="100%" height="100%"/><use xlink:href="#g" x="38.004" y="97.52" width="100%" height="100%"/><use xlink:href="#h" x="44.458" y="97.52" width="100%" height="100%"/><use xlink:href="#i" x="50.911" y="97.52" width="100%" height="100%"/><use xlink:href="#j" x="57.365" y="97.52" width="100%" height="100%"/><use xlink:href="#k" x="63.818" y="97.52" width="100%" height="100%"/><use xlink:href="#l" x="70.272" y="97.52" width="100%" height="100%"/><use xlink:href="#m" x="76.726" y="97.52" width="100%" height="100%"/><use xlink:href="#i" x="83.179" y="97.52" width="100%" height="100%"/><use xlink:href="#m" x="89.633" y="97.52" width="100%" height="100%"/><use xlink:href="#l" x="96.086" y="97.52" width="100%" height="100%"/><use xlink:href="#n" x="102.54" y="97.52" width="100%" height="100%"/><use xlink:href="#o" x="108.993" y="97.52" width="100%" height="100%"/><use xlink:href="#p" x="115.447" y="97.52" width="100%" height="100%"/><use xlink:href="#q" x="121.9" y="97.52" width="100%" height="100%"/><use xlink:href="#r" x="128.354" y="97.52" width="100%" height="100%"/><use xlink:href="#s" x="134.808" y="97.52" width="100%" height="100%"/><use xlink:href="#j" x="141.261" y="97.52" width="100%" height="100%"/><use xlink:href="#t" x="147.715" y="97.52" width="100%" height="100%"/><use xlink:href="#k" x="154.168" y="97.52" width="100%" height="100%"/><use xlink:href="#u" x="160.622" y="97.52" width="100%" height="100%"/><use xlink:href="#m" x="167.075" y="97.52" width="100%" height="100%"/><use xlink:href="#v" x="173.529" y="97.52" width="100%" height="100%"/><path d="M284.672 224.078h79.59c.43 0 .84.082 1.238.246a3.26 3.26 0 011.047.7c.3.304.535.652.7 1.046.163.395.245.809.245 1.235v15.058c0 .43-.082.84-.246 1.235a3.177 3.177 0 01-.7 1.047c-.304.304-.651.539-1.046.699a3.213 3.213 0 01-1.238.246h-79.59c-.43 0-.84-.082-1.235-.246a3.061 3.061 0 01-1.046-.7c-.305-.3-.54-.648-.704-1.046a3.248 3.248 0 01-.242-1.235v-15.058a3.209 3.209 0 01.945-2.281c.301-.301.65-.536 1.048-.7a3.18 3.18 0 011.234-.246zm0 0" fill="#fff"/><g clip-path="url(#w)"><path d="M284.672 224.078h79.59c.43 0 .84.082 1.238.246a3.26 3.26 0 011.047.7c.3.304.535.652.699 1.046.164.395.246.809.246 1.235v15.058c0 .43-.082.84-.246 1.235a3.177 3.177 0 01-.7 1.046c-.304.305-.652.54-1.046.7a3.213 3.213 0 01-1.238.246h-79.59c-.43 0-.84-.082-1.235-.246a3.061 3.061 0 01-1.046-.7c-.305-.3-.54-.648-.704-1.046a3.248 3.248 0 01-.242-1.235v-15.058c0-.426.082-.84.242-1.235.164-.394.399-.742.704-1.047.3-.3.648-.535 1.046-.699a3.18 3.18 0 011.235-.246zm0 0" fill="none" stroke="#000" stroke-width="2.15115"/></g><g><use xlink:href="#x" x="288.617" y="239.498" width="100%" height="100%"/><use xlink:href="#y" x="295.071" y="239.498" width="100%" height="100%"/><use xlink:href="#z" x="301.524" y="239.498" width="100%" height="100%"/><use xlink:href="#z" x="307.978" y="239.498" width="100%" height="100%"/><use xlink:href="#A" x="314.431" y="239.498" width="100%" height="100%"/><use xlink:href="#h" x="320.885" y="239.498" width="100%" height="100%"/><use xlink:href="#B" x="327.339" y="239.498" width="100%" height="100%"/><use xlink:href="#A" x="333.792" y="239.498" width="100%" height="100%"/><use xlink:href="#e" x="340.246" y="239.498" width="100%" height="100%"/><use xlink:href="#z" x="346.699" y="239.498" width="100%" height="100%"/><use xlink:href="#C" x="353.153" y="239.498" width="100%" height="100%"/></g><path d="M230.176 281.445v-6.457h2.148v6.457m-2.148-12.91v-6.453h2.148v6.453m-2.148-12.906v-6.453h2.148v6.453m-2.148-12.906v-6.453h2.148v6.453m-2.148-12.907v-6.453h2.148v6.453m-2.148-12.906v-6.457h2.148v6.457M230.176 204v-6.453h2.148V204m-2.148-12.906v-6.453h2.148v6.453m-2.148-12.906v-6.454h2.148v6.454m-2.148-12.907v-6.453h2.148v6.453m-2.148-12.91v-6.453h2.148v6.453m-2.148-12.906v-6.453h2.148v6.453m-2.148-12.906v-6.454h2.148v6.454m-2.148-12.907V107.2h2.148v6.453m-2.148-12.906V94.29h2.148v6.457m-2.148-12.91v-6.453h2.148v6.453m-2.148-12.906v-6.453h2.148v6.453m-2.148-12.907V55.57h2.148v6.453m-2.148-12.906v-6.453h2.148v6.453m-2.148-12.91v-6.453h2.148v6.453m-2.148-12.906v-6.453h2.148V23.3m-2.148-12.906V3.94h2.148v6.454" fill="#636363"/><path d="M10.398 195.398h169.223a8.653 8.653 0 013.293.653 8.78 8.78 0 011.488.797 8.57 8.57 0 013.168 3.863 8.553 8.553 0 01.657 3.289v40.156a8.553 8.553 0 01-.656 3.293 8.492 8.492 0 01-.794 1.488 8.808 8.808 0 01-1.07 1.305 8.808 8.808 0 01-1.305 1.07 8.492 8.492 0 01-1.488.793 8.553 8.553 0 01-3.293.657H10.398a8.553 8.553 0 01-3.293-.656 8.492 8.492 0 01-1.488-.794 8.808 8.808 0 01-1.305-1.07 8.809 8.809 0 01-1.07-1.305 8.492 8.492 0 01-.793-1.488 8.277 8.277 0 01-.492-1.613 8.652 8.652 0 01-.164-1.68V204c0-.563.055-1.121.164-1.676.11-.555.273-1.094.492-1.613a8.612 8.612 0 016.27-5.148 8.652 8.652 0 011.68-.165zm0 0" fill="#fff0ca" stroke="#d4b554" stroke-width="2.15115"/><g><use xlink:href="#b" x="5.736" y="212.25" width="100%" height="100%"/><use xlink:href="#f" x="12.19" y="212.25" width="100%" height="100%"/><use xlink:href="#d" x="18.644" y="212.25" width="100%" height="100%"/><use xlink:href="#D" x="25.097" y="212.25" width="100%" height="100%"/><use xlink:href="#C" x="31.551" y="212.25" width="100%" height="100%"/><use xlink:href="#g" x="38.004" y="212.25" width="100%" height="100%"/><use xlink:href="#h" x="44.458" y="212.25" width="100%" height="100%"/></g><g><use xlink:href="#i" x="50.911" y="212.25" width="100%" height="100%"/><use xlink:href="#m" x="57.365" y="212.25" width="100%" height="100%"/><use xlink:href="#l" x="63.818" y="212.25" width="100%" height="100%"/><use xlink:href="#n" x="70.272" y="212.25" width="100%" height="100%"/><use xlink:href="#o" x="76.726" y="212.25" width="100%" height="100%"/><use xlink:href="#p" x="83.179" y="212.25" width="100%" height="100%"/></g><path d="M102.18 234.836h172.023" fill="none" stroke="#000" stroke-width="2.15115" stroke-miterlimit="10"/><path d="M279.043 234.836l-6.453 3.226 1.613-3.226-1.613-3.227zm0 0" stroke="#000" stroke-width="2.15115" stroke-miterlimit="10"/><path d="M102.18 234.836c0 .469-.047.937-.137 1.398-.094.461-.227.91-.41 1.344a6.997 6.997 0 01-1.555 2.328 7.013 7.013 0 01-1.086.89 7.124 7.124 0 01-3.984 1.212c-.469 0-.934-.047-1.399-.14a7.124 7.124 0 01-2.582-1.07 7.233 7.233 0 01-1.09-.892 7.14 7.14 0 01-1.55-2.328 7.023 7.023 0 01-.547-2.742c0-.473.047-.938.137-1.399a7.06 7.06 0 01.41-1.347 7.106 7.106 0 012.64-3.215 7.125 7.125 0 013.98-1.211c.473 0 .938.047 1.403.137a7.125 7.125 0 012.582 1.074c.395.258.754.559 1.086.89a7.106 7.106 0 011.555 2.324 7.06 7.06 0 01.547 2.747zm0 0M55.215 109.352h79.59c.43 0 .84.082 1.234.246.398.164.746.394 1.047.699.305.3.539.652.703 1.047.16.394.242.804.242 1.234v15.059c0 .425-.082.84-.242 1.234a3.209 3.209 0 01-.703 1.047c-.3.3-.649.535-1.047.7a3.18 3.18 0 01-1.234.245h-79.59c-.43 0-.84-.082-1.238-.246a3.26 3.26 0 01-1.047-.7 3.26 3.26 0 01-.7-1.046 3.19 3.19 0 01-.242-1.234v-15.059a3.218 3.218 0 011.988-2.98 3.213 3.213 0 011.239-.246zm0 0" fill="#fff" stroke="#000" stroke-width="2.15115"/><g><use xlink:href="#x" x="59.158" y="124.769" width="100%" height="100%"/><use xlink:href="#y" x="65.611" y="124.769" width="100%" height="100%"/><use xlink:href="#z" x="72.065" y="124.769" width="100%" height="100%"/><use xlink:href="#z" x="78.518" y="124.769" width="100%" height="100%"/><use xlink:href="#A" x="84.972" y="124.769" width="100%" height="100%"/><use xlink:href="#h" x="91.425" y="124.769" width="100%" height="100%"/><use xlink:href="#B" x="97.879" y="124.769" width="100%" height="100%"/><use xlink:href="#A" x="104.332" y="124.769" width="100%" height="100%"/><use xlink:href="#e" x="110.786" y="124.769" width="100%" height="100%"/><use xlink:href="#z" x="117.24" y="124.769" width="100%" height="100%"/><use xlink:href="#C" x="123.693" y="124.769" width="100%" height="100%"/></g><g><use xlink:href="#E" x="43.024" y="30.117" width="100%" height="100%"/><use xlink:href="#F" x="51.628" y="30.117" width="100%" height="100%"/><use xlink:href="#G" x="60.233" y="30.117" width="100%" height="100%"/><use xlink:href="#H" x="68.838" y="30.117" width="100%" height="100%"/><use xlink:href="#G" x="77.443" y="30.117" width="100%" height="100%"/><use xlink:href="#I" x="86.047" y="30.117" width="100%" height="100%"/><use xlink:href="#J" x="94.652" y="30.117" width="100%" height="100%"/><use xlink:href="#H" x="103.257" y="30.117" width="100%" height="100%"/><use xlink:href="#I" x="111.862" y="30.117" width="100%" height="100%"/><use xlink:href="#J" x="120.466" y="30.117" width="100%" height="100%"/><use xlink:href="#K" x="129.071" y="30.117" width="100%" height="100%"/><use xlink:href="#L" x="137.676" y="30.117" width="100%" height="100%"/></g><g><use xlink:href="#M" x="286.107" y="30.117" width="100%" height="100%"/><use xlink:href="#I" x="294.712" y="30.117" width="100%" height="100%"/><use xlink:href="#J" x="303.317" y="30.117" width="100%" height="100%"/><use xlink:href="#H" x="311.922" y="30.117" width="100%" height="100%"/><use xlink:href="#I" x="320.526" y="30.117" width="100%" height="100%"/><use xlink:href="#J" x="329.131" y="30.117" width="100%" height="100%"/><use xlink:href="#K" x="337.736" y="30.117" width="100%" height="100%"/><use xlink:href="#L" x="346.341" y="30.117" width="100%" height="100%"/></g></svg>