<svg xmlns="http://www.w3.org/2000/svg" xmlns:xlink="http://www.w3.org/1999/xlink" width="838.72" height="205.44" viewBox="0 0 629.04 154.08" version="1.2"><defs><symbol overflow="visible" id="b"><path d="M2.875.094c.258 0 .508-.032.75-.094a1.86 1.86 0 00.672-.313 2.14 2.14 0 00.516-.546 1.98 1.98 0 00.265-.688c.05-.25.078-.5.078-.75v-3.86c0-.257-.027-.507-.078-.75a1.913 1.913 0 00-.781-1.25 1.634 1.634 0 00-.672-.312 3.082 3.082 0 00-1.5 0 1.732 1.732 0 00-.672.313c-.2.148-.367.328-.5.547-.137.218-.23.453-.281.703a3.394 3.394 0 00-.078.75v3.86c0 .25.023.5.078.75a2.097 2.097 0 00.781 1.234c.207.148.43.25.672.312.25.063.5.094.75.094zm0-.828c-.188 0-.375-.036-.563-.11a1.08 1.08 0 01-.468-.344 1.39 1.39 0 01-.266-.53 2.698 2.698 0 01-.062-.579v-.312l2.718-2.172v2.484c0 .188-.027.383-.078.578a1.26 1.26 0 01-.25.532.993.993 0 01-.453.343c-.187.074-.383.11-.578.11zm-1.36-2.954v-2.468c0-.196.02-.39.063-.578.05-.196.14-.375.266-.532.125-.164.281-.285.468-.359.188-.07.376-.11.563-.11.195 0 .39.04.578.11a.999.999 0 01.453.36c.125.156.207.335.25.53.051.188.078.383.078.579v.312zm0 0"/></symbol><symbol overflow="visible" id="c"><path d="M.5 0h1.078l1.297-2.203L4.188 0h1.078L3.39-3.047l1.875-3.062H4.187L2.875-3.906 1.578-6.11H.5l1.875 3.062zm0 0"/></symbol><symbol overflow="visible" id="d"><path d="M2.906.094c.258 0 .52-.032.781-.094.258-.05.5-.156.72-.313a1.51 1.51 0 00.515-.593c.125-.25.195-.504.219-.766h-.922a.893.893 0 01-.235.547.984.984 0 01-.5.313 2.064 2.064 0 01-.578.078c-.199 0-.398-.036-.594-.11a1.08 1.08 0 01-.468-.344 1.412 1.412 0 01-.266-.515 2.762 2.762 0 01-.062-.594v-.344h3.64v-1.156c0-.258-.027-.508-.078-.75a1.913 1.913 0 00-.781-1.25c-.2-.144-.422-.25-.672-.312a3.082 3.082 0 00-1.5 0 2.068 2.068 0 00-.672.312 2.109 2.109 0 00-.781 1.25 3.394 3.394 0 00-.078.75v1.5c0 .25.023.5.078.75.05.242.144.469.281.688.133.218.305.406.516.562.207.149.43.246.672.297.25.063.504.094.765.094zM1.516-3.47v-.328c0-.195.02-.39.062-.578.05-.195.14-.375.266-.531.125-.157.281-.27.468-.344.188-.07.376-.11.563-.11.195 0 .39.04.578.11.188.074.336.188.453.344.125.156.207.336.25.531.051.188.078.383.078.578v.328zm0 0"/></symbol><symbol overflow="visible" id="e"><path d="M2 0h.906v-4.922h1.938v-.828H2.906v-1.11c0-.113.008-.226.031-.343.02-.125.055-.242.11-.36a.504.504 0 01.234-.25.689.689 0 01.719.016c.125.063.21.156.266.281.05.125.078.258.078.391v.047h.922v-.078c0-.219-.04-.43-.11-.64a1.344 1.344 0 00-.343-.532 1.188 1.188 0 00-.547-.313 2.07 2.07 0 00-1.329.032 1.341 1.341 0 00-.562.421 1.532 1.532 0 00-.297.641A2.97 2.97 0 002-6.859v1.109H.687v.828H2zm0 0"/></symbol><symbol overflow="visible" id="f"><path d="M2.86.094c.28 0 .562-.04.843-.11.281-.082.524-.218.735-.406.218-.195.378-.43.484-.703a2.28 2.28 0 00.172-.86h-.922c0 .231-.059.45-.172.657-.117.21-.281.36-.5.453a1.555 1.555 0 01-1.219.031.973.973 0 01-.453-.344 1.653 1.653 0 01-.25-.53 2.698 2.698 0 01-.062-.579v-1.5c0-.195.02-.39.062-.578.05-.188.133-.36.25-.516a.979.979 0 01.453-.359 1.555 1.555 0 011.219.031.96.96 0 01.5.438c.113.21.172.422.172.64h.922a2.14 2.14 0 00-.172-.828 1.85 1.85 0 00-.484-.703 1.703 1.703 0 00-.735-.406A3.004 3.004 0 002.11-6.11a1.888 1.888 0 00-.671.328c-.2.148-.368.328-.5.547-.125.21-.215.437-.266.687a3.394 3.394 0 00-.078.75v1.5c0 .242.023.485.078.735.05.242.14.468.265.687.133.219.301.406.5.563.208.148.43.25.672.312.239.063.489.094.75.094zm0 0"/></symbol><symbol overflow="visible" id="g"><path d="M2.516.094c.238 0 .468-.043.687-.125.227-.082.422-.211.578-.39.156-.177.274-.38.36-.61V0h.921v-8.469h-.921v3.39a2.013 2.013 0 00-.36-.593 1.37 1.37 0 00-.578-.406 1.983 1.983 0 00-1.531.063 1.53 1.53 0 00-.656.562 2.388 2.388 0 00-.329.797c-.062.281-.093.57-.093.86v1.5c0 .292.031.577.094.858.062.282.171.547.328.797.164.243.382.422.656.547.27.125.55.188.844.188zm.359-.828c-.2 0-.39-.036-.578-.11a1.081 1.081 0 01-.453-.344 1.544 1.544 0 01-.266-.53 2.698 2.698 0 01-.062-.579v-1.5c0-.195.02-.39.062-.578.05-.195.14-.375.266-.531.125-.157.273-.27.453-.344a1.484 1.484 0 011.125 0 .902.902 0 01.437.36c.114.156.188.327.22.515.038.188.062.383.062.578v1.5c0 .188-.024.375-.063.563a1.314 1.314 0 01-.219.53.997.997 0 01-.437.36c-.18.074-.36.11-.547.11zm0 0"/></symbol><symbol overflow="visible" id="h"><path d="M2.328.094c.238 0 .477-.04.719-.11.25-.07.469-.191.656-.359a1.71 1.71 0 00.438-.594V0h.921v-4.188c0-.226-.03-.453-.093-.671a1.664 1.664 0 00-.282-.594 1.707 1.707 0 00-.515-.438 2.057 2.057 0 00-.625-.234 2.98 2.98 0 00-.672-.078c-.273 0-.54.031-.797.094-.262.062-.5.18-.719.343-.218.157-.386.36-.5.61a1.698 1.698 0 00-.171.75h.921c0-.196.063-.375.188-.532a.964.964 0 01.484-.328c.196-.062.395-.093.594-.093.219 0 .43.043.64.125a.916.916 0 01.47.421c.1.2.156.407.156.625v.594H3.094c-.242 0-.48.016-.719.047-.23.031-.46.09-.688.172a2.197 2.197 0 00-.609.36c-.18.156-.312.35-.406.578-.086.23-.125.464-.125.703 0 .242.035.48.11.718.07.23.19.438.359.625.164.18.363.305.593.375.227.07.47.11.72.11zm.344-.828c-.2 0-.399-.032-.594-.094a.932.932 0 01-.453-.36 1.073 1.073 0 01-.156-.562.9.9 0 01.093-.406.81.81 0 01.282-.313 1.56 1.56 0 01.39-.187c.145-.04.286-.067.422-.078.145-.02.29-.032.438-.032H4.14v.688c0 .187-.032.375-.094.562a.986.986 0 01-.328.454 1.37 1.37 0 01-.5.25c-.18.054-.36.078-.547.078zm0 0"/></symbol><symbol overflow="visible" id="i"><path d="M3.25.094c.29 0 .566-.063.828-.188.27-.125.488-.304.656-.547.164-.25.274-.515.329-.796a3.94 3.94 0 00.093-.86v-1.5c0-.289-.031-.578-.093-.86a2.103 2.103 0 00-.329-.796 1.577 1.577 0 00-.656-.563 1.902 1.902 0 00-.828-.187c-.242 0-.477.043-.703.125a1.372 1.372 0 00-.563.406c-.156.18-.28.375-.375.594v-3.39H.688V0h.921v-1.031c.094.23.22.433.375.61.157.179.344.308.563.39.226.082.46.125.703.125zm-.36-.828c-.187 0-.374-.036-.562-.11a1.093 1.093 0 01-.437-.36 1.578 1.578 0 01-.22-.53 2.508 2.508 0 01-.062-.563v-1.5c0-.195.02-.39.063-.578.039-.188.113-.36.219-.516a.979.979 0 01.437-.359c.188-.07.375-.11.563-.11.187 0 .375.04.562.11.195.074.352.188.469.344.113.156.191.336.234.531.051.188.078.383.078.578v1.5c0 .188-.027.383-.078.578a1.537 1.537 0 01-.234.532.997.997 0 01-.469.343c-.187.074-.375.11-.562.11zm0 0"/></symbol><symbol overflow="visible" id="j"><path d="M2.875.094c.29 0 .57-.032.844-.094.281-.07.531-.195.75-.375.226-.188.398-.414.515-.688a2.126 2.126 0 00-.046-1.78 2.767 2.767 0 00-.579-.813 15.02 15.02 0 00-.75-.656c.239-.176.461-.38.672-.61.219-.226.39-.484.516-.766.125-.289.187-.593.187-.906 0-.27-.054-.531-.156-.781a1.668 1.668 0 00-.453-.672 1.596 1.596 0 00-.703-.406 3.063 3.063 0 00-.797-.11c-.273 0-.54.04-.797.11-.262.074-.496.21-.703.406-.2.188-.352.414-.453.672a2.269 2.269 0 00.047 1.688c.125.28.289.539.5.765.218.23.453.434.703.61-.281.21-.543.43-.781.656-.243.23-.434.5-.579.812a2.142 2.142 0 00-.046 1.781c.113.274.285.5.515.688.227.18.477.305.75.375.281.063.563.094.844.094zm0-.828c-.219 0-.438-.036-.656-.11a1.12 1.12 0 01-.516-.406 1.168 1.168 0 01-.187-.64c0-.27.066-.524.203-.766.144-.239.316-.446.515-.625.207-.188.422-.352.641-.5.227.148.441.312.64.5.208.18.38.386.516.625.133.242.203.496.203.765 0 .23-.062.446-.187.641a.975.975 0 01-.5.406c-.219.074-.445.11-.672.11zm0-4.063a5.42 5.42 0 01-.563-.469 2.201 2.201 0 01-.437-.609 1.547 1.547 0 01-.172-.719c0-.195.047-.39.14-.578a.915.915 0 01.438-.422c.188-.093.383-.14.594-.14.207 0 .406.046.594.14a.853.853 0 01.437.422c.102.188.156.383.156.578 0 .25-.062.492-.187.719-.117.23-.262.434-.438.61-.18.167-.367.324-.562.468zm0 0"/></symbol><symbol overflow="visible" id="k"><path d="M1.89 0h1.016l.985-1.984c.195-.383.394-.774.593-1.172.207-.395.368-.801.485-1.219.125-.426.187-.86.187-1.297 0-.289-.023-.57-.062-.844a3.053 3.053 0 00-.235-.78 2.384 2.384 0 00-.468-.688 1.66 1.66 0 00-.704-.438 2.386 2.386 0 00-.812-.14c-.324 0-.64.062-.953.187a1.735 1.735 0 00-.781.578c-.211.274-.356.57-.438.89-.074.325-.11.65-.11.97 0 .335.036.664.11.984.082.312.223.605.422.875a1.8 1.8 0 00.766.594c.312.117.632.171.968.171.133 0 .27-.003.407-.015.144-.02.28-.055.406-.11-.219.356-.418.72-.594 1.094zm.985-4.14c-.21 0-.414-.048-.61-.141a1.066 1.066 0 01-.468-.422 1.909 1.909 0 01-.219-.594 3.154 3.154 0 01-.062-.64c0-.208.02-.415.062-.625.04-.208.117-.407.234-.594.114-.188.266-.328.454-.422a1.263 1.263 0 011.219 0c.195.094.35.234.468.422.113.187.188.386.219.593.039.211.062.418.062.625 0 .22-.023.434-.062.641-.031.211-.106.406-.219.594a1.11 1.11 0 01-.469.422c-.199.093-.402.14-.609.14zm0 0"/></symbol><symbol overflow="visible" id="l"><path d="M2.875.094c.332 0 .656-.063.969-.188.312-.125.566-.316.765-.578a2.3 2.3 0 00.422-.875c.082-.32.125-.648.125-.984 0-.332-.039-.66-.11-.985a2.195 2.195 0 00-.421-.875c-.2-.27-.453-.46-.766-.578a2.556 2.556 0 00-1.375-.156 2.157 2.157 0 00-.406.11c.219-.352.422-.72.61-1.094l1.187-2.36H2.859l-1 1.985c-.199.398-.398.793-.593 1.187A8.798 8.798 0 00.78-4.078c-.125.43-.187.86-.187 1.297 0 .273.02.547.062.828.04.273.117.539.235.797.125.25.28.48.468.687.196.2.43.344.704.438.269.082.539.125.812.125zm0-.828c-.21 0-.414-.047-.61-.141a1.188 1.188 0 01-.453-.438 1.686 1.686 0 01-.234-.593 3.181 3.181 0 010-1.266c.04-.207.117-.406.234-.594.114-.187.266-.328.454-.421.195-.094.406-.141.625-.141.207 0 .406.047.593.14.196.094.352.235.47.422.112.188.187.387.218.594.039.211.062.422.062.64 0 .212-.023.419-.062.626-.031.21-.106.406-.219.593a1.202 1.202 0 01-.469.438c-.187.094-.39.14-.609.14zm0 0"/></symbol><symbol overflow="visible" id="m"><path d="M1.422 0h.984l2.656-7.64v-.829H.688v.828h3.407zm0 0"/></symbol><symbol overflow="visible" id="n"><path d="M1.61-3.39l1.78-3.516v3.515zM3.39 0h.922v-2.563h.75v-.828h-.75v-5.078H3.157L.594-3.39v.829H3.39zm0 0"/></symbol><symbol overflow="visible" id="o"><path d="M2.89.094c.282 0 .551-.043.813-.125.258-.082.488-.219.688-.406.195-.196.351-.422.468-.672.114-.25.192-.508.235-.782.039-.27.062-.539.062-.812 0-.281-.023-.55-.062-.813a2.854 2.854 0 00-.235-.765 2.147 2.147 0 00-.453-.672 1.638 1.638 0 00-.672-.422 2.347 2.347 0 00-.796-.14c-.22 0-.438.027-.657.077a1.67 1.67 0 00-.578.235v-2.438h3.14v-.828H.782v4.953h.922c.008-.207.067-.406.172-.593a.987.987 0 01.438-.438c.195-.094.406-.14.624-.14.176 0 .344.042.5.125.165.074.301.183.407.328.101.148.187.304.25.468.062.168.097.34.11.516a4.962 4.962 0 010 1.078c-.024.18-.063.356-.126.531a1.511 1.511 0 01-.25.47 1.07 1.07 0 01-.422.327c-.156.074-.328.11-.515.11-.18 0-.352-.032-.516-.094a1.105 1.105 0 01-.438-.297 1.382 1.382 0 01-.265-.469 1.768 1.768 0 01-.078-.531H.672c0 .293.05.578.156.86.102.28.254.53.453.75.207.218.453.374.735.468.289.094.582.14.875.14zm0 0"/></symbol><symbol overflow="visible" id="p"><path d="M.688 0h4.375v-.828H1.64a3.456 3.456 0 01.921-1.985c.258-.269.54-.507.844-.718.313-.219.598-.453.86-.703.27-.258.476-.563.625-.907.144-.351.218-.718.218-1.093 0-.301-.043-.602-.125-.907a1.772 1.772 0 00-.453-.78c-.21-.227-.46-.391-.75-.485a2.707 2.707 0 00-.89-.156c-.282 0-.563.042-.844.124-.274.075-.516.211-.735.407a1.675 1.675 0 00-.484.687 2.272 2.272 0 00-.156.828h.922c0-.226.05-.441.156-.64a.943.943 0 01.484-.438c.22-.093.438-.14.657-.14.187 0 .367.039.546.109.176.074.32.184.438.328.125.149.207.313.25.5.04.188.063.375.063.563 0 .324-.07.632-.204.921a2.292 2.292 0 01-.562.735c-.242.2-.492.387-.75.562-.25.18-.496.375-.735.594-.23.219-.433.461-.609.719a3.822 3.822 0 00-.406.844 3.763 3.763 0 00-.203.906c-.024.312-.031.625-.031.937zm0 0"/></symbol><symbol overflow="visible" id="q"><path d="M2.906.094c.313 0 .614-.043.906-.125.301-.094.563-.25.782-.469.226-.227.394-.488.5-.781.101-.301.156-.602.156-.907a2.4 2.4 0 00-.188-.921 2.096 2.096 0 00-.562-.782 2.61 2.61 0 00-.813-.5c.27-.101.508-.254.72-.453.218-.207.378-.445.484-.718a2.28 2.28 0 00.171-.86c0-.289-.046-.57-.14-.844a1.917 1.917 0 00-.453-.718 1.643 1.643 0 00-.719-.438 2.584 2.584 0 00-.844-.14c-.273 0-.543.042-.812.124a1.724 1.724 0 00-.719.391c-.21.188-.367.418-.469.688-.094.261-.14.53-.14.812v.016h.921v-.016c0-.207.051-.41.157-.61a.882.882 0 01.453-.437 1.392 1.392 0 011.11-.047c.163.063.304.164.421.297.113.125.192.274.235.438a1.625 1.625 0 01-.094 1.219c-.106.23-.262.417-.469.562-.21.148-.438.242-.688.281-.25.032-.496.047-.734.047v.828c.258 0 .524.028.797.078.27.043.52.149.75.313.227.156.398.36.516.61.125.241.187.495.187.765 0 .2-.031.39-.094.578a1.247 1.247 0 01-.28.5 1.215 1.215 0 01-.485.297 1.77 1.77 0 01-.563.094c-.23 0-.46-.04-.687-.125a.98.98 0 01-.531-.438 1.335 1.335 0 01-.188-.672H.578c0 .293.055.578.172.86.113.273.285.507.516.703.226.187.484.32.765.39.29.07.582.11.875.11zm0 0"/></symbol><symbol overflow="visible" id="s"><path d="M2.766 0h.921v-8.469h-.921L.672-7.03l.515.687 1.579-1.078zm0 0"/></symbol><symbol overflow="visible" id="t"><path d="M1.375 0h.922v-3.234c0-.188.008-.368.031-.547.02-.188.055-.367.11-.547.05-.188.124-.36.218-.516.102-.164.239-.289.406-.375.165-.093.336-.14.516-.14.113 0 .223.023.328.062a.524.524 0 01.266.219.797.797 0 01.11.328c.019.105.03.215.03.328h.922c0-.219-.023-.43-.062-.64a1.357 1.357 0 00-.234-.594 1.084 1.084 0 00-.5-.407c-.2-.093-.403-.14-.61-.14-.2 0-.387.043-.562.125-.18.074-.336.187-.47.344-.124.156-.23.324-.312.5-.074.18-.136.355-.187.53v-1.405h-.922zm0 0"/></symbol><symbol overflow="visible" id="u"><path d="M1.125 1.64h3.719V.814H2.047v-9.454h2.797v-.843H1.125zm0 0"/></symbol><symbol overflow="visible" id="v"><path d="M.906 1.64h3.719V-9.483H.906v.843h2.797V.813H.906zm0 0"/></symbol><symbol overflow="visible" id="w"><path d="M1.828-4.266l1.047-1.546 1.047 1.546.75-.484-1.203-1.531 1.844-.532-.282-.78-1.765.64.078-1.922h-.922l.062 1.922-1.765-.64-.281.78 1.859.532L1.078-4.75zm0 0"/></symbol><symbol overflow="visible" id="x"><path d="M.688 2.36h.921v-3.391c.094.23.22.433.375.61.157.179.344.308.563.39.226.082.46.125.703.125.29 0 .566-.063.828-.188.27-.125.488-.304.656-.547.164-.25.274-.515.329-.796a3.94 3.94 0 00.093-.86v-1.5c0-.289-.031-.578-.093-.86a2.103 2.103 0 00-.329-.796 1.577 1.577 0 00-.656-.563 1.902 1.902 0 00-.828-.187c-.242 0-.477.043-.703.125a1.372 1.372 0 00-.563.406c-.156.18-.28.375-.375.594V-6.11H.688zM2.89-.735c-.188 0-.375-.036-.563-.11a1.093 1.093 0 01-.437-.36 1.578 1.578 0 01-.22-.53 2.508 2.508 0 01-.062-.563v-1.5c0-.195.02-.39.063-.578.039-.188.113-.36.219-.516a.979.979 0 01.437-.359c.188-.07.375-.11.563-.11.187 0 .375.04.562.11.195.074.352.188.469.344.113.156.191.336.234.531.051.188.078.383.078.578v1.5c0 .188-.027.383-.078.578a1.537 1.537 0 01-.234.532.997.997 0 01-.469.343c-.187.074-.375.11-.562.11zm0 0"/></symbol><symbol overflow="visible" id="y"><path d="M3.734.094c.25 0 .493-.043.735-.125.25-.082.457-.223.625-.422.176-.195.3-.422.375-.672.082-.25.125-.5.125-.75v-.11h-.922v.063c0 .149-.016.29-.047.422-.031.137-.09.266-.172.39a.704.704 0 01-.312.282.976.976 0 01-.407.094.845.845 0 01-.468-.141.93.93 0 01-.329-.39 1.53 1.53 0 01-.14-.485 3.544 3.544 0 01-.031-.5v-3.031h1.859v-.828h-1.86v-2.36h-.921v2.36H.594v.828h1.25v3.031c0 .23.015.46.047.688.039.23.109.449.203.656.094.21.222.398.39.562A1.5 1.5 0 003.063 0c.218.063.44.094.671.094zm0 0"/></symbol><symbol overflow="visible" id="z"><path d="M5.938.188c.675 0 1.335-.126 1.984-.376a3.605 3.605 0 001.61-1.187c.425-.55.718-1.16.874-1.828a8.771 8.771 0 000-4.031 4.619 4.619 0 00-.844-1.813A3.6 3.6 0 007.97-10.25a5.328 5.328 0 00-1.985-.39c-.28 0-.57.023-.859.062a4.111 4.111 0 00-.828.219c.445-.727.86-1.477 1.234-2.25l2.453-4.844H5.891l-2.047 4.078-1.219 2.438a14.837 14.837 0 00-1 2.53 9.227 9.227 0 00-.39 2.657c0 .574.038 1.148.124 1.719.094.562.254 1.11.485 1.64.238.524.562.993.968 1.407.407.418.883.718 1.438.906a5.52 5.52 0 001.688.266zm0-1.704a2.64 2.64 0 01-1.266-.312c-.399-.207-.711-.5-.938-.875a3.687 3.687 0 01-.468-1.219 6.89 6.89 0 010-2.625 3.56 3.56 0 01.468-1.219c.227-.382.547-.675.954-.875a2.92 2.92 0 011.28-.296c.427 0 .837.101 1.235.296.406.2.723.496.953.891.227.387.38.793.453 1.219.082.43.125.867.125 1.312 0 .43-.043.86-.125 1.297-.074.43-.226.84-.453 1.235-.23.386-.547.68-.953.874-.398.2-.82.297-1.266.297zm0 0"/></symbol><symbol overflow="visible" id="A"><path d="M2.938 0h2.03l5.485-15.75v-1.703H1.422v1.703h7.016zm0 0"/></symbol><symbol overflow="visible" id="B"><path d="M5.938.188c.582 0 1.16-.07 1.734-.204a3.957 3.957 0 001.562-.78 3.663 3.663 0 001.047-1.391c.239-.551.36-1.118.36-1.704 0-.687-.153-1.343-.454-1.968A5.937 5.937 0 009-7.531a14.12 14.12 0 00-1.563-1.344c.5-.383.97-.813 1.407-1.281.437-.469.785-1 1.047-1.594.257-.594.39-1.203.39-1.828 0-.57-.105-1.125-.312-1.656a3.487 3.487 0 00-.938-1.375 3.45 3.45 0 00-1.453-.797 5.906 5.906 0 00-3.297 0 3.491 3.491 0 00-2.375 2.172 4.687 4.687 0 00.078 3.484 5.58 5.58 0 001.047 1.594c.446.469.926.898 1.438 1.281-.574.406-1.106.855-1.594 1.344A5.784 5.784 0 001.687-5.86a4.433 4.433 0 00-.453 1.968c0 .586.118 1.153.36 1.704A3.585 3.585 0 002.64-.798c.468.375.988.637 1.562.781.57.133 1.149.204 1.734.204zm0-1.704c-.461 0-.915-.078-1.36-.234a2.096 2.096 0 01-1.047-.844 2.345 2.345 0 01-.39-1.297c0-.57.14-1.101.421-1.593A5.249 5.249 0 014.61-6.781a13.3 13.3 0 011.329-1.032c.457.313.894.657 1.312 1.032.426.375.781.808 1.063 1.297.28.492.421 1.023.421 1.593 0 .461-.125.891-.375 1.297-.25.399-.605.68-1.062.844-.45.156-.902.234-1.36.234zm0-8.39c-.418-.301-.81-.63-1.172-.985a4.75 4.75 0 01-.891-1.234 3.124 3.124 0 01-.36-1.453c0-.426.098-.836.297-1.235.196-.394.493-.68.891-.859a2.998 2.998 0 012.469 0c.394.18.695.465.906.86.207.398.313.808.313 1.234 0 .5-.125.984-.375 1.453-.25.469-.559.883-.922 1.234a9.668 9.668 0 01-1.157.985zm0 0"/></symbol><symbol overflow="visible" id="C"><path d="M3.89 0h2.094l2.047-4.078c.406-.813.813-1.617 1.219-2.422.414-.813.75-1.656 1-2.531.258-.883.39-1.774.39-2.672 0-.594-.046-1.172-.14-1.735a6.128 6.128 0 00-.484-1.624c-.23-.532-.547-1-.954-1.407a3.513 3.513 0 00-1.437-.89 5.238 5.238 0 00-1.688-.282c-.68 0-1.34.125-1.984.375a3.706 3.706 0 00-1.61 1.188 4.714 4.714 0 00-.874 1.828 8.822 8.822 0 000 4.031c.156.656.441 1.262.86 1.813.425.554.956.96 1.593 1.219.633.25 1.289.375 1.969.375.28 0 .562-.02.843-.063.29-.04.57-.113.844-.219-.45.719-.86 1.469-1.234 2.25zm2.047-8.531h-.03c-.43 0-.845-.098-1.25-.297a2.18 2.18 0 01-.938-.875 3.687 3.687 0 01-.469-1.219 7.63 7.63 0 01-.11-1.312c0-.438.036-.868.11-1.297.082-.426.238-.832.469-1.219.238-.395.554-.691.953-.89a2.842 2.842 0 012.531 0c.406.199.723.495.953.89.227.387.38.793.453 1.219a6.882 6.882 0 010 2.61c-.074.429-.23.835-.468 1.218-.23.387-.547.68-.954.875a2.81 2.81 0 01-1.25.297zm0 0"/></symbol><symbol overflow="visible" id="D"><path d="M4.797.188a5.3 5.3 0 001.5-.22A3.656 3.656 0 008.547-2V.001h1.906v-8.625c0-.469-.062-.926-.187-1.375a3.294 3.294 0 00-.61-1.234 3.495 3.495 0 00-1.047-.922 4.01 4.01 0 00-1.296-.485 6.874 6.874 0 00-1.375-.14 7.24 7.24 0 00-1.641.187c-.543.117-1.04.34-1.484.672-.45.336-.793.758-1.032 1.266-.242.5-.36 1.027-.36 1.578h1.907c0-.406.129-.781.39-1.125.259-.344.587-.57.985-.688a4.57 4.57 0 011.234-.171c.446 0 .883.09 1.313.265.438.168.758.461.969.875.219.406.328.84.328 1.297v1.219H6.39c-.493 0-.98.031-1.47.093-.48.063-.952.184-1.421.36a4.006 4.006 0 00-1.281.75 2.885 2.885 0 00-.828 1.187c-.168.461-.25.934-.25 1.422 0 .5.066.992.203 1.469.144.48.39.914.734 1.297.352.375.766.64 1.235.797.476.144.972.218 1.484.218zm.719-1.704c-.418 0-.825-.066-1.22-.203a1.672 1.672 0 01-.921-.734 2.209 2.209 0 01-.328-1.156c0-.301.062-.586.187-.86.133-.27.329-.484.579-.64a3.58 3.58 0 01.812-.36c.29-.093.582-.156.875-.187.29-.032.586-.047.89-.047h2.157v1.422c0 .386-.07.765-.203 1.14-.137.368-.36.68-.672.938-.305.25-.649.43-1.031.531-.375.106-.75.156-1.125.156zm0 0"/></symbol><symbol overflow="visible" id="E"><path d="M6.703.188c.594 0 1.164-.126 1.719-.376a3.057 3.057 0 001.344-1.14c.343-.508.57-1.055.687-1.64a8.46 8.46 0 00.188-1.782v-3.094c0-.593-.063-1.18-.188-1.765a4.348 4.348 0 00-.687-1.641 3.082 3.082 0 00-1.344-1.14 4.03 4.03 0 00-1.719-.391c-.492 0-.969.086-1.437.25-.461.168-.852.437-1.172.812a4.522 4.522 0 00-.766 1.25v-6.984H1.422V0h1.906v-2.11c.188.462.442.876.766 1.25.32.368.71.633 1.172.797.468.165.945.25 1.437.25zM5.97-1.516a2.97 2.97 0 01-1.157-.234 1.99 1.99 0 01-.89-.75 3.402 3.402 0 01-.469-1.078 5.331 5.331 0 01-.125-1.172v-3.094c0-.394.04-.785.125-1.172a3.48 3.48 0 01.469-1.078c.219-.332.515-.578.89-.734a2.97 2.97 0 011.157-.235c.394 0 .785.079 1.172.235.382.148.695.383.937.703.25.324.422.684.516 1.078.094.399.14.797.14 1.203v3.094c0 .398-.046.793-.14 1.188a2.905 2.905 0 01-.516 1.093 2.115 2.115 0 01-.937.735 3.242 3.242 0 01-1.172.218zm0 0"/></symbol><symbol overflow="visible" id="F"><path d="M5.89.188c.583 0 1.16-.079 1.735-.235A3.583 3.583 0 009.156-.89a3.82 3.82 0 001-1.453c.227-.562.344-1.14.344-1.734H8.594c0 .469-.117.918-.344 1.344-.23.43-.57.742-1.016.937a3.385 3.385 0 01-2.546.063 2.094 2.094 0 01-.922-.735 3.168 3.168 0 01-.485-1.094 5.112 5.112 0 01-.14-1.187v-3.094c0-.394.046-.789.14-1.187.094-.395.254-.754.485-1.078.238-.332.546-.57.921-.72a3.158 3.158 0 011.204-.233c.457 0 .906.093 1.343.28.446.188.786.497 1.016.923.227.43.344.87.344 1.328H10.5c0-.582-.117-1.156-.344-1.719a3.707 3.707 0 00-1-1.438 3.583 3.583 0 00-1.531-.843 6.29 6.29 0 00-1.734-.25c-.524 0-1.032.07-1.532.203-.5.125-.964.344-1.39.656-.418.305-.762.68-1.031 1.125a4.46 4.46 0 00-.547 1.422 7.407 7.407 0 00-.157 1.531v3.094c0 .512.051 1.023.157 1.531.101.5.285.98.546 1.438.27.449.614.828 1.032 1.14.426.305.89.516 1.39.641.5.125 1.008.188 1.532.188zm0 0"/></symbol><symbol overflow="visible" id="G"><path d="M5.172.188c.488 0 .969-.086 1.437-.25.47-.165.864-.43 1.188-.797.32-.375.57-.79.75-1.25V0h1.906v-17.453H8.547v6.984a4.382 4.382 0 00-.75-1.25 2.78 2.78 0 00-1.188-.812 4.332 4.332 0 00-1.437-.25c-.586 0-1.156.133-1.719.39A3.06 3.06 0 002.11-11.25a4.614 4.614 0 00-.687 1.64 8.422 8.422 0 00-.188 1.766v3.094c0 .605.063 1.2.188 1.781.125.586.351 1.133.687 1.64.332.513.782.891 1.344 1.141.563.25 1.133.376 1.719.376zm.734-1.704c-.398 0-.781-.07-1.156-.218a2.296 2.296 0 01-.953-.735 2.905 2.905 0 01-.516-1.094 5.112 5.112 0 01-.14-1.187v-3.094c0-.406.046-.804.14-1.203.094-.394.266-.754.516-1.078.258-.32.578-.555.953-.703a2.97 2.97 0 012.313 0c.375.156.675.402.906.734.226.336.379.696.453 1.078.082.387.125.778.125 1.172v3.094c0 .398-.043.79-.125 1.172A2.85 2.85 0 017.969-2.5c-.23.336-.532.586-.907.75a2.984 2.984 0 01-1.156.234zm0 0"/></symbol><symbol overflow="visible" id="H"><path d="M5.938.188c.519 0 1.03-.063 1.53-.188A3.93 3.93 0 008.86-.64a3.942 3.942 0 001.047-1.141c.281-.446.473-.922.578-1.422a7.871 7.871 0 00.157-1.547v-7.953c0-.52-.055-1.035-.157-1.547a4.361 4.361 0 00-.578-1.438 3.992 3.992 0 00-1.047-1.14 3.675 3.675 0 00-1.39-.64 6.918 6.918 0 00-1.532-.173c-.523 0-1.039.059-1.546.172-.5.117-.965.328-1.391.64a4.23 4.23 0 00-1.047 1.142c-.273.449-.46.93-.562 1.437a7.641 7.641 0 00-.157 1.547v7.953c0 .523.051 1.04.157 1.547.101.5.289.976.562 1.422.281.449.629.828 1.047 1.14.426.305.89.516 1.39.641a6.448 6.448 0 001.548.188zm0-1.704c-.399 0-.79-.07-1.172-.218a2.33 2.33 0 01-.97-.72 2.772 2.772 0 01-.515-1.093 5.32 5.32 0 01-.14-1.203v-.64l5.593-4.47v5.11c0 .398-.046.797-.14 1.203a2.697 2.697 0 01-.531 1.094c-.25.324-.563.562-.938.719a3.204 3.204 0 01-1.188.218zM3.14-7.594v-5.11c0-.413.046-.82.14-1.218.094-.394.266-.754.516-1.078.258-.32.582-.555.969-.703a3.075 3.075 0 012.359 0c.375.148.688.383.938.703.257.324.437.684.53 1.078.095.399.141.805.141 1.219v.64zm0 0"/></symbol><symbol overflow="visible" id="I"><path d="M1.016 0H3.25l2.688-4.531L8.624 0h2.234L6.984-6.297l3.875-6.297H8.625L5.937-8.047 3.25-12.594H1.016L4.89-6.297zm0 0"/></symbol><clipPath id="a"><path d="M0 0h629v153.293H0zm0 0"/></clipPath><clipPath id="r"><path d="M546 21h83v46h-83zm0 0"/></clipPath><clipPath id="J"><path d="M71 100h327v53.293H71zm0 0"/></clipPath></defs><g clip-path="url(#a)"><path d="M0 0h629v153.293H0zm0 0" fill="#fff"/></g><path d="M5.04 29.508H68.37a4.34 4.34 0 011.652.328c.262.11.508.242.747.398.234.157.453.336.652.54.203.199.379.417.539.652.156.234.289.484.398.746a4.34 4.34 0 01.328 1.652v20.153a4.199 4.199 0 01-.328 1.652c-.109.262-.242.512-.398.746a4.285 4.285 0 01-1.938 1.59 4.34 4.34 0 01-1.652.328H5.04a4.35 4.35 0 01-.844-.082 4.408 4.408 0 01-2.21-1.18 4.515 4.515 0 01-.938-1.402A4.83 4.83 0 01.8 54.82a4.411 4.411 0 01-.082-.843V33.824a4.341 4.341 0 01.328-1.652c.11-.262.242-.512.402-.746.156-.235.336-.453.535-.653.2-.203.418-.382.657-.539a4.408 4.408 0 011.554-.644 4.35 4.35 0 01.844-.082zm0 0" fill="none" stroke="#000" stroke-width="1.43936"/><use xlink:href="#b" x="25.189" y="48.939" width="100%" height="100%"/><use xlink:href="#c" x="30.947" y="48.939" width="100%" height="100%"/><use xlink:href="#d" x="36.704" y="48.939" width="100%" height="100%"/><use xlink:href="#e" x="42.462" y="48.939" width="100%" height="100%"/><path d="M84.203 29.508h63.332a4.34 4.34 0 011.653.328c.261.11.511.242.746.398.234.157.453.336.652.54.203.199.383.417.54.652.155.234.288.484.398.746a4.34 4.34 0 01.328 1.652v20.153c0 .28-.028.562-.082.843a4.407 4.407 0 01-.645 1.555 4.3 4.3 0 01-1.937 1.59 4.34 4.34 0 01-1.652.328H84.202a4.35 4.35 0 01-.844-.082 4.407 4.407 0 01-2.21-1.18 4.515 4.515 0 01-.536-.656 3.913 3.913 0 01-.398-.746 4.199 4.199 0 01-.246-.809 4.125 4.125 0 01-.086-.843V33.824c0-.281.027-.562.086-.84.054-.28.137-.55.246-.812a4.285 4.285 0 011.59-1.938 4.407 4.407 0 011.554-.644c.278-.055.559-.082.844-.082zm0 0" fill="#e1d4e6" stroke="#9473a6" stroke-width="1.43936"/><use xlink:href="#b" x="104.355" y="48.939" width="100%" height="100%"/><use xlink:href="#c" x="110.112" y="48.939" width="100%" height="100%"/><use xlink:href="#f" x="115.87" y="48.939" width="100%" height="100%"/><use xlink:href="#g" x="121.627" y="48.939" width="100%" height="100%"/><path d="M163.367 29.508H226.7c.286 0 .563.027.844.082.277.055.547.137.809.246a4.299 4.299 0 012.336 2.336 4.34 4.34 0 01.328 1.652v20.153c0 .28-.028.562-.082.843a4.408 4.408 0 01-1.18 2.21 4.408 4.408 0 01-2.21 1.18 4.38 4.38 0 01-.845.083h-63.332a4.38 4.38 0 01-.843-.082 4.408 4.408 0 01-2.21-1.18 4.408 4.408 0 01-1.18-2.21 4.41 4.41 0 01-.083-.844V33.824a4.341 4.341 0 01.328-1.652 4.285 4.285 0 011.59-1.938 4.408 4.408 0 011.555-.644 4.38 4.38 0 01.843-.082zm0 0" fill="#d9e6fa" stroke="#6b8cbd" stroke-width="1.43936"/><use xlink:href="#b" x="183.52" y="48.939" width="100%" height="100%"/><use xlink:href="#c" x="189.278" y="48.939" width="100%" height="100%"/><use xlink:href="#h" x="195.035" y="48.939" width="100%" height="100%"/><use xlink:href="#i" x="200.793" y="48.939" width="100%" height="100%"/><path d="M242.531 29.508h63.332c.286 0 .567.027.844.082.278.055.547.137.809.246.262.11.512.242.746.398.238.157.453.336.656.54a4.285 4.285 0 01.934 1.398c.11.262.191.531.246.812.055.278.086.559.086.84v20.153a4.416 4.416 0 01-.332 1.652 3.913 3.913 0 01-.399.746 4.515 4.515 0 01-.535.656 4.316 4.316 0 01-1.402.934c-.262.11-.531.191-.809.246a4.35 4.35 0 01-.844.082h-63.332a4.34 4.34 0 01-1.652-.328 4.285 4.285 0 01-1.938-1.59 4.408 4.408 0 01-.644-1.555 4.41 4.41 0 01-.082-.843V33.824a4.341 4.341 0 01.328-1.652c.11-.262.242-.512.399-.746a4.09 4.09 0 01.539-.653c.199-.203.418-.382.652-.539.234-.156.484-.289.746-.398a4.34 4.34 0 011.652-.328zm0 0" fill="#fff0ca" stroke="#d4b554" stroke-width="1.43936"/><use xlink:href="#b" x="262.686" y="48.939" width="100%" height="100%"/><use xlink:href="#c" x="268.443" y="48.939" width="100%" height="100%"/><use xlink:href="#j" x="274.201" y="48.939" width="100%" height="100%"/><use xlink:href="#k" x="279.958" y="48.939" width="100%" height="100%"/><path d="M321.695 29.508h63.333c.285 0 .566.027.843.082.278.055.547.137.809.246.262.11.512.242.746.398.238.157.457.336.656.54.2.199.38.417.535.652.16.234.293.484.403.746.105.262.187.531.246.812.055.278.082.559.082.84v20.153c0 .28-.027.562-.082.843a4.83 4.83 0 01-.246.809 4.516 4.516 0 01-.937 1.402 4.407 4.407 0 01-2.21 1.18 4.35 4.35 0 01-.845.082h-63.333a4.34 4.34 0 01-1.652-.328 4.285 4.285 0 01-1.938-1.59 4.408 4.408 0 01-.644-1.555 4.41 4.41 0 01-.082-.843V33.824a4.341 4.341 0 01.328-1.652 4.31 4.31 0 01.937-1.398c.2-.204.419-.383.653-.54.238-.156.484-.289.746-.398a4.34 4.34 0 011.652-.328zm0 0" fill="#d4e6d4" stroke="#7fb363" stroke-width="1.43936"/><use xlink:href="#b" x="341.851" y="48.939" width="100%" height="100%"/><use xlink:href="#c" x="347.609" y="48.939" width="100%" height="100%"/><use xlink:href="#l" x="353.366" y="48.939" width="100%" height="100%"/><use xlink:href="#m" x="359.124" y="48.939" width="100%" height="100%"/><path d="M400.867 29.508H464.2c.286 0 .567.027.844.082.278.055.547.137.809.246.262.11.512.242.746.398.238.157.457.336.656.54.2.199.38.417.535.652.16.234.293.484.403.746.105.262.187.531.246.812.054.278.082.559.082.84v20.153c0 .28-.028.562-.082.843a4.83 4.83 0 01-.246.809 4.515 4.515 0 01-.937 1.402 4.408 4.408 0 01-2.21 1.18 4.35 4.35 0 01-.846.082h-63.332a4.34 4.34 0 01-1.652-.328 4.285 4.285 0 01-1.938-1.59 4.408 4.408 0 01-.644-1.555 4.41 4.41 0 01-.082-.843V33.824a4.341 4.341 0 01.328-1.652 4.31 4.31 0 01.937-1.398c.2-.204.419-.383.653-.54.238-.156.484-.289.746-.398a4.34 4.34 0 011.652-.328zm0 0" fill="none" stroke="#000" stroke-width="1.43936"/><use xlink:href="#b" x="421.017" y="48.939" width="100%" height="100%"/><use xlink:href="#c" x="426.774" y="48.939" width="100%" height="100%"/><use xlink:href="#n" x="432.532" y="48.939" width="100%" height="100%"/><use xlink:href="#o" x="438.289" y="48.939" width="100%" height="100%"/><path d="M480.035 29.508h63.332a4.34 4.34 0 011.653.328c.262.11.508.242.746.398a4.556 4.556 0 011.191 1.191c.157.235.29.485.399.747a4.34 4.34 0 01.328 1.652v20.153c0 .28-.027.562-.082.843a4.408 4.408 0 01-.645 1.555 4.285 4.285 0 01-1.938 1.59 4.32 4.32 0 01-1.652.328h-63.332a4.35 4.35 0 01-.843-.082 4.444 4.444 0 01-1.559-.645 4.285 4.285 0 01-1.191-1.191 4.407 4.407 0 01-.399-.746 4.83 4.83 0 01-.246-.809 4.41 4.41 0 01-.082-.843V33.824a4.341 4.341 0 01.328-1.652c.11-.262.242-.512.399-.746.16-.235.34-.453.539-.653.199-.203.418-.382.652-.539a4.444 4.444 0 011.559-.644 4.35 4.35 0 01.843-.082zm0 0" fill="none" stroke="#000" stroke-width="1.43936"/><use xlink:href="#b" x="500.182" y="48.939" width="100%" height="100%"/><use xlink:href="#c" x="505.94" y="48.939" width="100%" height="100%"/><use xlink:href="#p" x="511.697" y="48.939" width="100%" height="100%"/><use xlink:href="#q" x="517.455" y="48.939" width="100%" height="100%"/><g clip-path="url(#r)"><path d="M559.2 29.508h63.332a4.34 4.34 0 011.652.328c.262.11.508.242.746.398.234.157.453.336.652.54.204.199.38.417.54.652.156.234.289.484.398.746a4.34 4.34 0 01.328 1.652v20.153c0 .28-.027.562-.082.843a4.408 4.408 0 01-.645 1.555 4.285 4.285 0 01-1.938 1.59 4.34 4.34 0 01-1.652.328H559.2a4.35 4.35 0 01-.844-.082 4.408 4.408 0 01-2.21-1.18 4.516 4.516 0 01-.939-1.402 4.48 4.48 0 01-.328-1.652V33.824c0-.281.028-.562.086-.84a4.164 4.164 0 01.645-1.559c.156-.234.336-.452.535-.652.2-.203.418-.382.656-.539a4.408 4.408 0 011.555-.644 4.35 4.35 0 01.844-.082zm0 0" fill="none" stroke="#000" stroke-width="1.43936"/></g><use xlink:href="#b" x="579.348" y="48.939" width="100%" height="100%"/><use xlink:href="#c" x="585.105" y="48.939" width="100%" height="100%"/><use xlink:href="#b" x="590.863" y="48.939" width="100%" height="100%"/><use xlink:href="#s" x="596.62" y="48.939" width="100%" height="100%"/><use xlink:href="#h" x="2.159" y="16.553" width="100%" height="100%"/><use xlink:href="#t" x="7.917" y="16.553" width="100%" height="100%"/><use xlink:href="#t" x="13.674" y="16.553" width="100%" height="100%"/><use xlink:href="#u" x="19.432" y="16.553" width="100%" height="100%"/><use xlink:href="#b" x="25.189" y="16.553" width="100%" height="100%"/><use xlink:href="#v" x="30.947" y="16.553" width="100%" height="100%"/><path d="M79.164 115.867v-4.316h1.441v4.316m-1.44-8.637v-4.316h1.44v4.316m-1.44-8.632v-4.32h1.44v4.32m-1.44-8.637v-4.32h1.44v4.32m-1.44-8.637v-4.32h1.44v4.32m-1.44-8.636v-4.32h1.44v4.32m-1.44-8.637v-4.317h1.44v4.317m-1.44-8.637v-4.316h1.44v4.316m-1.44-8.637v-2.875h1.44v2.875M388.633 115.867v-4.316h1.441v4.316m-1.441-8.637v-4.316h1.441v4.316m-1.441-8.632v-4.32h1.441v4.32m-1.441-8.637v-4.32h1.441v4.32m-1.441-8.637v-4.32h1.441v4.32m-1.441-8.636v-4.32h1.441v4.32m-1.441-8.637v-4.317h1.441v4.317m-1.441-8.637v-4.316h1.441v4.316m-1.441-8.637v-2.875h1.441v2.875" fill="#636363"/><g><use xlink:href="#h" x="81.325" y="16.553" width="100%" height="100%"/><use xlink:href="#t" x="87.082" y="16.553" width="100%" height="100%"/><use xlink:href="#t" x="92.84" y="16.553" width="100%" height="100%"/><use xlink:href="#u" x="98.597" y="16.553" width="100%" height="100%"/><use xlink:href="#s" x="104.355" y="16.553" width="100%" height="100%"/><use xlink:href="#v" x="110.112" y="16.553" width="100%" height="100%"/></g><g><use xlink:href="#h" x="160.49" y="16.553" width="100%" height="100%"/><use xlink:href="#t" x="166.248" y="16.553" width="100%" height="100%"/><use xlink:href="#t" x="172.005" y="16.553" width="100%" height="100%"/><use xlink:href="#u" x="177.763" y="16.553" width="100%" height="100%"/><use xlink:href="#p" x="183.52" y="16.553" width="100%" height="100%"/><use xlink:href="#v" x="189.278" y="16.553" width="100%" height="100%"/></g><g><use xlink:href="#h" x="239.656" y="16.553" width="100%" height="100%"/><use xlink:href="#t" x="245.413" y="16.553" width="100%" height="100%"/><use xlink:href="#t" x="251.171" y="16.553" width="100%" height="100%"/><use xlink:href="#u" x="256.928" y="16.553" width="100%" height="100%"/><use xlink:href="#q" x="262.686" y="16.553" width="100%" height="100%"/><use xlink:href="#v" x="268.443" y="16.553" width="100%" height="100%"/></g><g><use xlink:href="#h" x="318.821" y="16.553" width="100%" height="100%"/><use xlink:href="#t" x="324.579" y="16.553" width="100%" height="100%"/><use xlink:href="#t" x="330.336" y="16.553" width="100%" height="100%"/><use xlink:href="#u" x="336.094" y="16.553" width="100%" height="100%"/><use xlink:href="#n" x="341.851" y="16.553" width="100%" height="100%"/><use xlink:href="#v" x="347.609" y="16.553" width="100%" height="100%"/></g><g><use xlink:href="#h" x="397.987" y="16.553" width="100%" height="100%"/><use xlink:href="#t" x="403.744" y="16.553" width="100%" height="100%"/><use xlink:href="#t" x="409.502" y="16.553" width="100%" height="100%"/><use xlink:href="#u" x="415.259" y="16.553" width="100%" height="100%"/><use xlink:href="#o" x="421.017" y="16.553" width="100%" height="100%"/><use xlink:href="#v" x="426.774" y="16.553" width="100%" height="100%"/></g><g><use xlink:href="#h" x="477.152" y="16.553" width="100%" height="100%"/><use xlink:href="#t" x="482.91" y="16.553" width="100%" height="100%"/><use xlink:href="#t" x="488.667" y="16.553" width="100%" height="100%"/><use xlink:href="#u" x="494.425" y="16.553" width="100%" height="100%"/><use xlink:href="#l" x="500.182" y="16.553" width="100%" height="100%"/><use xlink:href="#v" x="505.94" y="16.553" width="100%" height="100%"/></g><g><use xlink:href="#h" x="556.318" y="16.553" width="100%" height="100%"/><use xlink:href="#t" x="562.075" y="16.553" width="100%" height="100%"/><use xlink:href="#t" x="567.833" y="16.553" width="100%" height="100%"/><use xlink:href="#u" x="573.59" y="16.553" width="100%" height="100%"/><use xlink:href="#m" x="579.348" y="16.553" width="100%" height="100%"/><use xlink:href="#v" x="585.105" y="16.553" width="100%" height="100%"/></g><g><use xlink:href="#w" x="81.325" y="102.915" width="100%" height="100%"/><use xlink:href="#x" x="87.082" y="102.915" width="100%" height="100%"/><use xlink:href="#y" x="92.84" y="102.915" width="100%" height="100%"/><use xlink:href="#t" x="98.597" y="102.915" width="100%" height="100%"/></g><path d="M200.79 109.148v-5.277c0-3.515 2.402-5.273 7.198-5.273h138.176c4.801 0 7.2-2.403 7.2-7.2V64.223" fill="none" stroke="#7fb363" stroke-width="1.43936" stroke-miterlimit="10"/><path d="M353.363 59.906l2.88 5.758-2.88-1.441-2.878 1.441zm0 0" fill="#7fb363" stroke="#7fb363" stroke-width="1.43936" stroke-miterlimit="10"/><path d="M231.016 108.672V98.598c0-4.801 2.402-7.2 7.199-7.2H267c4.8 0 7.2-2.398 7.2-7.195v-19.98" fill="none" stroke="#d4b554" stroke-width="1.43936" stroke-miterlimit="10"/><path d="M274.2 59.906l2.878 5.758-2.879-1.441-2.879 1.441zm0 0" fill="#d4b554" stroke="#d4b554" stroke-width="1.43936" stroke-miterlimit="10"/><path d="M259.805 108.672V94.277c0-4.796-2.399-7.195-7.195-7.195h-50.38c-4.796 0-7.199-2.398-7.199-7.2v-15.66" fill="none" stroke="#6b8cbd" stroke-width="1.43936" stroke-miterlimit="10"/><path d="M195.031 59.906l2.88 5.758-2.88-1.441-2.875 1.441zm0 0" fill="#6b8cbd" stroke="#6b8cbd" stroke-width="1.43936" stroke-miterlimit="10"/><path d="M288.59 108.672v-21.59c0-4.797-2.398-7.2-7.195-7.2H123.066c-4.8 0-7.199-2.398-7.199-7.194v-8.465" fill="none" stroke="#9473a6" stroke-width="1.43936" stroke-miterlimit="10"/><path d="M115.867 59.906l2.88 5.758-2.88-1.441-2.879 1.441zm0 0" fill="#9473a6" stroke="#9473a6" stroke-width="1.43936" stroke-miterlimit="10"/><path d="M187.836 108.672h28.789v43.18h-28.79zm0 0" fill="#d4e6d4"/><g><use xlink:href="#z" x="189.278" y="139.619" width="100%" height="100%"/><use xlink:href="#A" x="201.152" y="139.619" width="100%" height="100%"/></g><path d="M216.625 108.672h28.785v43.18h-28.785zm0 0" fill="#fff0ca"/><g><use xlink:href="#B" x="218.065" y="139.619" width="100%" height="100%"/><use xlink:href="#C" x="229.94" y="139.619" width="100%" height="100%"/></g><path d="M245.41 108.672h28.79v43.18h-28.79zm0 0" fill="#d9e6fa"/><g><use xlink:href="#D" x="246.853" y="139.619" width="100%" height="100%"/><use xlink:href="#E" x="258.727" y="139.619" width="100%" height="100%"/></g><path d="M274.2 108.672h28.784v43.18H274.2zm0 0" fill="#e1d4e6"/><g><use xlink:href="#F" x="275.64" y="139.619" width="100%" height="100%"/><use xlink:href="#G" x="287.515" y="139.619" width="100%" height="100%"/></g><path d="M159.05 108.672h28.786v43.18H159.05zm0 0" fill="#fff"/><g><use xlink:href="#H" x="160.49" y="139.619" width="100%" height="100%"/><use xlink:href="#I" x="172.365" y="139.619" width="100%" height="100%"/></g><g clip-path="url(#J)"><path d="M86.363 108.672h296.508a6.549 6.549 0 012.477.492c.394.164.766.363 1.121.598a6.7 6.7 0 01.98.808c.301.301.57.625.805.98.238.352.438.727.602 1.122a6.508 6.508 0 01.492 2.477v30.226a6.558 6.558 0 01-.492 2.48c-.164.391-.364.766-.602 1.118a6.28 6.28 0 01-.805.984c-.3.3-.628.567-.98.805a6.705 6.705 0 01-1.121.597c-.39.165-.797.286-1.215.368-.418.086-.84.125-1.262.125H86.363c-.425 0-.847-.04-1.265-.125a6.31 6.31 0 01-1.215-.368 6.705 6.705 0 01-1.121-.597 6.675 6.675 0 01-.98-.805c-.301-.3-.571-.629-.805-.984a6.145 6.145 0 01-.598-1.117 6.703 6.703 0 01-.371-1.215 6.558 6.558 0 01-.125-1.266V115.15a6.488 6.488 0 014-5.985 6.558 6.558 0 012.48-.492zm0 0" fill="none" stroke="#000" stroke-width="1.43936"/></g></svg>