<svg xmlns="http://www.w3.org/2000/svg" xmlns:xlink="http://www.w3.org/1999/xlink" width="757.44" height="282.56" viewBox="0 0 568.08 211.92" version="1.2"><defs><symbol overflow="visible" id="c"><path d="M2.313.094c.25 0 .492-.04.734-.11.238-.07.453-.191.64-.359.196-.164.348-.363.454-.594V0h.906v-4.172c0-.226-.031-.453-.094-.672a1.664 1.664 0 00-.281-.593 1.795 1.795 0 00-.5-.438 2.07 2.07 0 00-.64-.234 3.732 3.732 0 00-.657-.063c-.273 0-.54.031-.797.094-.262.055-.5.156-.719.312-.218.157-.386.36-.5.61a1.79 1.79 0 00-.171.765h.921c0-.195.063-.375.188-.53a.959.959 0 01.484-.345c.196-.062.395-.093.594-.093.207 0 .414.046.625.14a.906.906 0 01.484.422c.102.2.157.406.157.625v.594H3.094c-.242 0-.48.015-.719.047-.23.031-.46.09-.688.172A2.197 2.197 0 001.079-3a1.337 1.337 0 00-.406.578c-.086.219-.125.45-.125.688 0 .242.035.48.11.718.07.23.19.438.359.625.164.18.363.305.593.375.227.07.461.11.704.11zm.359-.828c-.211 0-.406-.032-.594-.094a.932.932 0 01-.453-.36 1.073 1.073 0 01-.156-.562.9.9 0 01.093-.406.81.81 0 01.282-.313c.125-.07.254-.129.39-.172.145-.039.286-.066.422-.078.145-.02.29-.031.438-.031H4.14v.688c0 .18-.04.359-.11.546a.986.986 0 01-.328.454 1.37 1.37 0 01-.5.25c-.18.054-.355.078-.531.078zm0 0"/></symbol><symbol overflow="visible" id="d"><path d="M2.875-4.39c.156 0 .305-.032.453-.094a.613.613 0 00.328-.329c.07-.156.11-.312.11-.468 0-.164-.04-.32-.11-.469a.575.575 0 00-.328-.313 1.045 1.045 0 00-.453-.109c-.168 0-.324.04-.469.11a.625.625 0 00-.328.312c-.074.148-.11.305-.11.469 0 .156.036.312.11.468a.67.67 0 00.328.329c.145.062.301.093.469.093zm0 4.484c.156 0 .305-.032.453-.094a.613.613 0 00.328-.328c.07-.156.11-.313.11-.469 0-.164-.04-.32-.11-.469a.566.566 0 00-.328-.328 1.045 1.045 0 00-.453-.11c-.168 0-.324.04-.469.11a.613.613 0 00-.328.328c-.074.149-.11.305-.11.47 0 .155.036.312.11.468A.67.67 0 002.406 0c.145.063.301.094.469.094zm0 0"/></symbol><symbol overflow="visible" id="h"><path d="M2.844.094c.281 0 .562-.04.844-.11.28-.082.523-.218.734-.406.219-.195.379-.43.484-.703.114-.27.172-.55.172-.844h-.922c0 .23-.058.45-.172.657a.95.95 0 01-.484.437 1.6 1.6 0 01-1.234.031.97.97 0 01-.438-.344 1.653 1.653 0 01-.25-.53 2.698 2.698 0 01-.062-.579v-1.5c0-.187.02-.375.062-.562.05-.196.133-.375.25-.532a.979.979 0 01.438-.359 1.6 1.6 0 011.234.031.946.946 0 01.484.453c.114.211.172.422.172.641h.922a2.14 2.14 0 00-.172-.828 1.85 1.85 0 00-.484-.703 1.703 1.703 0 00-.734-.407 3.473 3.473 0 00-.844-.109c-.25 0-.496.031-.735.094a1.732 1.732 0 00-.671.312c-.2.149-.368.329-.5.547-.125.211-.215.438-.266.688a3.303 3.303 0 00-.078.734v1.5c0 .25.023.5.078.75.05.242.14.469.265.688.133.21.301.39.5.546.208.149.43.25.672.313.239.063.485.094.735.094zm0 0"/></symbol><symbol overflow="visible" id="i"><path d="M3.234.094c.29 0 .57-.063.844-.188.27-.125.484-.304.64-.547.165-.25.274-.515.329-.796a3.94 3.94 0 00.094-.86v-1.5c0-.281-.032-.562-.094-.844a2.103 2.103 0 00-.328-.796 1.387 1.387 0 00-.64-.547 2.009 2.009 0 00-.845-.188c-.242 0-.468.043-.687.125a1.239 1.239 0 00-.563.39c-.156.18-.28.376-.375.595v-3.375H.688V0h.921v-1.016c.094.22.22.418.375.594.157.18.344.309.563.39.219.083.445.126.687.126zm-.359-.828c-.188 0-.371-.036-.547-.11a1.093 1.093 0 01-.437-.36 1.578 1.578 0 01-.22-.53 2.508 2.508 0 01-.062-.563v-1.5c0-.187.02-.375.063-.562.039-.188.113-.36.219-.516a.979.979 0 01.437-.36c.176-.081.36-.124.547-.124.195 0 .39.039.578.109a.999.999 0 01.453.36c.125.156.207.327.25.515.04.188.063.383.063.578v1.5c0 .188-.024.383-.063.578a1.38 1.38 0 01-.25.532.993.993 0 01-.453.343c-.187.074-.383.11-.578.11zm0 0"/></symbol><symbol overflow="visible" id="l"><path d="M2.875.094c.25 0 .492-.032.734-.094a1.86 1.86 0 00.672-.313 2.14 2.14 0 00.516-.546 1.98 1.98 0 00.266-.688c.05-.25.078-.5.078-.75V-6.14c0-.25-.028-.5-.079-.75a1.868 1.868 0 00-.265-.687 1.913 1.913 0 00-.516-.547 1.634 1.634 0 00-.672-.313 2.912 2.912 0 00-.734-.093c-.262 0-.516.031-.766.094-.242.054-.46.156-.656.312-.2.148-.367.328-.5.547-.137.21-.23.437-.281.687-.055.25-.078.5-.078.75v3.844c0 .25.023.5.078.75a2.097 2.097 0 00.781 1.234c.195.149.414.25.656.313.25.063.504.094.766.094zm0-.828c-.2 0-.39-.036-.578-.11a1.08 1.08 0 01-.469-.344 1.48 1.48 0 01-.25-.53 2.698 2.698 0 01-.062-.579v-.312l2.703-2.157v2.47c0 .187-.024.382-.063.577a1.26 1.26 0 01-.25.532 1.08 1.08 0 01-.469.343c-.18.074-.367.11-.562.11zm-1.36-2.938V-6.14c0-.195.02-.39.063-.578.05-.195.133-.375.25-.531.125-.156.281-.27.469-.344a1.534 1.534 0 011.14 0c.188.074.344.188.47.344.124.156.206.336.25.531.038.188.062.383.062.578v.313zm0 0"/></symbol><symbol overflow="visible" id="m"><path d="M2.75 0h.922v-8.438H2.75L.672-7l.515.672L2.75-7.406zm0 0"/></symbol><symbol overflow="visible" id="n"><path d="M.688 0h4.359v-.828H1.64c.039-.363.14-.719.296-1.063.157-.343.364-.644.625-.906.258-.27.54-.508.844-.719.301-.218.582-.453.844-.703.27-.258.477-.562.625-.906.145-.352.219-.719.219-1.094 0-.3-.043-.597-.125-.89-.086-.301-.23-.567-.438-.797a1.737 1.737 0 00-.765-.485 2.906 2.906 0 00-1.735-.015 1.858 1.858 0 00-.734.39c-.211.188-.367.418-.469.688a2.272 2.272 0 00-.156.828h.906c0-.219.055-.426.172-.625a.943.943 0 01.484-.438 1.484 1.484 0 011.188-.031.912.912 0 01.453.328c.113.149.191.313.234.5.051.18.079.36.079.547a2.23 2.23 0 01-.766 1.656c-.242.2-.492.387-.75.563-.262.18-.508.375-.735.594a4.02 4.02 0 00-.609.703 3.822 3.822 0 00-.406.844c-.106.304-.172.609-.203.921-.024.305-.031.61-.031.922zm0 0"/></symbol><symbol overflow="visible" id="o"><path d="M2.89.094c.313 0 .614-.043.907-.125.3-.094.562-.25.781-.469.227-.227.395-.488.5-.781.102-.29.156-.594.156-.907a2.4 2.4 0 00-.187-.921 2.096 2.096 0 00-.563-.782 2.367 2.367 0 00-.812-.484c.27-.102.508-.254.719-.453.218-.207.379-.445.484-.719a2.28 2.28 0 00.172-.86c0-.28-.047-.554-.14-.827a1.887 1.887 0 00-.454-.735 1.643 1.643 0 00-.719-.437 2.857 2.857 0 00-.828-.125c-.281 0-.558.043-.828.125a1.724 1.724 0 00-.719.39c-.199.188-.351.414-.453.672-.094.262-.14.532-.14.813v.015h.906c0-.218.05-.425.156-.625a.899.899 0 01.453-.421 1.434 1.434 0 011.125-.047c.164.054.301.148.406.28.114.126.196.274.25.438a1.615 1.615 0 01-.093 1.22c-.117.23-.278.417-.485.562a1.49 1.49 0 01-.671.28c-.25.032-.5.048-.75.048v.828c.269 0 .535.023.796.062.27.043.52.149.75.313.227.156.399.36.516.61a1.73 1.73 0 01.094 1.343 1.247 1.247 0 01-.282.5 1.085 1.085 0 01-.468.297 1.828 1.828 0 01-.578.094c-.23 0-.461-.04-.688-.125a.989.989 0 01-.515-.438 1.335 1.335 0 01-.188-.672H.578c0 .293.055.578.172.86.113.273.285.507.516.703.226.187.484.32.765.39s.567.11.86.11zm0 0"/></symbol><symbol overflow="visible" id="p"><path d="M1.61-3.375l1.765-3.516v3.516zM3.374 0h.922v-2.547h.75v-.828h-.75v-5.063H3.14L.594-3.375v.828h2.781zm0 0"/></symbol><symbol overflow="visible" id="q"><path d="M2.875.094c.281 0 .55-.043.813-.125.257-.082.488-.219.687-.406.195-.196.352-.422.469-.672.113-.25.191-.508.234-.782.04-.27.063-.539.063-.812 0-.27-.024-.54-.063-.813a2.854 2.854 0 00-.234-.765 1.958 1.958 0 00-.453-.657 1.638 1.638 0 00-.672-.421 2.347 2.347 0 00-.797-.141c-.211 0-.422.027-.64.078a1.67 1.67 0 00-.579.234v-2.421h3.125v-.829H.781V-3.5h.922c.008-.207.063-.41.156-.61a.899.899 0 01.454-.421c.195-.094.398-.14.609-.14.176 0 .344.042.5.124.164.074.3.184.406.328.113.137.195.293.25.469.063.168.098.34.11.516a4.79 4.79 0 010 1.063c-.024.179-.063.355-.125.53a1.511 1.511 0 01-.25.47.95.95 0 01-.407.327c-.168.074-.344.11-.531.11-.168 0-.34-.032-.516-.094a1.105 1.105 0 01-.437-.297 1.202 1.202 0 01-.25-.453 2.08 2.08 0 01-.094-.531H.672c0 .293.047.578.14.859.102.273.258.516.47.734.206.22.452.375.734.47.289.093.578.14.859.14zm0 0"/></symbol><symbol overflow="visible" id="r"><path d="M2.875.094c.32 0 .64-.063.953-.188.32-.125.582-.316.781-.578.207-.258.348-.55.422-.875.07-.32.11-.648.11-.984 0-.32-.04-.645-.11-.969a2.195 2.195 0 00-.422-.875c-.199-.27-.453-.46-.765-.578a2.483 2.483 0 00-.953-.188c-.137 0-.274.012-.407.032A1.188 1.188 0 002.078-5c.219-.352.414-.719.594-1.094l1.187-2.343H2.844L1.859-6.47c-.199.399-.398.793-.593 1.188-.2.386-.36.793-.485 1.218A4.442 4.442 0 00.594-2.78c0 .281.02.562.062.844.04.273.117.53.235.78.113.25.27.481.468.688.196.2.426.344.688.438.27.082.547.125.828.125zm0-.828c-.219 0-.43-.047-.625-.141a1.206 1.206 0 01-.453-.422 1.909 1.909 0 01-.219-.594 3.295 3.295 0 010-1.265c.04-.219.113-.414.219-.594.113-.188.27-.328.469-.422a1.392 1.392 0 011.218 0c.196.094.348.234.454.422.113.188.187.387.218.594.04.21.063.418.063.625 0 .21-.024.422-.063.64-.031.211-.105.407-.218.594a1.008 1.008 0 01-.454.422c-.199.094-.402.14-.609.14zm0 0"/></symbol><symbol overflow="visible" id="s"><path d="M1.422 0h.984l2.64-7.61v-.827H.688v.828h3.391zm0 0"/></symbol><symbol overflow="visible" id="t"><path d="M2.875.094c.281 0 .563-.032.844-.094.281-.07.531-.195.75-.375.218-.188.383-.41.5-.672.113-.27.172-.55.172-.844 0-.32-.075-.632-.22-.937a2.767 2.767 0 00-.577-.813 6.016 6.016 0 00-.75-.656c.25-.187.476-.39.687-.61.207-.226.375-.484.5-.765.125-.289.188-.586.188-.89a2.1 2.1 0 00-.157-.797 1.668 1.668 0 00-.453-.672 1.644 1.644 0 00-.703-.39 3.015 3.015 0 00-.781-.11c-.273 0-.543.039-.813.11a1.74 1.74 0 00-.703.39c-.199.187-.343.414-.437.672a2.25 2.25 0 00.047 1.687c.125.281.289.54.5.766.218.218.445.422.687.61-.273.198-.527.417-.765.655-.243.23-.434.5-.579.813a2.113 2.113 0 00-.218.937c0 .293.054.575.172.844.113.262.285.484.515.672.227.18.477.305.75.375.281.063.563.094.844.094zm0-.828a2.07 2.07 0 01-.672-.11 1.042 1.042 0 01-.5-.406 1.168 1.168 0 01-.187-.64c0-.27.066-.524.203-.766.133-.239.3-.446.5-.625.207-.176.426-.344.656-.5.219.156.426.324.625.5.207.18.379.386.516.625.132.242.203.496.203.765 0 .23-.063.446-.188.641a.975.975 0 01-.5.406c-.219.074-.437.11-.656.11zm0-4.047a4.388 4.388 0 01-.563-.485 2.311 2.311 0 01-.437-.593 1.508 1.508 0 01-.172-.704c0-.207.047-.406.14-.593a.853.853 0 01.423-.422 1.56 1.56 0 01.609-.125c.207 0 .406.043.594.125a.853.853 0 01.422.422c.101.187.156.386.156.593 0 .243-.059.477-.172.704a2.509 2.509 0 01-.438.593c-.18.18-.367.34-.562.485zm0 0"/></symbol><symbol overflow="visible" id="u"><path d="M2.516.094c.238 0 .468-.043.687-.125.219-.082.406-.211.563-.39.164-.188.289-.384.375-.595V0h.906v-6.094H4.14v3.797c0 .188-.024.375-.063.563a1.537 1.537 0 01-.234.53 1.022 1.022 0 01-.422.36c-.18.074-.36.11-.547.11-.2 0-.387-.036-.563-.11a1.13 1.13 0 01-.421-.36 1.403 1.403 0 01-.235-.53 3.416 3.416 0 01-.047-.563v-3.797H.688v3.797c0 .23.015.461.046.688.04.218.102.433.188.64.094.211.219.403.375.578.156.168.344.293.562.375.22.07.438.11.657.11zm0 0"/></symbol><symbol overflow="visible" id="v"><path d="M1.89 0h1l.985-1.969c.207-.394.41-.785.61-1.172.195-.394.35-.8.468-1.218.125-.426.188-.86.188-1.297 0-.29-.024-.57-.063-.844a3.053 3.053 0 00-.234-.781 2.384 2.384 0 00-.469-.688 1.619 1.619 0 00-.688-.422 2.488 2.488 0 00-.812-.14c-.336 0-.656.062-.969.187a1.734 1.734 0 00-.765.578c-.211.262-.356.555-.438.875-.074.325-.11.649-.11.97 0 .335.036.663.11.984.082.312.223.605.422.875a1.8 1.8 0 00.766.593c.312.117.629.172.953.172.144 0 .285-.008.422-.031.132-.02.265-.055.39-.11-.21.356-.406.72-.594 1.094zm.985-4.125h-.016c-.21 0-.414-.047-.609-.14a1.094 1.094 0 01-.453-.423 1.686 1.686 0 01-.234-.593 4.3 4.3 0 010-1.266c.039-.207.117-.406.234-.594.113-.187.266-.328.453-.421a1.434 1.434 0 011.234 0c.196.093.348.234.454.421.113.188.187.387.218.594.04.211.063.418.063.625 0 .219-.024.434-.063.64-.031.212-.105.407-.218.595a1.11 1.11 0 01-.47.421c-.187.094-.386.141-.593.141zm0 0"/></symbol><symbol overflow="visible" id="w"><path d="M2.5.094c.238 0 .469-.043.688-.125.226-.082.421-.211.578-.39.164-.177.289-.376.375-.595V0h.906v-8.438H4.14v3.376a1.908 1.908 0 00-.375-.594 1.243 1.243 0 00-.579-.39 1.949 1.949 0 00-1.515.062 1.446 1.446 0 00-.656.546 2.388 2.388 0 00-.329.797 3.879 3.879 0 00-.093.844v1.5c0 .293.031.578.094.86.062.28.171.546.328.796.164.243.382.422.656.547.27.125.547.188.828.188zm.36-.828c-.188 0-.376-.036-.563-.11a1.08 1.08 0 01-.469-.344 1.653 1.653 0 01-.25-.53 2.698 2.698 0 01-.062-.579v-1.5c0-.195.02-.39.062-.578.05-.188.133-.36.25-.516.125-.164.281-.285.469-.359.187-.07.375-.11.562-.11.188 0 .368.044.547.126a.902.902 0 01.438.359c.113.156.191.328.234.516.04.187.063.375.063.562v1.5c0 .188-.024.375-.063.563a1.537 1.537 0 01-.234.53.997.997 0 01-.438.36c-.18.074-.36.11-.547.11zm0 0"/></symbol><symbol overflow="visible" id="f"><path d="M2.313.094c.218 0 .425-.04.624-.11.208-.082.383-.203.532-.359.144-.164.258-.344.344-.531V0h1.359v-6.094h-1.36v3.797c0 .137-.015.277-.046.422a1.015 1.015 0 01-.157.39.839.839 0 01-.328.266.9.9 0 01-.406.094.95.95 0 01-.406-.094.787.787 0 01-.328-.265 1.118 1.118 0 01-.172-.391 1.994 1.994 0 01-.047-.422v-3.797H.578v3.797c0 .219.016.445.047.672.031.219.082.434.156.64.082.212.196.403.344.579.156.168.336.293.547.375.207.082.422.125.64.125zm0 0"/></symbol><symbol overflow="visible" id="g"><path d="M2.875.094c.29 0 .582-.04.875-.11.3-.082.566-.218.797-.406.238-.195.414-.437.531-.719.125-.289.188-.586.188-.89 0-.301-.063-.598-.188-.89a2.449 2.449 0 00-.516-.767 5.716 5.716 0 00-.687-.609c.227-.176.43-.367.61-.578.187-.219.331-.457.437-.719.101-.27.156-.55.156-.843 0-.282-.055-.555-.156-.829a1.914 1.914 0 00-.469-.718 1.62 1.62 0 00-.734-.422 2.922 2.922 0 00-1.688 0 1.713 1.713 0 00-.75.422c-.21.199-.367.437-.468.718-.094.274-.141.547-.141.829 0 .292.05.574.156.843.102.262.242.5.422.719.188.21.39.402.61.578-.243.188-.47.39-.688.61-.211.218-.375.476-.5.765a2.25 2.25 0 00-.188.89c0 .305.055.602.172.891.125.282.301.524.531.72.227.187.489.323.782.405.3.07.601.11.906.11zm0-1.219c-.168 0-.34-.031-.516-.094a.756.756 0 01-.39-.312.926.926 0 01-.14-.485c0-.218.05-.421.155-.609.102-.195.235-.367.391-.516.164-.156.332-.296.5-.421.176.124.336.265.484.421.157.149.286.32.391.516.113.188.172.39.172.61a.88.88 0 01-.156.484.772.772 0 01-.391.312 1.339 1.339 0 01-.5.094zm0-3.89a5.738 5.738 0 01-.422-.391 2.18 2.18 0 01-.312-.469 1.26 1.26 0 01-.125-.563c0-.144.03-.289.093-.437a.727.727 0 01.313-.328c.144-.07.297-.11.453-.11.145 0 .29.04.438.11.144.074.25.183.312.328.063.148.094.293.094.438 0 .199-.043.386-.125.562-.074.168-.18.324-.313.469a4.82 4.82 0 01-.406.39zm0 0"/></symbol><symbol overflow="visible" id="j"><path d="M2.531 0h1.36v-8.438H2.53L.61-6.952l.672.797 1.25-.969zm0 0"/></symbol><symbol overflow="visible" id="k"><path d="M2.875.094c.344 0 .676-.063 1-.188.32-.125.594-.32.813-.594a2.48 2.48 0 00.453-.921 4.229 4.229 0 000-2.032 2.535 2.535 0 00-.438-.906 1.796 1.796 0 00-.797-.61 2.752 2.752 0 00-1.297-.171c.04-.07.079-.145.11-.219.031-.07.066-.144.11-.219L4.14-8.437H2.656L1.61-6.297c-.168.356-.343.711-.53 1.063-.18.343-.325.71-.438 1.093A4.205 4.205 0 00.484-3c0 .305.02.602.063.89.039.294.117.575.234.844.125.274.285.516.485.735.207.219.453.383.734.484.29.094.582.14.875.14zm0-1.219a.926.926 0 01-.484-.14.961.961 0 01-.36-.36 1.949 1.949 0 01-.156-.484 3.657 3.657 0 01-.031-.516c0-.164.008-.336.031-.516.031-.175.086-.336.172-.484a.872.872 0 01.344-.36.926.926 0 01.484-.14c.176 0 .336.047.484.14.157.087.27.204.344.36.082.156.133.324.156.5a2.74 2.74 0 010 1.016 1.466 1.466 0 01-.156.484c-.086.148-.2.266-.344.36a.887.887 0 01-.484.14zm0 0"/></symbol><symbol overflow="visible" id="x"><path d="M2.89.094c.32 0 .641-.047.954-.14a1.9 1.9 0 00.812-.485c.239-.227.414-.492.532-.797.113-.313.171-.629.171-.953a2.14 2.14 0 00-.171-.828 2.073 2.073 0 00-.47-.735 2.209 2.209 0 00-.718-.5c.238-.125.445-.285.625-.484.176-.195.313-.422.406-.672.094-.25.14-.508.14-.781 0-.301-.054-.598-.155-.89-.094-.29-.25-.54-.47-.75a1.901 1.901 0 00-.765-.47 2.798 2.798 0 00-.89-.14 3.05 3.05 0 00-.86.125A1.915 1.915 0 00.797-7.234a2.36 2.36 0 00-.156.859H2c0-.164.031-.32.094-.469.07-.156.18-.27.328-.343.156-.083.312-.125.469-.125a.96.96 0 01.5.14.694.694 0 01.328.39 1.226 1.226 0 01-.047 1.11c-.094.188-.23.344-.406.469a1.437 1.437 0 01-.563.234c-.2.032-.402.047-.61.047v1.219c.22 0 .438.015.657.047.227.023.441.101.64.234.196.125.348.293.454.5.113.2.172.414.172.64 0 .2-.047.4-.141.595a.853.853 0 01-.406.421c-.188.094-.383.141-.578.141a1.57 1.57 0 01-.532-.094.859.859 0 01-.406-.36 1.06 1.06 0 01-.14-.53H.452c.008.312.07.617.188.906.125.293.3.543.53.75.24.2.509.34.813.422.301.082.602.125.907.125zm0 0"/></symbol><symbol overflow="visible" id="y"><path d="M.578 0h4.594v-1.219H2.016c.07-.332.191-.64.359-.922.176-.289.383-.55.625-.78.25-.227.508-.442.781-.642.27-.207.52-.43.75-.671.227-.25.399-.532.516-.844a2.99 2.99 0 00.172-1c0-.32-.043-.64-.125-.953a1.952 1.952 0 00-.469-.828c-.23-.239-.5-.41-.813-.516a2.95 2.95 0 00-.937-.156c-.305 0-.602.043-.89.125-.294.086-.548.23-.766.437a2.1 2.1 0 00-.5.735 2.29 2.29 0 00-.172.89h1.36c0-.176.034-.343.109-.5a.766.766 0 01.359-.343c.164-.083.332-.125.5-.125.145 0 .285.03.422.093a.769.769 0 01.344.297c.082.125.14.262.171.406.032.149.047.293.047.438 0 .312-.074.605-.218.875a1.92 1.92 0 01-.579.687c-.242.188-.48.375-.718.563-.23.187-.45.39-.656.61a4.06 4.06 0 00-.922 1.546c-.086.293-.137.59-.157.89-.023.294-.03.59-.03.891zm0 0"/></symbol><symbol overflow="visible" id="z"><path d="M-.406 2.36h.922l.609-3.47c.04.22.117.43.234.626.114.199.282.343.5.437.22.094.446.14.688.14.281 0 .555-.046.828-.14.27-.101.508-.266.719-.484.207-.219.367-.461.484-.735.113-.27.195-.535.25-.796l.266-1.5c.031-.239.05-.477.062-.72A2.9 2.9 0 005.094-5a1.683 1.683 0 00-.25-.625 1.054 1.054 0 00-.516-.422 1.987 1.987 0 00-.703-.125c-.23 0-.46.04-.688.11-.218.062-.43.18-.624.343-.188.157-.344.34-.47.547L2-6.094h-.938zM2.328-.735c-.168 0-.324-.032-.469-.094a.765.765 0 01-.328-.281 1.101 1.101 0 01-.172-.407A2.455 2.455 0 011.313-2c.007-.164.023-.328.046-.484l.266-1.5c.031-.176.082-.348.156-.516.082-.176.192-.332.328-.469.145-.133.305-.234.485-.297.187-.062.367-.093.547-.093.187 0 .367.043.546.125.176.086.305.21.391.375.094.168.14.351.14.546 0 .2-.011.403-.03.61L3.921-2.22c-.031.2-.09.39-.172.578-.086.18-.2.34-.344.485a1.39 1.39 0 01-.5.328 1.828 1.828 0 01-.578.094zm0 0"/></symbol><symbol overflow="visible" id="A"><path d="M1.797.094c.226 0 .457-.032.687-.094.239-.07.454-.191.641-.36.188-.163.344-.35.469-.562-.024.2.008.387.094.563.093.168.226.289.406.359.187.063.379.094.578.094H5v-.828h-.172a.409.409 0 01-.172-.032.227.227 0 01-.11-.125.423.423 0 010-.171l.891-5.032H4.5l-.188 1.125a1.841 1.841 0 00-.25-.64.999.999 0 00-.484-.422 1.665 1.665 0 00-.687-.14c-.274 0-.547.054-.829.155-.273.094-.515.25-.734.47-.21.218-.371.464-.484.734-.106.261-.18.527-.219.796L.359-2.53c-.054.25-.086.496-.093.734-.012.242.007.477.062.703.05.23.14.438.266.625.133.188.304.328.515.422.22.094.446.14.688.14zm.516-.828c-.2 0-.387-.04-.563-.125a.883.883 0 01-.39-.375 1.367 1.367 0 01-.141-.547 2.191 2.191 0 01.047-.594l.25-1.5a3.06 3.06 0 01.171-.547c.083-.187.196-.351.344-.5.145-.156.313-.266.5-.328.196-.07.39-.11.578-.11.164 0 .32.032.47.094a.769.769 0 01.343.297c.082.125.14.266.172.422.031.149.039.305.031.469a3.813 3.813 0 01-.063.484l-.265 1.485c-.031.18-.086.355-.156.53a1.36 1.36 0 01-.329.454 1.243 1.243 0 01-.468.297c-.18.062-.356.094-.531.094zm0 0"/></symbol><symbol overflow="visible" id="B"><path d="M1.797.094c.226 0 .457-.032.687-.094.239-.07.454-.191.641-.36.188-.163.344-.35.469-.562-.024.2.008.387.094.563.093.168.226.289.406.359.187.063.379.094.578.094H5v-.828h-.172a.409.409 0 01-.172-.032.227.227 0 01-.11-.125.423.423 0 010-.171L5.86-8.438h-.937l-.61 3.468a1.841 1.841 0 00-.25-.64.999.999 0 00-.484-.422 1.665 1.665 0 00-.687-.14c-.274 0-.547.054-.829.155-.273.094-.515.25-.734.47-.21.218-.371.464-.484.734-.106.261-.18.527-.219.796L.359-2.53c-.054.25-.086.496-.093.734-.012.242.007.477.062.703.05.23.14.438.266.625.133.188.304.328.515.422.22.094.446.14.688.14zm.516-.828c-.2 0-.387-.04-.563-.125a.883.883 0 01-.39-.375 1.367 1.367 0 01-.141-.547 2.191 2.191 0 01.047-.594l.25-1.5a3.06 3.06 0 01.171-.547c.083-.187.196-.351.344-.5.145-.156.313-.266.5-.328.196-.07.39-.11.578-.11.164 0 .32.032.47.094a.769.769 0 01.343.297c.082.125.14.266.172.422.031.149.039.305.031.469a3.813 3.813 0 01-.063.484l-.265 1.485c-.031.18-.086.355-.156.53a1.36 1.36 0 01-.329.454 1.243 1.243 0 01-.468.297c-.18.062-.356.094-.531.094zm0 0"/></symbol><clipPath id="a"><path d="M0 0h568v211.832H0zm0 0"/></clipPath><clipPath id="b"><path d="M520 0h48v57h-48zm0 0"/></clipPath></defs><g clip-path="url(#a)"><path d="M0 0h568v211.832H0zm0 0" fill="#fff"/></g><path d="M365.508 209.32v-2.152l.715-.004.004 2.156m-.723-4.308l-.004-2.153.719-.004.004 2.157m-.727-4.31v-2.151l.719-.004v2.156m-.723-4.309l-.004-2.152.719-.004.004 2.156m-.723-4.308l-.004-2.153.72-.004v2.156m-.724-4.308l-.004-2.152.72-.004.003 2.156m-.722-4.309l-.004-2.152.718-.004v2.156m-.722-4.308v-2.153l.715-.004.003 2.156m-.722-4.308l-.004-2.153.719-.004.004 2.157m-.727-4.309v-2.152l.715-.004.004 2.156m-.723-4.309l-.004-2.152.719-.004.004 2.156m-.727-4.308v-2.153h.72v2.153m-.724-4.309l-.004-2.152h.72l.003 2.152m-.722-4.308l-.004-2.153h.718v2.153M365.43 149l-.004-2.152h.718l.004 2.152m-.722-4.309l-.004-2.152h.719l.004 2.152m-.727-4.308v-2.153h.715l.004 2.153m-.723-4.309l-.004-2.152h.719l.004 2.152m-.727-4.308v-2.153h.715l.004 2.153m-.722-4.309l-.004-2.152h.718l.004 2.152m-.726-4.309v-2.152h.718v2.152m-.722-4.308l-.004-2.153h.719l.004 2.153m-.723-4.309l-.004-2.152h.719v2.152m-.723-4.308l-.004-2.153h.719l.004 2.153m-.723-4.305l-.004-2.156h.719l.004 2.152m-.727-4.305v-2.156h.715l.004 2.152m-.723-4.304l-.004-2.156h.72l.003 2.152m-.726-4.305v-2.156h.714l.004 2.152m-.722-4.304l-.004-2.157h.719l.004 2.153m-.727-4.305v-2.156h.719v2.152m-.723-4.305l-.004-2.156h.719l.004 2.153m-.723-4.305l-.004-2.156h.719v2.152m-.723-4.305l-.004-2.156h.719l.004 2.152m-.723-4.304l-.004-2.157h.719l.004 2.153m-.727-4.305v-2.156h.715l.004 2.152m-.723-4.305l-.004-2.156h.72l.003 2.156m-.726-4.308v-2.156h.718v2.156m-.722-4.309l-.004-2.156h.719l.004 2.156m-.723-4.308l-.004-2.157h.719v2.157m-.723-4.309l-.004-2.156h.719l.004 2.156m-.723-4.309l-.004-2.156H366v2.156m-.723-4.308l-.004-2.156h.72l.003 2.156m-.723-4.309l-.004-2.156h.72l.003 2.156m-.726-4.308V22.62l.718-.004v1.438M322.172 209.32v-2.156h.719v2.156m-.72-4.308v-2.157h.72v2.157m-.72-4.309v-2.156h.72v2.156m-.72-4.308v-2.157h.72v2.157m-.72-4.31v-2.155h.72v2.156m-.72-4.309v-2.156h.72v2.156m-.72-4.308v-2.153h.72v2.153m-.72-4.309v-2.152h.72v2.152m-.72-4.308v-2.153h.72v2.153m-.72-4.309v-2.152h.72v2.152m-.72-4.309v-2.152h.72v2.152m-.72-4.308v-2.153h.72v2.153m-.72-4.309v-2.152h.72v2.152m-.72-4.308v-2.153h.72v2.153m-.72-4.309v-2.152h.72V149m-.72-4.309v-2.152h.72v2.152m-.72-4.308v-2.153h.72v2.153m-.72-4.309v-2.152h.72v2.152m-.72-4.308v-2.153h.72v2.153m-.72-4.309v-2.152h.72v2.152m-.72-4.309v-2.152h.72v2.152m-.72-4.308v-2.153h.72v2.153m-.72-4.309v-2.152h.72v2.152m-.72-4.308v-2.153h.72v2.153m-.72-4.309v-2.152h.72v2.152m-.72-4.309v-2.152h.72v2.152m-.72-4.308v-2.152h.72v2.152m-.72-4.309v-2.152h.72v2.152m-.72-4.308v-2.153h.72v2.153m-.72-4.309V82.22h.72v2.152m-.72-4.308V77.91h.72v2.153m-.72-4.305v-2.156h.72v2.156m-.72-4.309v-2.156h.72v2.156m-.72-4.308v-2.157h.72v2.157m-.72-4.309v-2.156h.72v2.156m-.72-4.309v-2.156h.72v2.156m-.72-4.308v-2.156h.72v2.156m-.72-4.309V47.75h.72v2.156m-.72-4.308V43.44h.72v2.157m-.72-4.309v-2.156h.72v2.156m-.72-4.309v-2.156h.72v2.156m-.72-4.308v-2.156h.72v2.156m-.72-4.309v-2.156h.72v2.156m-.72-4.308V22.62h.72v1.434M279.09 209.32v-2.156h.715v2.156m-.715-4.308v-2.157h.715v2.157m-.715-4.309v-2.156h.715v2.156m-.715-4.308v-2.157h.715v2.157m-.715-4.31v-2.155h.715v2.156m-.715-4.309v-2.156h.715v2.156m-.715-4.308v-2.153h.715v2.153m-.715-4.309v-2.152h.715v2.152m-.715-4.308v-2.153h.715v2.153m-.715-4.309v-2.152h.715v2.152m-.715-4.309v-2.152h.715v2.152m-.715-4.308v-2.153h.715v2.153m-.715-4.309v-2.152h.715v2.152m-.715-4.308v-2.153h.715v2.153M279.09 149v-2.152h.715V149m-.715-4.309v-2.152h.715v2.152m-.715-4.308v-2.153h.715v2.153m-.715-4.309v-2.152h.715v2.152m-.715-4.308v-2.153h.715v2.153m-.715-4.309v-2.152h.715v2.152m-.715-4.309v-2.152h.715v2.152m-.715-4.308v-2.153h.715v2.153m-.715-4.309v-2.152h.715v2.152m-.715-4.308v-2.153h.715v2.153m-.715-4.309v-2.152h.715v2.152m-.715-4.309v-2.152h.715v2.152m-.715-4.308v-2.152h.715v2.152m-.715-4.309v-2.152h.715v2.152m-.715-4.308v-2.153h.715v2.153m-.715-4.309V82.22h.715v2.152m-.715-4.308V77.91h.715v2.153m-.715-4.305v-2.156h.715v2.156m-.715-4.309v-2.156h.715v2.156m-.715-4.308v-2.157h.715v2.157m-.715-4.309v-2.156h.715v2.156m-.715-4.309v-2.156h.715v2.156m-.715-4.308v-2.156h.715v2.156m-.715-4.309V47.75h.715v2.156m-.715-4.308V43.44h.715v2.157m-.715-4.309v-2.156h.715v2.156m-.715-4.309v-2.156h.715v2.156m-.715-4.308v-2.156h.715v2.156m-.715-4.309v-2.156h.715v2.156m-.715-4.308V22.62h.715v1.434M236.004 209.32v-2.156h.719v2.156m-.72-4.308v-2.157h.72v2.157m-.72-4.309v-2.156h.72v2.156m-.72-4.308v-2.157h.72v2.157m-.72-4.31v-2.155h.72v2.156m-.72-4.309v-2.156h.72v2.156m-.72-4.308v-2.153h.72v2.153m-.72-4.309v-2.152h.72v2.152m-.72-4.308v-2.153h.72v2.153m-.72-4.309v-2.152h.72v2.152m-.72-4.309v-2.152h.72v2.152m-.72-4.308v-2.153h.72v2.153m-.72-4.309v-2.152h.72v2.152m-.72-4.308v-2.153h.72v2.153m-.72-4.309v-2.152h.72V149m-.72-4.309v-2.152h.72v2.152m-.72-4.308v-2.153h.72v2.153m-.72-4.309v-2.152h.72v2.152m-.72-4.308v-2.153h.72v2.153m-.72-4.309v-2.152h.72v2.152m-.72-4.309v-2.152h.72v2.152m-.72-4.308v-2.153h.72v2.153m-.72-4.309v-2.152h.72v2.152m-.72-4.308v-2.153h.72v2.153m-.72-4.309v-2.152h.72v2.152m-.72-4.309v-2.152h.72v2.152m-.72-4.308v-2.152h.72v2.152m-.72-4.309v-2.152h.72v2.152m-.72-4.308v-2.153h.72v2.153m-.72-4.309V82.22h.72v2.152m-.72-4.308V77.91h.72v2.153m-.72-4.305v-2.156h.72v2.156m-.72-4.309v-2.156h.72v2.156m-.72-4.308v-2.157h.72v2.157m-.72-4.309v-2.156h.72v2.156m-.72-4.309v-2.156h.72v2.156m-.72-4.308v-2.156h.72v2.156m-.72-4.309V47.75h.72v2.156m-.72-4.308V43.44h.72v2.157m-.72-4.309v-2.156h.72v2.156m-.72-4.309v-2.156h.72v2.156m-.72-4.308v-2.156h.72v2.156m-.72-4.309v-2.156h.72v2.156m-.72-4.308V22.62h.72v1.434M63.91 209.32v-2.156h.719v2.156m-.719-4.308v-2.157h.719v2.157m-.719-4.309v-2.156h.719v2.156m-.719-4.308v-2.157h.719v2.157m-.719-4.31v-2.155h.719v2.156m-.719-4.309v-2.156h.719v2.156m-.719-4.308v-2.153h.719v2.153m-.719-4.309v-2.152h.719v2.152m-.719-4.308v-2.153h.719v2.153m-.719-4.309v-2.152h.719v2.152m-.719-4.309v-2.152h.719v2.152m-.719-4.308v-2.153h.719v2.153m-.719-4.309v-2.152h.719v2.152m-.719-4.308v-2.153h.719v2.153M63.91 149v-2.152h.719V149m-.719-4.309v-2.152h.719v2.152m-.719-4.308v-2.153h.719v2.153m-.719-4.309v-2.152h.719v2.152m-.719-4.308v-2.153h.719v2.153m-.719-4.309v-2.152h.719v2.152m-.719-4.309v-2.152h.719v2.152m-.719-4.308v-2.153h.719v2.153m-.719-4.309v-2.152h.719v2.152m-.719-4.308v-2.153h.719v2.153m-.719-4.309v-2.152h.719v2.152m-.719-4.309v-2.152h.719v2.152m-.719-4.308v-2.152h.719v2.152m-.719-4.309v-2.152h.719v2.152m-.719-4.308v-2.153h.719v2.153m-.719-4.309V82.22h.719v2.152m-.719-4.308V77.91h.719v2.153m-.719-4.305v-2.156h.719v2.156m-.719-4.309v-2.156h.719v2.156m-.719-4.308v-2.157h.719v2.157m-.719-4.309v-2.156h.719v2.156m-.719-4.309v-2.156h.719v2.156m-.719-4.308v-2.156h.719v2.156m-.719-4.309V47.75h.719v2.156m-.719-4.308V43.44h.719v2.157m-.719-4.309v-2.156h.719v2.156m-.719-4.309v-2.156h.719v2.156m-.719-4.308v-2.156h.719v2.156m-.719-4.309v-2.156h.719v2.156m-.719-4.308V22.62h.719v1.434M106.5 209.32v-2.156h.715v2.156m-.715-4.308v-2.157h.715v2.157m-.715-4.309v-2.156h.715v2.156m-.715-4.308v-2.157h.715v2.157m-.715-4.31v-2.155h.715v2.156m-.715-4.309v-2.156h.715v2.156m-.715-4.308v-2.153h.715v2.153m-.715-4.309v-2.152h.715v2.152m-.715-4.308v-2.153h.715v2.153m-.715-4.309v-2.152h.715v2.152m-.715-4.309v-2.152h.715v2.152m-.715-4.308v-2.153h.715v2.153m-.715-4.309v-2.152h.715v2.152m-.715-4.308v-2.153h.715v2.153M106.5 149v-2.152h.715V149m-.715-4.309v-2.152h.715v2.152m-.715-4.308v-2.153h.715v2.153m-.715-4.309v-2.152h.715v2.152m-.715-4.308v-2.153h.715v2.153m-.715-4.309v-2.152h.715v2.152m-.715-4.309v-2.152h.715v2.152m-.715-4.308v-2.153h.715v2.153m-.715-4.309v-2.152h.715v2.152m-.715-4.308v-2.153h.715v2.153m-.715-4.309v-2.152h.715v2.152m-.715-4.309v-2.152h.715v2.152m-.715-4.308v-2.152h.715v2.152m-.715-4.309v-2.152h.715v2.152m-.715-4.308v-2.153h.715v2.153m-.715-4.309V82.22h.715v2.152m-.715-4.308V77.91h.715v2.153m-.715-4.305v-2.156h.715v2.156m-.715-4.309v-2.156h.715v2.156m-.715-4.308v-2.157h.715v2.157m-.715-4.309v-2.156h.715v2.156m-.715-4.309v-2.156h.715v2.156m-.715-4.308v-2.156h.715v2.156m-.715-4.309V47.75h.715v2.156m-.715-4.308V43.44h.715v2.157m-.715-4.309v-2.156h.715v2.156m-.715-4.309v-2.156h.715v2.156m-.715-4.308v-2.156h.715v2.156m-.715-4.309v-2.156h.715v2.156m-.715-4.308V22.62h.715v1.434M149.836 209.32v-2.156h.715v2.156m-.715-4.308v-2.157h.715v2.157m-.715-4.309v-2.156h.715v2.156m-.715-4.308v-2.157h.715v2.157m-.715-4.31v-2.155h.715v2.156m-.715-4.309v-2.156h.715v2.156m-.715-4.308v-2.153h.715v2.153m-.715-4.309v-2.152h.715v2.152m-.715-4.308v-2.153h.715v2.153m-.715-4.309v-2.152h.715v2.152m-.715-4.309v-2.152h.715v2.152m-.715-4.308v-2.153h.715v2.153m-.715-4.309v-2.152h.715v2.152m-.715-4.308v-2.153h.715v2.153m-.715-4.309v-2.152h.715V149m-.715-4.309v-2.152h.715v2.152m-.715-4.308v-2.153h.715v2.153m-.715-4.309v-2.152h.715v2.152m-.715-4.308v-2.153h.715v2.153m-.715-4.309v-2.152h.715v2.152m-.715-4.309v-2.152h.715v2.152m-.715-4.308v-2.153h.715v2.153m-.715-4.309v-2.152h.715v2.152m-.715-4.308v-2.153h.715v2.153m-.715-4.309v-2.152h.715v2.152m-.715-4.309v-2.152h.715v2.152m-.715-4.308v-2.152h.715v2.152m-.715-4.309v-2.152h.715v2.152m-.715-4.308v-2.153h.715v2.153m-.715-4.309V82.22h.715v2.152m-.715-4.308V77.91h.715v2.153m-.715-4.305v-2.156h.715v2.156m-.715-4.309v-2.156h.715v2.156m-.715-4.308v-2.157h.715v2.157m-.715-4.309v-2.156h.715v2.156m-.715-4.309v-2.156h.715v2.156m-.715-4.308v-2.156h.715v2.156m-.715-4.309V47.75h.715v2.156m-.715-4.308V43.44h.715v2.157m-.715-4.309v-2.156h.715v2.156m-.715-4.309v-2.156h.715v2.156m-.715-4.308v-2.156h.715v2.156m-.715-4.309v-2.156h.715v2.156m-.715-4.308V22.62h.715v1.434M192.668 209.32v-2.156h.719v2.156m-.719-4.308v-2.157h.719v2.157m-.719-4.309v-2.156h.719v2.156m-.719-4.308v-2.157h.719v2.157m-.719-4.31v-2.155h.719v2.156m-.719-4.309v-2.156h.719v2.156m-.719-4.308v-2.153h.719v2.153m-.719-4.309v-2.152h.719v2.152m-.719-4.308v-2.153h.719v2.153m-.719-4.309v-2.152h.719v2.152m-.719-4.309v-2.152h.719v2.152m-.719-4.308v-2.153h.719v2.153m-.719-4.309v-2.152h.719v2.152m-.719-4.308v-2.153h.719v2.153m-.719-4.309v-2.152h.719V149m-.719-4.309v-2.152h.719v2.152m-.719-4.308v-2.153h.719v2.153m-.719-4.309v-2.152h.719v2.152m-.719-4.308v-2.153h.719v2.153m-.719-4.309v-2.152h.719v2.152m-.719-4.309v-2.152h.719v2.152m-.719-4.308v-2.153h.719v2.153m-.719-4.309v-2.152h.719v2.152m-.719-4.308v-2.153h.719v2.153m-.719-4.309v-2.152h.719v2.152m-.719-4.309v-2.152h.719v2.152m-.719-4.308v-2.152h.719v2.152m-.719-4.309v-2.152h.719v2.152m-.719-4.308v-2.153h.719v2.153m-.719-4.309V82.22h.719v2.152m-.719-4.308V77.91h.719v2.153m-.719-4.305v-2.156h.719v2.156m-.719-4.309v-2.156h.719v2.156m-.719-4.308v-2.157h.719v2.157m-.719-4.309v-2.156h.719v2.156m-.719-4.309v-2.156h.719v2.156m-.719-4.308v-2.156h.719v2.156m-.719-4.309V47.75h.719v2.156m-.719-4.308V43.44h.719v2.157m-.719-4.309v-2.156h.719v2.156m-.719-4.309v-2.156h.719v2.156m-.719-4.308v-2.156h.719v2.156m-.719-4.309v-2.156h.719v2.156m-.719-4.308V22.62h.719v1.434M20.824 209.32v-2.156h.719v2.156m-.719-4.308v-2.157h.719v2.157m-.719-4.309v-2.156h.719v2.156m-.719-4.308v-2.157h.719v2.157m-.719-4.31v-2.155h.719v2.156m-.719-4.309v-2.156h.719v2.156m-.719-4.308v-2.153h.719v2.153m-.719-4.309v-2.152h.719v2.152m-.719-4.308v-2.153h.719v2.153m-.719-4.309v-2.152h.719v2.152m-.719-4.309v-2.152h.719v2.152m-.719-4.308v-2.153h.719v2.153m-.719-4.309v-2.152h.719v2.152m-.719-4.308v-2.153h.719v2.153M20.824 149v-2.152h.719V149m-.719-4.309v-2.152h.719v2.152m-.719-4.308v-2.153h.719v2.153m-.719-4.309v-2.152h.719v2.152m-.719-4.308v-2.153h.719v2.153m-.719-4.309v-2.152h.719v2.152m-.719-4.309v-2.152h.719v2.152m-.719-4.308v-2.153h.719v2.153m-.719-4.309v-2.152h.719v2.152m-.719-4.308v-2.153h.719v2.153m-.719-4.309v-2.152h.719v2.152m-.719-4.309v-2.152h.719v2.152m-.719-4.308v-2.152h.719v2.152m-.719-4.309v-2.152h.719v2.152m-.719-4.308v-2.153h.719v2.153m-.719-4.309V82.22h.719v2.152m-.719-4.308V77.91h.719v2.153m-.719-4.305v-2.156h.719v2.156m-.719-4.309v-2.156h.719v2.156m-.719-4.308v-2.157h.719v2.157m-.719-4.309v-2.156h.719v2.156m-.719-4.309v-2.156h.719v2.156m-.719-4.308v-2.156h.719v2.156m-.719-4.309V47.75h.719v2.156m-.719-4.308V43.44h.719v2.157m-.719-4.309v-2.156h.719v2.156m-.719-4.309v-2.156h.719v2.156m-.719-4.308v-2.156h.719v2.156m-.719-4.309v-2.156h.719v2.156m-.719-4.308V22.62h.719v1.434"/><path d="M6.82 22.621h545.668" fill="none" stroke="#000" stroke-width="2.15424" stroke-miterlimit="10"/><path d="M557.336 22.621l-6.461 3.23 1.613-3.23-1.613-3.234zm0 0"/><g clip-path="url(#b)"><path d="M557.336 22.621l-6.461 3.23 1.613-3.23-1.613-3.234zm0 0" fill="none" stroke="#000" stroke-width="2.15424" stroke-miterlimit="10"/></g><path d="M20.824 36.621H63.91v28.723H20.824zm0 0" fill="#fff" stroke="#000" stroke-width="1.43616"/><use xlink:href="#c" x="28.005" y="56.011" width="100%" height="100%"/><use xlink:href="#d" x="33.75" y="56.011" width="100%" height="100%"/><use xlink:href="#e" x="39.495" y="56.011" width="100%" height="100%"/><use xlink:href="#f" x="45.239" y="56.011" width="100%" height="100%"/><use xlink:href="#g" x="50.984" y="56.011" width="100%" height="100%"/><path d="M193.164 36.621h43.082v28.723h-43.082zm0 0" fill="#fff" stroke="#000" stroke-width="1.43616"/><use xlink:href="#h" x="200.346" y="56.011" width="100%" height="100%"/><use xlink:href="#d" x="206.091" y="56.011" width="100%" height="100%"/><use xlink:href="#e" x="211.835" y="56.011" width="100%" height="100%"/><use xlink:href="#f" x="217.58" y="56.011" width="100%" height="100%"/><use xlink:href="#g" x="223.325" y="56.011" width="100%" height="100%"/><path d="M106.992 36.621h86.172v28.723h-86.172zm0 0" fill="#fff" stroke="#000" stroke-width="1.43616"/><use xlink:href="#i" x="132.846" y="56.011" width="100%" height="100%"/><use xlink:href="#d" x="138.591" y="56.011" width="100%" height="100%"/><use xlink:href="#e" x="144.335" y="56.011" width="100%" height="100%"/><use xlink:href="#f" x="150.08" y="56.011" width="100%" height="100%"/><use xlink:href="#j" x="155.825" y="56.011" width="100%" height="100%"/><use xlink:href="#k" x="161.569" y="56.011" width="100%" height="100%"/><use xlink:href="#l" x="17.952" y="12.926" width="100%" height="100%"/><use xlink:href="#m" x="61.037" y="12.926" width="100%" height="100%"/><use xlink:href="#n" x="104.122" y="12.926" width="100%" height="100%"/><use xlink:href="#o" x="147.208" y="12.926" width="100%" height="100%"/><use xlink:href="#p" x="190.293" y="12.926" width="100%" height="100%"/><use xlink:href="#q" x="233.378" y="12.926" width="100%" height="100%"/><use xlink:href="#r" x="276.463" y="12.926" width="100%" height="100%"/><use xlink:href="#s" x="319.548" y="12.926" width="100%" height="100%"/><use xlink:href="#t" x="362.633" y="12.926" width="100%" height="100%"/><path d="M13.645 87.246h15.078c.43 0 .84.082 1.238.246a3.26 3.26 0 011.047.7c.304.304.535.652.699 1.05.164.395.246.809.246 1.235v15.082c0 .425-.082.84-.246 1.234a3.174 3.174 0 01-.7 1.05 3.26 3.26 0 01-1.046.7 3.213 3.213 0 01-1.238.246H13.645a3.218 3.218 0 01-2.285-.945 3.184 3.184 0 01-.704-1.051 3.19 3.19 0 01-.242-1.234V90.477c0-.426.078-.84.242-1.235.164-.398.399-.746.703-1.05a3.218 3.218 0 012.286-.946zm0 0" fill="#d4e6d4" stroke="#7fb363" stroke-width=".71808"/><use xlink:href="#u" x="15.08" y="102.686" width="100%" height="100%"/><use xlink:href="#t" x="20.824" y="102.686" width="100%" height="100%"/><path d="M13.645 115.969h15.078a3.213 3.213 0 012.285.949c.304.3.535.652.699 1.047.164.394.246.808.246 1.234v15.082c0 .43-.082.84-.246 1.235a3.174 3.174 0 01-.7 1.05 3.26 3.26 0 01-1.046.7 3.213 3.213 0 01-1.238.246H13.645a3.218 3.218 0 01-2.285-.945 3.184 3.184 0 01-.704-1.051 3.175 3.175 0 01-.242-1.235V119.2a3.19 3.19 0 01.945-2.281 3.213 3.213 0 012.285-.95zm0 0" fill="#fff" stroke="#000" stroke-width=".71808"/><use xlink:href="#u" x="12.207" y="131.41" width="100%" height="100%"/><use xlink:href="#m" x="17.952" y="131.41" width="100%" height="100%"/><use xlink:href="#r" x="23.697" y="131.41" width="100%" height="100%"/><path d="M13.645 144.691h15.078a3.213 3.213 0 012.285.95c.304.3.535.652.699 1.046.164.395.246.809.246 1.239v15.078c0 .43-.082.84-.246 1.238a3.198 3.198 0 01-.7 1.047 3.26 3.26 0 01-1.046.7 3.213 3.213 0 01-1.238.245H13.645a3.218 3.218 0 01-2.285-.945 3.209 3.209 0 01-.704-1.047 3.209 3.209 0 01-.242-1.238v-15.078a3.195 3.195 0 01.945-2.285 3.213 3.213 0 012.285-.95zm0 0" fill="#fff" stroke="#000" stroke-width=".71808"/><use xlink:href="#u" x="12.207" y="160.133" width="100%" height="100%"/><use xlink:href="#o" x="17.952" y="160.133" width="100%" height="100%"/><use xlink:href="#n" x="23.697" y="160.133" width="100%" height="100%"/><path d="M13.645 173.414h15.078a3.213 3.213 0 012.285.95c.304.3.535.652.699 1.046.164.395.246.809.246 1.238v15.078c0 .43-.082.84-.246 1.239a3.198 3.198 0 01-.7 1.047 3.198 3.198 0 01-1.046.699 3.213 3.213 0 01-1.238.246H13.645c-.43 0-.84-.082-1.239-.246a3.158 3.158 0 01-1.047-.7 3.209 3.209 0 01-.703-1.046 3.209 3.209 0 01-.242-1.239v-15.078a3.195 3.195 0 01.945-2.285 3.213 3.213 0 012.285-.95zm0 0" fill="#fff" stroke="#000" stroke-width=".71808"/><use xlink:href="#u" x="12.207" y="188.856" width="100%" height="100%"/><use xlink:href="#r" x="17.952" y="188.856" width="100%" height="100%"/><use xlink:href="#p" x="23.697" y="188.856" width="100%" height="100%"/><path d="M56.727 87.246h15.082a3.235 3.235 0 012.285.945 3.235 3.235 0 01.945 2.286v15.082a3.235 3.235 0 01-.945 2.285 3.235 3.235 0 01-2.285.945H56.727c-.426 0-.84-.082-1.235-.246a3.277 3.277 0 01-1.05-.7 3.235 3.235 0 01-.946-2.284V90.477a3.235 3.235 0 01.945-2.285c.305-.301.657-.536 1.051-.7a3.193 3.193 0 011.235-.246zm0 0" fill="#fff" stroke="#000" stroke-width=".71808"/><use xlink:href="#u" x="58.165" y="102.686" width="100%" height="100%"/><use xlink:href="#t" x="63.91" y="102.686" width="100%" height="100%"/><path d="M99.812 87.246h15.079a3.218 3.218 0 012.285.945c.304.305.539.653.703 1.051.164.395.246.809.246 1.235v15.082c0 .425-.082.84-.246 1.234a3.185 3.185 0 01-.703 1.05 3.218 3.218 0 01-2.285.946H99.812a3.235 3.235 0 01-2.285-.945 3.235 3.235 0 01-.945-2.285V90.477a3.235 3.235 0 01.945-2.285 3.235 3.235 0 012.285-.946zm0 0" fill="#fff" stroke="#000" stroke-width=".71808"/><use xlink:href="#u" x="101.25" y="102.686" width="100%" height="100%"/><use xlink:href="#t" x="106.995" y="102.686" width="100%" height="100%"/><path d="M142.898 87.246h15.078a3.218 3.218 0 012.984 1.996c.165.395.247.809.247 1.235v15.082c0 .425-.082.84-.246 1.234a3.218 3.218 0 01-2.984 1.996h-15.079a3.218 3.218 0 01-2.984-1.996 3.193 3.193 0 01-.246-1.234V90.477c0-.426.082-.84.246-1.235a3.218 3.218 0 012.984-1.996zm0 0" fill="#fff" stroke="#000" stroke-width=".71808"/><use xlink:href="#u" x="144.335" y="102.686" width="100%" height="100%"/><use xlink:href="#t" x="150.08" y="102.686" width="100%" height="100%"/><path d="M185.98 87.246h15.082a3.235 3.235 0 012.285.945 3.235 3.235 0 01.946 2.286v15.082a3.235 3.235 0 01-.945 2.285 3.235 3.235 0 01-2.286.945H185.98a3.218 3.218 0 01-2.281-.945 3.184 3.184 0 01-.703-1.051 3.193 3.193 0 01-.246-1.234V90.477c0-.426.082-.84.246-1.235.164-.398.398-.746.703-1.05a3.218 3.218 0 012.281-.946zm0 0" fill="#d4e6d4" stroke="#7fb363" stroke-width=".71808"/><use xlink:href="#u" x="187.42" y="102.686" width="100%" height="100%"/><use xlink:href="#t" x="193.165" y="102.686" width="100%" height="100%"/><path d="M229.066 87.246h15.082a3.218 3.218 0 012.281.945c.305.305.54.653.704 1.051.164.395.246.809.246 1.235v15.082c0 .425-.082.84-.246 1.234a3.185 3.185 0 01-.703 1.05 3.218 3.218 0 01-2.282.946h-15.082a3.235 3.235 0 01-2.285-.945 3.235 3.235 0 01-.945-2.285V90.477a3.235 3.235 0 01.945-2.285 3.234 3.234 0 012.285-.946zm0 0" fill="#fff" stroke="#000" stroke-width=".71808"/><use xlink:href="#u" x="230.505" y="102.686" width="100%" height="100%"/><use xlink:href="#t" x="236.25" y="102.686" width="100%" height="100%"/><path d="M272.152 87.246h15.078a3.218 3.218 0 012.984 1.996c.165.395.247.809.247 1.235v15.082c0 .425-.082.84-.246 1.234a3.218 3.218 0 01-2.984 1.996h-15.079a3.218 3.218 0 01-2.984-1.996 3.193 3.193 0 01-.246-1.234V90.477c0-.426.082-.84.246-1.235a3.218 3.218 0 012.984-1.996zm0 0" fill="#fff" stroke="#000" stroke-width=".71808"/><use xlink:href="#u" x="273.591" y="102.686" width="100%" height="100%"/><use xlink:href="#t" x="279.335" y="102.686" width="100%" height="100%"/><path d="M315.238 87.246h15.078a3.235 3.235 0 012.285.945 3.235 3.235 0 01.946 2.286v15.082a3.235 3.235 0 01-.945 2.285 3.235 3.235 0 01-2.286.945h-15.078a3.218 3.218 0 01-2.285-.945 3.184 3.184 0 01-.703-1.051 3.193 3.193 0 01-.246-1.234V90.477c0-.426.082-.84.246-1.235.164-.398.398-.746.703-1.05a3.218 3.218 0 012.285-.946zm0 0" fill="#fff" stroke="#000" stroke-width=".71808"/><use xlink:href="#u" x="316.676" y="102.686" width="100%" height="100%"/><use xlink:href="#t" x="322.42" y="102.686" width="100%" height="100%"/><path d="M99.812 115.969h15.079a3.198 3.198 0 012.285.949c.304.3.539.652.703 1.047.164.394.246.808.246 1.234v15.082c0 .43-.082.84-.246 1.235a3.184 3.184 0 01-.703 1.05 3.218 3.218 0 01-2.285.946H99.812a3.235 3.235 0 01-2.285-.945 3.235 3.235 0 01-.945-2.286V119.2a3.218 3.218 0 01.945-2.281c.305-.305.653-.54 1.051-.703a3.179 3.179 0 011.234-.246zm0 0" fill="#d4e6d4" stroke="#7fb363" stroke-width=".71808"/><use xlink:href="#u" x="98.378" y="131.41" width="100%" height="100%"/><use xlink:href="#m" x="104.122" y="131.41" width="100%" height="100%"/><use xlink:href="#r" x="109.867" y="131.41" width="100%" height="100%"/><path d="M185.98 115.969h15.082c.43 0 .84.082 1.235.246.398.164.746.398 1.05.703a3.218 3.218 0 01.946 2.281v15.082a3.235 3.235 0 01-.945 2.285 3.235 3.235 0 01-2.286.946H185.98a3.218 3.218 0 01-2.281-.945 3.184 3.184 0 01-.703-1.051 3.179 3.179 0 01-.246-1.235V119.2c0-.426.082-.84.246-1.234.164-.395.398-.746.703-1.047.3-.305.652-.54 1.047-.703a3.193 3.193 0 011.234-.246zm0 0" fill="#fff" stroke="#000" stroke-width=".71808"/><use xlink:href="#u" x="184.548" y="131.41" width="100%" height="100%"/><use xlink:href="#m" x="190.293" y="131.41" width="100%" height="100%"/><use xlink:href="#r" x="196.037" y="131.41" width="100%" height="100%"/><path d="M272.152 115.969h15.078a3.213 3.213 0 012.285.949c.305.3.536.652.7 1.047.164.394.246.808.246 1.234v15.082c0 .43-.082.84-.246 1.235a3.218 3.218 0 01-2.984 1.996h-15.079a3.218 3.218 0 01-2.984-1.996 3.18 3.18 0 01-.246-1.235V119.2c0-.426.082-.84.246-1.234.164-.395.394-.746.7-1.047a3.213 3.213 0 012.285-.95zm0 0" fill="#fff" stroke="#000" stroke-width=".71808"/><use xlink:href="#u" x="270.718" y="131.41" width="100%" height="100%"/><use xlink:href="#m" x="276.463" y="131.41" width="100%" height="100%"/><use xlink:href="#r" x="282.208" y="131.41" width="100%" height="100%"/><path d="M358.32 115.969h15.082a3.225 3.225 0 012.984 1.996c.165.394.247.808.247 1.234v15.082a3.235 3.235 0 01-.945 2.285c-.305.301-.657.535-1.051.7a3.193 3.193 0 01-1.235.246H358.32a3.235 3.235 0 01-2.285-.945 3.235 3.235 0 01-.945-2.286V119.2a3.218 3.218 0 01.945-2.281c.305-.305.652-.54 1.05-.703a3.179 3.179 0 011.235-.246zm0 0" fill="#fff" stroke="#000" stroke-width=".71808"/><use xlink:href="#u" x="356.889" y="131.41" width="100%" height="100%"/><use xlink:href="#m" x="362.633" y="131.41" width="100%" height="100%"/><use xlink:href="#r" x="368.378" y="131.41" width="100%" height="100%"/><path d="M185.98 144.691h15.082c.43 0 .84.082 1.235.246.398.164.746.399 1.05.704a3.218 3.218 0 01.946 2.285v15.078c0 .43-.082.84-.246 1.238a3.26 3.26 0 01-.7 1.047 3.235 3.235 0 01-2.285.945H185.98a3.218 3.218 0 01-2.281-.945 3.209 3.209 0 01-.95-2.285v-15.078a3.198 3.198 0 01.95-2.285c.3-.305.652-.54 1.047-.704a3.193 3.193 0 011.234-.246zm0 0" fill="#fff" stroke="#000" stroke-width=".71808"/><use xlink:href="#u" x="184.548" y="160.133" width="100%" height="100%"/><use xlink:href="#o" x="190.293" y="160.133" width="100%" height="100%"/><use xlink:href="#n" x="196.037" y="160.133" width="100%" height="100%"/><path d="M358.32 144.691h15.082a3.225 3.225 0 012.984 1.996c.165.395.247.809.247 1.239v15.078c0 .43-.082.84-.246 1.238a3.26 3.26 0 01-.7 1.047c-.304.3-.656.535-1.05.7a3.193 3.193 0 01-1.235.245H358.32a3.235 3.235 0 01-2.285-.945 3.26 3.26 0 01-.7-1.047 3.213 3.213 0 01-.245-1.238v-15.078a3.218 3.218 0 01.945-2.285c.305-.305.652-.54 1.05-.704a3.18 3.18 0 011.235-.246zm0 0" fill="#d4e6d4" stroke="#7fb363" stroke-width=".71808"/><use xlink:href="#u" x="356.889" y="160.133" width="100%" height="100%"/><use xlink:href="#o" x="362.633" y="160.133" width="100%" height="100%"/><use xlink:href="#n" x="368.378" y="160.133" width="100%" height="100%"/><path d="M358.32 173.414h15.082a3.225 3.225 0 012.984 1.996c.165.395.247.809.247 1.238v15.078c0 .43-.082.84-.246 1.239a3.214 3.214 0 01-1.75 1.746 3.193 3.193 0 01-1.235.246H358.32c-.43 0-.84-.082-1.234-.246a3.174 3.174 0 01-1.051-.7 3.26 3.26 0 01-.7-1.046 3.213 3.213 0 01-.245-1.239v-15.078a3.218 3.218 0 01.945-2.285c.305-.304.652-.539 1.05-.703a3.179 3.179 0 011.235-.246zm0 0" fill="#fff" stroke="#000" stroke-width=".71808"/><use xlink:href="#u" x="356.889" y="188.856" width="100%" height="100%"/><use xlink:href="#r" x="362.633" y="188.856" width="100%" height="100%"/><use xlink:href="#p" x="368.378" y="188.856" width="100%" height="100%"/><path d="M408.594 87.246v-2.152h.719v2.152m-.72-4.308v-2.153h.72v2.153m-.72-4.31v-2.151h.72v2.152m-.72-4.309v-2.152h.72v2.152m-.72-4.308v-2.153h.72v2.153m-.72-4.309v-2.152h.72v2.152m-.72-4.308v-2.153h.72v2.153m-.72-4.31v-2.151h.72v2.152m-.72-4.309v-2.152h.72v2.152m-.72-4.308v-2.153h.72v2.153m-.72-4.309v-2.152h.72v2.152m-.72-4.308v-2.153h.72v2.153m-.72-4.309v-2.152h.72v2.152m-.72-4.309v-2.152h.72v2.152m-.72-4.308v-2.153h.72v2.153M451.64 87.246l-.003-2.152.718-.004.004 2.156m-.73-4.308l-.008-2.153.719-.004.008 2.157m-.735-4.31l-.004-2.151.715-.004.008 2.156m-.73-4.309l-.008-2.152.718-.004.008 2.156m-.734-4.304l-.008-2.157.719-.004.008 2.157m-.73-4.305l-.009-2.156.72-.004.007 2.156m-.734-4.305l-.008-2.156.718-.004.008 2.157m-.73-4.305l-.008-2.156h.719l.004 2.152m-.73-4.305l-.009-2.156h.719l.008 2.152m-.73-4.304l-.008-2.157h.718l.004 2.153m-.73-4.305l-.008-2.156h.719l.008 2.152m-.735-4.304l-.004-2.157h.715l.008 2.153m-.73-4.305l-.008-2.156h.718l.008 2.152m-.734-4.305l-.004-2.156h.715l.008 2.152m-.73-4.304l-.009-2.157h.72l.007 2.153M494.762 87.246v-2.152h.718v2.152m-.718-4.308v-2.153h.718v2.153m-.718-4.31v-2.151h.718v2.152m-.718-4.309v-2.152h.718v2.152m-.718-4.308v-2.153h.718v2.153m-.718-4.309v-2.152h.718v2.152m-.718-4.308v-2.153h.718v2.153m-.718-4.31v-2.151h.718v2.152m-.718-4.309v-2.152h.718v2.152m-.718-4.308v-2.153h.718v2.153m-.718-4.309v-2.152h.718v2.152m-.718-4.308v-2.153h.718v2.153m-.718-4.309v-2.152h.718v2.152m-.718-4.309v-2.152h.718v2.152m-.718-4.308v-2.153h.718v2.153M537.848 115.969v-2.153h.718v2.153m-.718-4.309v-2.152h.718v2.152m-.718-4.308v-2.153h.718v2.153m-.718-4.309v-2.152h.718v2.152m-.718-4.309v-2.152h.718v2.152m-.718-4.308v-2.153h.718v2.153m-.718-4.309v-2.152h.718v2.152m-.718-4.308v-2.153h.718v2.153m-.718-4.309v-2.152h.718V81.5m-.718-4.309V75.04h.718v2.152m-.718-4.308V70.73h.718v2.153m-.718-4.309v-2.152h.718v2.152m-.718-4.308v-2.153h.718v2.153m-.718-4.309v-2.152h.718v2.152m-.718-4.305v-2.156h.718v2.156m-.718-4.308v-2.157h.718v2.157m-.718-4.309V44.88h.718v2.156m-.718-4.308V40.57h.718v2.157m-.718-4.309v-2.156h.718v2.156m-.718-4.309v-2.156h.718v2.156m-.718-4.308v-2.156h.718V29.8m-.718-4.309v-2.156h.718v2.156"/><g><use xlink:href="#v" x="405.718" y="12.926" width="100%" height="100%"/></g><g><use xlink:href="#m" x="445.931" y="12.926" width="100%" height="100%"/><use xlink:href="#l" x="451.676" y="12.926" width="100%" height="100%"/></g><g><use xlink:href="#m" x="489.016" y="12.926" width="100%" height="100%"/><use xlink:href="#m" x="494.761" y="12.926" width="100%" height="100%"/></g><g><use xlink:href="#m" x="532.101" y="12.926" width="100%" height="100%"/><use xlink:href="#n" x="537.846" y="12.926" width="100%" height="100%"/></g><path d="M365.508 36.621h172.34v28.723h-172.34zm0 0" fill="#fff" stroke="#000" stroke-width="1.43616"/><g><use xlink:href="#w" x="434.442" y="56.011" width="100%" height="100%"/><use xlink:href="#d" x="440.186" y="56.011" width="100%" height="100%"/><use xlink:href="#e" x="445.931" y="56.011" width="100%" height="100%"/></g><g><use xlink:href="#f" x="451.676" y="56.011" width="100%" height="100%"/><use xlink:href="#x" x="457.421" y="56.011" width="100%" height="100%"/><use xlink:href="#y" x="463.165" y="56.011" width="100%" height="100%"/></g><path d="M63.91 36.621h43.082v28.723H63.91zm0 0" fill="#f5f5f5" stroke="#636363" stroke-width="1.43616"/><g fill="#303030"><use xlink:href="#z" x="76.835" y="56.011" width="100%" height="100%"/><use xlink:href="#A" x="82.58" y="56.011" width="100%" height="100%"/><use xlink:href="#B" x="88.325" y="56.011" width="100%" height="100%"/></g><path d="M236.246 36.621H365.5v28.723H236.246zm0 0" fill="#f5f5f5" stroke="#636363" stroke-width="1.43616"/><g fill="#303030"><use xlink:href="#z" x="292.261" y="56.011" width="100%" height="100%"/><use xlink:href="#A" x="298.005" y="56.011" width="100%" height="100%"/><use xlink:href="#B" x="303.75" y="56.011" width="100%" height="100%"/></g><path d="M401.414 87.246h15.078c.43 0 .84.082 1.238.246a3.26 3.26 0 011.047.7c.305.304.535.652.7 1.05.163.395.245.809.245 1.235v15.082c0 .425-.082.84-.246 1.234a3.174 3.174 0 01-.699 1.05 3.26 3.26 0 01-1.047.7 3.213 3.213 0 01-1.238.246h-15.078a3.218 3.218 0 01-2.285-.945 3.185 3.185 0 01-.703-1.051 3.193 3.193 0 01-.246-1.234V90.477c0-.426.082-.84.246-1.235.164-.398.398-.746.703-1.05a3.218 3.218 0 012.285-.946zm0 0" fill="#fff" stroke="#000" stroke-width=".71808"/><g><use xlink:href="#u" x="402.846" y="102.686" width="100%" height="100%"/><use xlink:href="#t" x="408.591" y="102.686" width="100%" height="100%"/></g><path d="M408.594 209.32v-2.156h.719v2.156m-.72-4.308v-2.157h.72v2.157m-.72-4.309v-2.156h.72v2.156m-.72-4.308v-2.157h.72v2.157m-.72-4.31v-2.155h.72v2.156m-.72-4.309v-2.156h.72v2.156m-.72-4.308v-2.153h.72v2.153m-.72-4.309v-2.152h.72v2.152m-.72-4.308v-2.153h.72v2.153m-.72-4.309v-2.152h.72v2.152m-.72-4.309v-2.152h.72v2.152m-.72-4.308v-2.153h.72v2.153m-.72-4.309v-2.152h.72v2.152m-.72-4.308v-2.153h.72v2.153m-.72-4.309v-2.152h.72V149m-.72-4.309v-2.152h.72v2.152m-.72-4.308v-2.153h.72v2.153m-.72-4.309v-2.152h.72v2.152m-.72-4.308v-2.153h.72v2.153m-.72-4.309v-2.152h.72v2.152m-.72-4.309v-2.152h.72v2.152m-.72-4.308v-2.153h.72v2.153m-.72-4.309v-2.152h.72v2.152m-.72-4.308v-1.434h.72v1.434"/><path d="M358.32 87.246h15.082c.426 0 .84.082 1.235.246.394.164.746.399 1.05.7a3.235 3.235 0 01.946 2.285v15.082a3.235 3.235 0 01-.945 2.285c-.305.3-.657.535-1.051.699a3.193 3.193 0 01-1.235.246H358.32a3.235 3.235 0 01-2.285-.945 3.235 3.235 0 01-.945-2.285V90.477a3.235 3.235 0 01.945-2.285 3.235 3.235 0 012.285-.946zm0 0" fill="#fff" stroke="#000" stroke-width=".71808"/><g><use xlink:href="#u" x="359.761" y="102.686" width="100%" height="100%"/><use xlink:href="#t" x="365.506" y="102.686" width="100%" height="100%"/></g><path d="M444.496 87.246h15.082a3.235 3.235 0 012.285.945 3.235 3.235 0 01.945 2.286v15.082a3.235 3.235 0 01-.945 2.285 3.235 3.235 0 01-2.285.945h-15.082a3.235 3.235 0 01-2.285-.945 3.235 3.235 0 01-.946-2.285V90.477c0-.426.082-.84.247-1.235.164-.398.398-.746.699-1.05a3.235 3.235 0 012.285-.946zm0 0" fill="#fff" stroke="#000" stroke-width=".71808"/><g><use xlink:href="#u" x="445.931" y="102.686" width="100%" height="100%"/><use xlink:href="#t" x="451.676" y="102.686" width="100%" height="100%"/></g><path d="M451.68 115.969v-2.153h.718v2.153m-.718-4.309v-2.152h.718v2.152"/><path d="M487.582 87.246h15.078a3.218 3.218 0 012.285.945c.305.305.54.653.703 1.051.164.395.246.809.246 1.235v15.082c0 .425-.082.84-.246 1.234a3.185 3.185 0 01-.703 1.05 3.218 3.218 0 01-2.285.946h-15.078a3.235 3.235 0 01-2.285-.945 3.235 3.235 0 01-.946-2.285V90.477a3.235 3.235 0 01.945-2.285 3.235 3.235 0 012.286-.946zm0 0" fill="#fff" stroke="#000" stroke-width=".71808"/><g><use xlink:href="#u" x="489.016" y="102.686" width="100%" height="100%"/><use xlink:href="#t" x="494.761" y="102.686" width="100%" height="100%"/></g><path d="M494.762 209.32v-2.156h.718v2.156m-.718-4.308v-2.157h.718v2.157m-.718-4.309v-2.156h.718v2.156m-.718-4.308v-2.157h.718v2.157m-.718-4.31v-2.155h.718v2.156m-.718-4.309v-2.156h.718v2.156m-.718-4.308v-2.153h.718v2.153m-.718-4.309v-2.152h.718v2.152m-.718-4.308v-2.153h.718v2.153m-.718-4.309v-2.152h.718v2.152m-.718-4.309v-2.152h.718v2.152m-.718-4.308v-2.153h.718v2.153m-.718-4.309v-2.152h.718v2.152m-.718-4.308v-2.153h.718v2.153m-.718-4.309v-2.152h.718V149m-.718-4.309v-2.152h.718v2.152m-.718-4.308v-2.153h.718v2.153m-.718-4.309v-2.152h.718v2.152m-.718-4.308v-2.153h.718v2.153m-.718-4.309v-2.152h.718v2.152m-.718-4.309v-2.152h.718v2.152m-.718-4.308v-2.153h.718v2.153m-.718-4.309v-2.152h.718v2.152m-.718-4.308v-1.434h.718v1.434"/><path d="M530.668 87.246h15.078a3.218 3.218 0 012.984 1.996c.164.395.246.809.246 1.235v15.082c0 .425-.082.84-.246 1.234a3.218 3.218 0 01-2.984 1.996h-15.078a3.218 3.218 0 01-2.984-1.996 3.193 3.193 0 01-.247-1.234V90.477c0-.426.082-.84.246-1.235.16-.398.395-.746.7-1.05a3.218 3.218 0 012.285-.946zm0 0" fill="#fff" stroke="#000" stroke-width=".71808"/><g><use xlink:href="#u" x="532.101" y="102.686" width="100%" height="100%"/><use xlink:href="#t" x="537.846" y="102.686" width="100%" height="100%"/></g><path d="M444.496 115.969h15.082c.426 0 .84.082 1.234.246.399.164.746.398 1.051.703a3.218 3.218 0 01.945 2.281v15.082a3.235 3.235 0 01-.945 2.285 3.235 3.235 0 01-2.285.946h-15.082a3.235 3.235 0 01-2.285-.945 3.235 3.235 0 01-.946-2.286V119.2c0-.426.082-.84.247-1.234.164-.395.398-.746.699-1.047.304-.305.652-.54 1.05-.703a3.193 3.193 0 011.235-.246zm0 0" fill="#fff" stroke="#000" stroke-width=".71808"/><g><use xlink:href="#u" x="443.059" y="131.41" width="100%" height="100%"/><use xlink:href="#m" x="448.803" y="131.41" width="100%" height="100%"/><use xlink:href="#r" x="454.548" y="131.41" width="100%" height="100%"/></g><path d="M451.434 209.32l.008-2.156.718.004-.008 2.152m-.707-4.308l.008-2.156.72.004-.009 2.152m-.703-4.309l.004-2.156.719.004-.008 2.152m-.703-4.308l.004-2.156.718.004-.004 2.152m-.707-4.309l.008-2.156.715.004-.004 2.152m-.707-4.308l.008-2.156.719.004-.008 2.152m-.707-4.309l.008-2.156.719.004-.008 2.152m-.704-4.308l.004-2.156.72.004-.009 2.152m-.703-4.309l.004-2.156.719.004-.004 2.152m-.707-4.308l.008-2.156.715.004-.004 2.152m-.707-4.309l.008-2.156.718.004-.008 2.152m-.707-4.308l.008-2.156.72.004-.009 2.152m-.703-4.309l.004-2.156.719.004-.008 2.152m-.703-4.308l.004-2.156.718.004-.004 2.152m-.707-4.31l.008-2.156.715.004-.004 2.152m-.707-4.308l.008-2.153h.719l-.008 2.156m-.707-4.312l.008-2.152h.719l-.008 2.156"/><path d="M530.668 115.969h15.078a3.213 3.213 0 012.285.949c.305.3.535.652.7 1.047.163.394.245.808.245 1.234v15.082c0 .43-.082.84-.246 1.235a3.218 3.218 0 01-2.984 1.996h-15.078a3.218 3.218 0 01-2.984-1.996 3.18 3.18 0 01-.247-1.235V119.2c0-.426.082-.84.246-1.234a3.1 3.1 0 01.7-1.047 3.213 3.213 0 012.285-.95zm0 0" fill="#fff" stroke="#000" stroke-width=".71808"/><g><use xlink:href="#u" x="529.229" y="131.41" width="100%" height="100%"/><use xlink:href="#m" x="534.974" y="131.41" width="100%" height="100%"/><use xlink:href="#r" x="540.718" y="131.41" width="100%" height="100%"/></g><path d="M537.848 144.691v-2.152h.718v2.152m-.718-4.308v-2.153h.718v2.153"/><path d="M530.668 144.691h15.078a3.213 3.213 0 012.285.95c.305.3.535.652.7 1.046.163.395.245.809.245 1.239v15.078c0 .43-.082.84-.246 1.238a3.218 3.218 0 01-2.984 1.992h-15.078a3.218 3.218 0 01-2.984-1.992 3.213 3.213 0 01-.247-1.238v-15.078c0-.43.082-.844.246-1.239.16-.394.395-.746.7-1.046a3.213 3.213 0 012.285-.95zm0 0" fill="#fff" stroke="#000" stroke-width=".71808"/><g><use xlink:href="#u" x="529.229" y="160.133" width="100%" height="100%"/><use xlink:href="#o" x="534.974" y="160.133" width="100%" height="100%"/><use xlink:href="#n" x="540.718" y="160.133" width="100%" height="100%"/></g><path d="M537.848 209.32v-2.156h.718v2.156m-.718-4.308v-2.157h.718v2.157m-.718-4.309v-2.156h.718v2.156m-.718-4.308v-2.157h.718v2.157m-.718-4.31v-2.155h.718v2.156m-.718-4.309v-2.156h.718v2.156m-.718-4.308v-2.153h.718v2.153m-.718-4.309v-2.152h.718v2.152m-.718-4.308v-2.153h.718v2.153m-.718-4.309v-2.152h.718v2.152"/></svg>