<svg xmlns="http://www.w3.org/2000/svg" xmlns:xlink="http://www.w3.org/1999/xlink" width="537.28" height="282.56" viewBox="0 0 402.96 211.92" version="1.2"><defs><symbol overflow="visible" id="c"><path d="M2.328.094c.238 0 .477-.04.719-.11.25-.07.469-.191.656-.359a1.74 1.74 0 00.438-.594V0h.921v-4.172c0-.226-.03-.453-.093-.672a1.52 1.52 0 00-.297-.593 1.677 1.677 0 00-.5-.454 2.07 2.07 0 00-.64-.234 3.732 3.732 0 00-.657-.063c-.273 0-.54.032-.797.094-.262.055-.5.164-.719.328-.218.157-.386.36-.5.61a1.728 1.728 0 00-.171.765h.921a.9.9 0 01.188-.546.888.888 0 01.484-.329c.196-.062.395-.093.594-.093.219 0 .43.043.64.125a.916.916 0 01.47.421c.1.2.156.415.156.641v.578H3.094c-.242 0-.48.016-.719.047-.23.031-.46.09-.688.172-.218.086-.421.21-.609.375-.18.156-.312.352-.406.578-.086.219-.125.45-.125.688 0 .242.035.48.11.718.07.23.19.438.359.625.164.18.363.305.593.375.227.07.47.11.72.11zm.344-.828c-.2 0-.399-.032-.594-.094a.932.932 0 01-.453-.36 1.073 1.073 0 01-.156-.562.9.9 0 01.093-.406.81.81 0 01.282-.313 1.56 1.56 0 01.39-.187c.145-.04.286-.067.422-.078.145-.02.29-.032.438-.032H4.14v.704c0 .18-.04.359-.11.546-.062.18-.168.329-.312.454a1.37 1.37 0 01-.5.25 1.947 1.947 0 01-.547.078zm0 0"/></symbol><symbol overflow="visible" id="d"><path d="M2.875-4.39c.156 0 .305-.032.453-.094a.613.613 0 00.328-.329 1.045 1.045 0 000-.938.566.566 0 00-.328-.327 1.045 1.045 0 00-.453-.11c-.156 0-.313.04-.469.11a.613.613 0 00-.328.328 1.148 1.148 0 00-.094.453c0 .168.032.328.094.484a.67.67 0 00.328.329c.156.062.313.093.469.093zm0 4.484c.156 0 .305-.032.453-.094a.613.613 0 00.328-.328 1.045 1.045 0 000-.938.566.566 0 00-.328-.328 1.045 1.045 0 00-.453-.11c-.156 0-.313.04-.469.11a.613.613 0 00-.328.328 1.148 1.148 0 00-.094.454c0 .167.032.328.094.484A.67.67 0 002.406 0c.156.063.313.094.469.094zm0 0"/></symbol><symbol overflow="visible" id="h"><path d="M3.25.094c.29 0 .566-.063.828-.188.27-.125.488-.304.656-.547.164-.25.274-.515.329-.796a3.94 3.94 0 00.093-.86v-1.5c0-.289-.031-.578-.093-.86a2.086 2.086 0 00-.329-.78A1.577 1.577 0 004.078-6a1.902 1.902 0 00-.828-.188c-.242 0-.477.043-.703.125a1.239 1.239 0 00-.563.391c-.156.18-.28.375-.375.594v-3.375H.688V0h.921v-1.031c.094.23.22.433.375.61.157.179.344.308.563.39.226.082.46.125.703.125zm-.36-.828c-.199 0-.386-.036-.562-.11a1.093 1.093 0 01-.437-.36 1.578 1.578 0 01-.22-.53 2.508 2.508 0 01-.062-.563v-1.5c0-.187.02-.375.063-.562.039-.188.113-.36.219-.516a.979.979 0 01.437-.36c.176-.081.363-.124.563-.124.187 0 .375.039.562.109.188.074.336.188.453.344.125.156.207.336.25.531.051.188.078.383.078.578v1.5c0 .188-.027.383-.078.578a1.38 1.38 0 01-.25.532.993.993 0 01-.453.343c-.187.074-.375.11-.562.11zm0 0"/></symbol><symbol overflow="visible" id="i"><path d="M2.86.094c.28 0 .554-.04.828-.11.28-.082.53-.218.75-.406.218-.195.378-.43.484-.703.101-.281.156-.566.156-.86h-.922c0 .231-.058.45-.172.657a.93.93 0 01-.484.453 1.587 1.587 0 01-1.234.031.97.97 0 01-.438-.344 1.653 1.653 0 01-.25-.53 2.698 2.698 0 01-.062-.579v-1.5c0-.187.02-.375.062-.562.05-.196.133-.375.25-.532a.979.979 0 01.438-.359c.187-.07.382-.11.593-.11.22 0 .43.048.641.141a.946.946 0 01.484.453c.114.2.172.414.172.641h.922c0-.281-.055-.555-.156-.828a1.686 1.686 0 00-.484-.703 1.806 1.806 0 00-.75-.407 2.945 2.945 0 00-1.578-.031 1.888 1.888 0 00-.672.328c-.2.149-.368.329-.5.547-.125.211-.215.438-.266.688a3.303 3.303 0 00-.078.734v1.5c0 .242.023.485.078.735.05.242.14.468.265.687.133.219.301.406.5.563.208.148.43.25.672.312.239.063.489.094.75.094zm0 0"/></symbol><symbol overflow="visible" id="l"><path d="M2.5.094c.238 0 .473-.043.703-.125.227-.082.422-.211.578-.39.156-.177.274-.38.36-.61V0h.921v-8.453h-.921v3.375a2.013 2.013 0 00-.36-.594 1.243 1.243 0 00-.578-.39 2.085 2.085 0 00-.703-.125c-.281 0-.559.062-.828.187a1.53 1.53 0 00-.656.563c-.157.242-.266.5-.329.78-.062.282-.093.571-.093.86v1.5c0 .293.031.578.094.86.062.28.171.546.328.796.164.243.382.422.656.547.27.125.547.188.828.188zm.36-.828c-.188 0-.376-.036-.563-.11a1.081 1.081 0 01-.453-.344 1.544 1.544 0 01-.266-.53 2.698 2.698 0 01-.062-.579v-1.5c0-.195.02-.39.062-.578.05-.195.14-.375.266-.531.125-.157.273-.27.453-.344.187-.07.375-.11.562-.11.196 0 .383.044.563.126.176.074.32.195.437.359.114.156.188.328.22.516.038.187.062.375.062.562v1.5c0 .188-.024.375-.063.563a1.314 1.314 0 01-.219.53 1.148 1.148 0 01-.437.36c-.18.074-.367.11-.563.11zm0 0"/></symbol><symbol overflow="visible" id="o"><path d="M2.875.094c.25 0 .492-.032.734-.094a1.86 1.86 0 00.672-.313 2.14 2.14 0 00.516-.546 2.28 2.28 0 00.281-.688c.05-.25.078-.5.078-.75v-3.86c0-.25-.027-.491-.078-.734a2.288 2.288 0 00-.281-.703 1.913 1.913 0 00-.516-.547 1.634 1.634 0 00-.672-.312 2.912 2.912 0 00-.734-.094c-.25 0-.5.031-.75.094a1.732 1.732 0 00-.672.312 2.109 2.109 0 00-.781 1.25 3.303 3.303 0 00-.078.735v3.86c0 .25.023.5.078.75a2.097 2.097 0 00.781 1.234c.207.148.43.25.672.312.25.063.5.094.75.094zm0-.828c-.188 0-.375-.036-.563-.11a1.08 1.08 0 01-.468-.344 1.39 1.39 0 01-.266-.53 2.698 2.698 0 01-.062-.579v-.312l2.718-2.157v2.47c0 .187-.027.382-.078.577a1.26 1.26 0 01-.25.532 1.08 1.08 0 01-.469.343c-.18.074-.367.11-.562.11zm-1.36-2.954v-2.468c0-.196.02-.39.063-.578.05-.196.14-.375.266-.532.125-.156.281-.27.468-.343.188-.07.376-.11.563-.11.195 0 .383.04.563.11.187.074.343.187.468.343.125.157.207.336.25.532.051.187.078.382.078.578v.312zm0 0"/></symbol><symbol overflow="visible" id="p"><path d="M2.766 0h.921v-8.453h-.921L.672-7.016l.515.672 1.579-1.078zm0 0"/></symbol><symbol overflow="visible" id="q"><path d="M.688 0h4.375v-.828H1.64c.039-.363.14-.719.296-1.063.157-.343.364-.644.625-.906.258-.27.54-.515.844-.734.301-.219.586-.453.86-.703a2.749 2.749 0 00.843-1.985 3.34 3.34 0 00-.125-.906 1.772 1.772 0 00-.453-.781 1.737 1.737 0 00-.765-.485 2.67 2.67 0 00-.875-.156c-.282 0-.563.043-.844.125-.274.074-.516.211-.735.406a1.675 1.675 0 00-.484.688 2.148 2.148 0 00-.156.812h.922c0-.218.05-.425.156-.625a.943.943 0 01.484-.437c.207-.094.426-.14.657-.14.175 0 .351.038.53.109a.912.912 0 01.454.328c.125.148.207.312.25.5.04.18.063.367.063.562 0 .313-.07.617-.204.907a2.292 2.292 0 01-.562.734c-.242.2-.492.39-.75.578-.262.18-.508.375-.735.594a4.02 4.02 0 00-.609.703 3.822 3.822 0 00-.406.844 3.763 3.763 0 00-.203.906c-.024.312-.031.625-.031.937zm0 0"/></symbol><symbol overflow="visible" id="r"><path d="M2.89.094c.32 0 .63-.043.922-.125.29-.094.551-.25.782-.469.226-.227.394-.488.5-.781.101-.29.156-.594.156-.907 0-.312-.07-.617-.203-.921a2.096 2.096 0 00-.563-.782 2.415 2.415 0 00-.796-.484 2.46 2.46 0 00.703-.469 2.13 2.13 0 00.5-.718 2.28 2.28 0 00.171-.86c0-.281-.054-.555-.156-.828a1.917 1.917 0 00-.453-.719 1.57 1.57 0 00-.719-.453 2.857 2.857 0 00-.828-.125c-.273 0-.547.043-.828.125a1.724 1.724 0 00-.719.39c-.199.188-.351.419-.453.688-.094.262-.14.528-.14.797v.031h.906v-.015c0-.219.05-.426.156-.625a.899.899 0 01.453-.422 1.432 1.432 0 011.125-.047c.164.055.301.148.406.281.114.125.196.274.25.438a1.596 1.596 0 01-.094 1.219c-.105.23-.261.417-.468.562-.21.148-.438.242-.688.281-.25.043-.5.063-.75.063v.828c.27 0 .54.023.813.062.27.043.516.149.734.313.227.156.407.36.532.61.125.25.187.507.187.765 0 .2-.031.39-.094.578a1.247 1.247 0 01-.28.5 1.215 1.215 0 01-.485.297 1.828 1.828 0 01-.578.094c-.23 0-.461-.04-.688-.125a.989.989 0 01-.515-.438 1.335 1.335 0 01-.188-.672H.578c0 .293.055.578.172.86.113.273.285.507.516.703.226.187.484.32.765.39.29.07.578.11.86.11zm0 0"/></symbol><symbol overflow="visible" id="s"><path d="M1.61-3.375l1.765-3.531v3.531zM3.374 0h.922v-2.547h.766v-.828h-.766v-5.078h-1.14L.593-3.375v.828h2.781zm0 0"/></symbol><symbol overflow="visible" id="t"><path d="M2.89.094c.27 0 .536-.043.797-.125.258-.082.489-.219.688-.406a2.2 2.2 0 00.484-.672c.114-.25.192-.508.235-.782.039-.27.062-.539.062-.812 0-.27-.023-.54-.062-.813a2.854 2.854 0 00-.235-.765 2.42 2.42 0 00-.468-.672 1.638 1.638 0 00-.672-.422 2.31 2.31 0 00-.781-.14c-.22 0-.438.027-.657.077a1.67 1.67 0 00-.578.235v-2.422h3.14v-.828H.782V-3.5h.922c.008-.207.067-.41.172-.61a.987.987 0 01.438-.437c.195-.094.406-.14.624-.14.176 0 .344.042.5.125.165.074.301.183.407.328.101.148.18.308.234.484.063.168.102.34.125.516.02.168.031.34.031.515 0 .188-.015.371-.046.547-.024.18-.063.356-.125.531a1.511 1.511 0 01-.25.47.95.95 0 01-.407.327c-.168.074-.34.11-.515.11a1.57 1.57 0 01-.532-.094.98.98 0 01-.421-.297 1.428 1.428 0 01-.266-.453 1.768 1.768 0 01-.078-.531H.672c0 .293.05.578.156.859.102.273.254.516.453.734.207.22.453.375.735.47.289.093.582.14.875.14zm0 0"/></symbol><symbol overflow="visible" id="u"><path d="M2.875.094c.332 0 .656-.063.969-.188.312-.125.566-.316.765-.578.207-.258.348-.55.422-.875.082-.32.125-.648.125-.984 0-.332-.039-.656-.11-.969a2.195 2.195 0 00-.421-.875c-.2-.27-.453-.469-.766-.594a2.59 2.59 0 00-1.375-.156 2.157 2.157 0 00-.406.11c.219-.352.414-.72.594-1.094l1.187-2.344h-1l-1 1.984c-.199.387-.398.778-.593 1.172A8.798 8.798 0 00.78-4.078c-.125.43-.187.86-.187 1.297 0 .273.02.547.062.828.04.273.117.539.235.797.113.25.27.48.468.687.196.2.43.344.704.438.269.082.539.125.812.125zm0-.828c-.219 0-.422-.047-.61-.141a1.188 1.188 0 01-.453-.438 1.686 1.686 0 01-.234-.593 3.181 3.181 0 010-1.266c.04-.207.117-.398.234-.578.114-.188.266-.328.454-.422.195-.101.406-.156.625-.156.207 0 .406.055.593.156.196.094.348.234.454.422.113.188.19.387.234.594.039.199.062.406.062.625 0 .21-.023.418-.062.625a1.85 1.85 0 01-.234.593 1.088 1.088 0 01-.454.438c-.187.094-.39.14-.609.14zm0 0"/></symbol><symbol overflow="visible" id="v"><path d="M1.422 0h.984l2.656-7.625v-.828H.688v.828h3.391zm0 0"/></symbol><symbol overflow="visible" id="w"><path d="M2.875.094c.281 0 .563-.032.844-.094a1.887 1.887 0 001.265-1.047c.114-.27.172-.55.172-.844 0-.32-.074-.632-.218-.937a2.767 2.767 0 00-.579-.813 7.152 7.152 0 00-.765-.656c.25-.187.476-.39.687-.61.207-.226.375-.488.5-.78.133-.29.203-.586.203-.891 0-.27-.054-.535-.156-.797a1.668 1.668 0 00-.453-.672 1.644 1.644 0 00-.703-.39 3.063 3.063 0 00-.797-.11c-.273 0-.543.04-.813.11a1.74 1.74 0 00-.703.39c-.199.188-.343.414-.437.672-.094.262-.14.527-.14.797 0 .305.062.601.187.89.125.293.289.555.5.782.218.218.445.422.687.61-.273.198-.527.417-.765.655-.243.23-.434.5-.579.813a2.113 2.113 0 00-.218.937c0 .293.054.575.172.844.113.262.285.484.515.672.227.18.477.305.75.375.281.063.563.094.844.094zm0-.828c-.219 0-.438-.036-.656-.11a1.046 1.046 0 01-.516-.406 1.168 1.168 0 01-.187-.64c0-.27.066-.524.203-.766.144-.239.316-.446.515-.625.207-.176.422-.344.641-.5.219.156.426.324.625.5.207.18.379.386.516.625.144.242.218.496.218.765 0 .23-.062.446-.187.641a1.046 1.046 0 01-.516.406c-.219.074-.437.11-.656.11zm0-4.063a5.42 5.42 0 01-.563-.469 2.311 2.311 0 01-.437-.593 1.547 1.547 0 01-.172-.72c0-.206.047-.405.14-.593a.853.853 0 01.423-.422 1.56 1.56 0 01.609-.125c.207 0 .406.043.594.125a.853.853 0 01.437.422c.102.188.156.387.156.594 0 .25-.062.492-.187.719a2.509 2.509 0 01-.438.593c-.18.168-.367.325-.562.47zm0 0"/></symbol><symbol overflow="visible" id="x"><path d="M2.516.094c.238 0 .468-.043.687-.125.227-.082.422-.211.578-.39.156-.188.274-.392.36-.61V0h.921v-6.094h-.921v3.797c0 .188-.024.375-.063.563-.031.187-.105.359-.219.515a1.148 1.148 0 01-.437.36c-.18.086-.36.125-.547.125a1.23 1.23 0 01-.547-.125 1.093 1.093 0 01-.437-.36 1.288 1.288 0 01-.235-.515 3.416 3.416 0 01-.047-.563v-3.797H.688v3.797c0 .23.015.461.046.688.04.218.102.433.188.64.094.211.219.403.375.578.156.168.344.293.562.375.22.07.438.11.657.11zm0 0"/></symbol><symbol overflow="visible" id="f"><path d="M2.328.094c.207 0 .41-.04.61-.11.207-.082.382-.203.53-.359.145-.164.259-.344.345-.531V0h1.359v-6.094h-1.36v3.797c0 .137-.015.277-.046.422a1.015 1.015 0 01-.157.39.839.839 0 01-.328.266.9.9 0 01-.406.094.95.95 0 01-.406-.094.787.787 0 01-.328-.265 1.342 1.342 0 01-.157-.391 1.994 1.994 0 01-.046-.422v-3.797H.577v3.797c0 .219.016.445.047.672.031.219.082.434.156.64.082.212.196.403.344.579.156.168.336.293.547.375.207.082.426.125.656.125zm0 0"/></symbol><symbol overflow="visible" id="g"><path d="M2.875.094c.3 0 .598-.04.89-.11.29-.082.551-.218.782-.406.238-.195.414-.437.531-.719a2.223 2.223 0 000-1.78 2.28 2.28 0 00-.5-.767 5.865 5.865 0 00-.687-.609c.218-.176.414-.367.593-.578.188-.219.332-.46.438-.734a2.34 2.34 0 00.156-.829c0-.28-.055-.554-.156-.828a1.914 1.914 0 00-.469-.718 1.766 1.766 0 00-.734-.438 2.922 2.922 0 00-1.688 0c-.281.086-.527.23-.734.438-.211.199-.367.437-.469.718a2.272 2.272 0 000 1.657c.102.273.25.515.438.734.187.21.382.402.593.578-.242.18-.468.383-.687.61-.211.218-.375.476-.5.765a2.169 2.169 0 00-.188.89c0 .305.055.602.172.891.125.282.301.524.531.72.239.187.504.323.797.405.29.07.586.11.891.11zm0-1.219c-.168 0-.34-.031-.516-.094a.756.756 0 01-.39-.312.95.95 0 01-.14-.5c0-.207.05-.41.155-.61a2.3 2.3 0 01.407-.515c.156-.145.316-.281.484-.406a4.1 4.1 0 01.484.406c.157.148.286.32.391.515.113.2.172.403.172.61a.95.95 0 01-.14.5.772.772 0 01-.391.312c-.168.063-.34.094-.516.094zm0-3.906a3.032 3.032 0 01-.422-.39 2.18 2.18 0 01-.312-.47 1.395 1.395 0 01-.11-.546c0-.157.031-.305.094-.454a.658.658 0 01.297-.328c.144-.07.297-.11.453-.11.156 0 .3.04.438.11.144.074.25.184.312.328.063.149.094.297.094.454 0 .187-.043.37-.125.546a1.861 1.861 0 01-.297.47 2.352 2.352 0 01-.422.39zm0 0"/></symbol><symbol overflow="visible" id="j"><path d="M2.547 0h1.36v-8.453h-1.36L.609-6.97l.672.813 1.266-.969zm0 0"/></symbol><symbol overflow="visible" id="k"><path d="M2.875.094c.344 0 .676-.063 1-.188.332-.125.61-.32.828-.594.219-.28.363-.585.438-.921a4.199 4.199 0 000-2.031 2.198 2.198 0 00-.438-.907 1.796 1.796 0 00-.797-.61 2.752 2.752 0 00-1-.187H2.61c.04-.062.079-.129.11-.203.031-.07.066-.144.11-.219L4.14-8.453H2.656L1.61-6.297c-.168.356-.343.711-.53 1.063-.18.343-.325.703-.438 1.078A4.256 4.256 0 00.484-3c0 .305.02.602.063.89.039.294.117.575.234.844.125.274.29.516.5.735.207.219.453.383.735.484.28.094.566.14.859.14zm0-1.219a.926.926 0 01-.484-.14.961.961 0 01-.36-.36 1.949 1.949 0 01-.156-.484 4 4 0 01-.031-.532c0-.164.008-.332.031-.5.031-.175.086-.336.172-.484a.862.862 0 01.36-.36.926.926 0 01.484-.14c.164 0 .32.047.468.14.157.087.27.204.344.36.082.156.133.32.156.484.032.168.047.336.047.5 0 .18-.015.356-.047.532a1.466 1.466 0 01-.156.484.867.867 0 01-.344.36.887.887 0 01-.484.14zm0 0"/></symbol><symbol overflow="visible" id="m"><path d="M2.89.094c.32 0 .641-.047.954-.14.32-.095.597-.255.828-.485.238-.227.414-.492.531-.797.113-.313.172-.629.172-.953a2.29 2.29 0 00-.656-1.578A2.355 2.355 0 004-4.344c.238-.125.445-.285.625-.484.188-.195.328-.422.422-.672.094-.258.14-.523.14-.797 0-.289-.054-.582-.156-.875a2.077 2.077 0 00-.484-.766 1.797 1.797 0 00-.75-.468 2.95 2.95 0 00-.906-.14c-.282 0-.57.042-.86.124A1.915 1.915 0 00.797-7.25a2.475 2.475 0 00-.156.875H2c0-.176.031-.336.094-.484.07-.157.18-.27.328-.344.156-.082.312-.125.469-.125a.96.96 0 01.5.14.758.758 0 01.343.391c.063.168.094.34.094.516 0 .21-.047.414-.14.61a1.265 1.265 0 01-.97.687c-.21.03-.417.046-.624.046v1.22c.219 0 .441.015.672.046.226.031.437.11.625.235.195.124.347.292.453.5a1.372 1.372 0 01.047 1.234.919.919 0 01-.407.437c-.187.094-.386.141-.593.141a1.57 1.57 0 01-.532-.094.859.859 0 01-.406-.36 1.06 1.06 0 01-.14-.53H.452c.008.312.07.617.188.906.125.293.3.543.53.75.24.2.509.34.813.422.301.082.602.125.907.125zm0 0"/></symbol><symbol overflow="visible" id="n"><path d="M.578 0h4.594v-1.219h-3.14c.062-.332.175-.644.343-.937.176-.29.383-.551.625-.781.25-.227.508-.442.781-.641.281-.195.531-.422.75-.672.227-.25.399-.531.516-.844.113-.32.172-.648.172-.984 0-.32-.043-.64-.125-.953a1.96 1.96 0 00-.469-.844 1.88 1.88 0 00-.797-.516 3.083 3.083 0 00-1.844-.03c-.293.085-.546.23-.765.437a2.09 2.09 0 00-.5.75 2.254 2.254 0 00-.172.875h1.36c0-.176.034-.344.109-.5a.766.766 0 01.359-.344c.164-.082.332-.125.5-.125.156 0 .3.031.438.094a.796.796 0 01.328.296c.082.125.14.266.171.422.032.149.047.293.047.438 0 .305-.074.59-.218.86-.137.273-.325.5-.563.687-.242.187-.48.375-.719.562-.242.188-.464.39-.671.61a4.06 4.06 0 00-.922 1.546c-.086.293-.137.59-.157.891-.023.305-.03.606-.03.906zm0 0"/></symbol><clipPath id="a"><path d="M0 0h402.96v211.918H0zm0 0"/></clipPath><clipPath id="b"><path d="M355 0h47.96v57H355zm0 0"/></clipPath></defs><g clip-path="url(#a)"><path d="M0 0h403v211.918H0zm0 0" fill="#fff"/></g><path d="M365.406 209.402v-2.156h.719v2.156m-.719-4.312v-2.152h.719v2.152m-.719-4.309v-2.156h.719v2.156m-.719-4.308v-2.157h.719v2.157m-.719-4.313v-2.152h.719v2.152m-.719-4.308v-2.157h.719v2.157m-.719-4.313v-2.152h.719v2.152m-.719-4.309v-2.156h.719v2.156m-.719-4.308v-2.156h.719v2.156m-.719-4.313v-2.156h.719v2.156m-.719-4.308v-2.156h.719v2.156m-.719-4.313v-2.152h.719v2.152m-.719-4.308v-2.157h.719v2.157m-.719-4.309v-2.156h.719v2.156m-.719-4.312v-2.157h.719v2.157m-.719-4.309v-2.156h.719v2.156m-.719-4.313v-2.152h.719v2.152m-.719-4.308v-2.156h.719v2.156m-.719-4.313v-2.152h.719v2.152m-.719-4.308v-2.156h.719v2.156m-.719-4.309v-2.156h.719v2.156m-.719-4.312v-2.153h.719v2.153m-.719-4.309v-2.156h.719v2.156m-.719-4.312v-2.153h.719v2.153m-.719-4.309v-2.156h.719v2.156m-.719-4.309v-2.156h.719v2.156m-.719-4.312V95.18h.719v2.156m-.719-4.309v-2.156h.719v2.156m-.719-4.312v-2.153h.719v2.153m-.719-4.309V82.25h.719v2.156m-.719-4.308V77.94h.719v2.157m-.719-4.313V73.63h.719v2.156m-.719-4.308V69.32h.719v2.157m-.719-4.313v-2.152h.719v2.152m-.719-4.309V60.7h.719v2.156m-.719-4.312v-2.152h.719v2.152m-.719-4.309v-2.156h.719v2.156m-.719-4.308V47.77h.719v2.156m-.719-4.313v-2.152h.719v2.152m-.719-4.308v-2.157h.719v2.157m-.719-4.313V34.84h.719v2.152m-.719-4.308v-2.157h.719v2.157m-.719-4.309v-2.156h.719v2.156m-.719-4.313V22.63h.719v1.433M322.3 209.402v-2.156h.72v2.156m-.72-4.312v-2.152h.72v2.152m-.72-4.309v-2.156h.72v2.156m-.72-4.308v-2.157h.72v2.157m-.72-4.313v-2.152h.72v2.152m-.72-4.308v-2.157h.72v2.157m-.72-4.313v-2.152h.72v2.152m-.72-4.309v-2.156h.72v2.156m-.72-4.308v-2.156h.72v2.156m-.72-4.313v-2.156h.72v2.156m-.72-4.308v-2.156h.72v2.156m-.72-4.313v-2.152h.72v2.152m-.72-4.308v-2.157h.72v2.157m-.72-4.309v-2.156h.72v2.156m-.72-4.312v-2.157h.72v2.157m-.72-4.309v-2.156h.72v2.156m-.72-4.313v-2.152h.72v2.152m-.72-4.308v-2.156h.72v2.156m-.72-4.313v-2.152h.72v2.152m-.72-4.308v-2.156h.72v2.156m-.72-4.309v-2.156h.72v2.156m-.72-4.312v-2.153h.72v2.153m-.72-4.309v-2.156h.72v2.156m-.72-4.312v-2.153h.72v2.153m-.72-4.309v-2.156h.72v2.156m-.72-4.309v-2.156h.72v2.156m-.72-4.312V95.18h.72v2.156m-.72-4.309v-2.156h.72v2.156m-.72-4.312v-2.153h.72v2.153m-.72-4.309V82.25h.72v2.156m-.72-4.308V77.94h.72v2.157m-.72-4.313V73.63h.72v2.156m-.72-4.308V69.32h.72v2.157m-.72-4.313v-2.152h.72v2.152m-.72-4.309V60.7h.72v2.156m-.72-4.312v-2.152h.72v2.152m-.72-4.309v-2.156h.72v2.156m-.72-4.308V47.77h.72v2.156m-.72-4.313v-2.152h.72v2.152m-.72-4.308v-2.157h.72v2.157m-.72-4.313V34.84h.72v2.152m-.72-4.308v-2.157h.72v2.157m-.72-4.309v-2.156h.72v2.156m-.72-4.313V22.63h.72v1.433M279.2 209.402v-2.156h.718v2.156m-.719-4.312v-2.152h.719v2.152m-.719-4.309v-2.156h.719v2.156m-.719-4.308v-2.157h.719v2.157m-.719-4.313v-2.152h.719v2.152m-.719-4.308v-2.157h.719v2.157m-.719-4.313v-2.152h.719v2.152m-.719-4.309v-2.156h.719v2.156m-.719-4.308v-2.156h.719v2.156m-.719-4.313v-2.156h.719v2.156m-.719-4.308v-2.156h.719v2.156m-.719-4.313v-2.152h.719v2.152m-.719-4.308v-2.157h.719v2.157m-.719-4.309v-2.156h.719v2.156m-.719-4.312v-2.157h.719v2.157m-.719-4.309v-2.156h.719v2.156m-.719-4.313v-2.152h.719v2.152m-.719-4.308v-2.156h.719v2.156m-.719-4.313v-2.152h.719v2.152m-.719-4.308v-2.156h.719v2.156m-.719-4.309v-2.156h.719v2.156m-.719-4.312v-2.153h.719v2.153m-.719-4.309v-2.156h.719v2.156m-.719-4.312v-2.153h.719v2.153m-.719-4.309v-2.156h.719v2.156m-.719-4.309v-2.156h.719v2.156m-.719-4.312V95.18h.719v2.156m-.719-4.309v-2.156h.719v2.156m-.719-4.312v-2.153h.719v2.153m-.719-4.309V82.25h.719v2.156m-.719-4.308V77.94h.719v2.157m-.719-4.313V73.63h.719v2.156m-.719-4.308V69.32h.719v2.157m-.719-4.313v-2.152h.719v2.152m-.719-4.309V60.7h.719v2.156m-.719-4.312v-2.152h.719v2.152m-.719-4.309v-2.156h.719v2.156m-.719-4.308V47.77h.719v2.156m-.719-4.313v-2.152h.719v2.152m-.719-4.308v-2.157h.719v2.157m-.719-4.313V34.84h.719v2.152m-.719-4.308v-2.157h.719v2.157m-.719-4.309v-2.156h.719v2.156m-.719-4.313V22.63h.719v1.433M236.098 209.402v-2.156h.718v2.156m-.718-4.312v-2.152h.718v2.152m-.718-4.309v-2.156h.718v2.156m-.718-4.308v-2.157h.718v2.157m-.718-4.313v-2.152h.718v2.152m-.718-4.308v-2.157h.718v2.157m-.718-4.313v-2.152h.718v2.152m-.718-4.309v-2.156h.718v2.156m-.718-4.308v-2.156h.718v2.156m-.718-4.313v-2.156h.718v2.156m-.718-4.308v-2.156h.718v2.156m-.718-4.313v-2.152h.718v2.152m-.718-4.308v-2.157h.718v2.157m-.718-4.309v-2.156h.718v2.156m-.718-4.312v-2.157h.718v2.157m-.718-4.309v-2.156h.718v2.156m-.718-4.313v-2.152h.718v2.152m-.718-4.308v-2.156h.718v2.156m-.718-4.313v-2.152h.718v2.152m-.718-4.308v-2.156h.718v2.156m-.718-4.309v-2.156h.718v2.156m-.718-4.312v-2.153h.718v2.153m-.718-4.309v-2.156h.718v2.156m-.718-4.312v-2.153h.718v2.153m-.718-4.309v-2.156h.718v2.156m-.718-4.309v-2.156h.718v2.156m-.718-4.312V95.18h.718v2.156m-.718-4.309v-2.156h.718v2.156m-.718-4.312v-2.153h.718v2.153m-.718-4.309V82.25h.718v2.156m-.718-4.308V77.94h.718v2.157m-.718-4.313V73.63h.718v2.156m-.718-4.308V69.32h.718v2.157m-.718-4.313v-2.152h.718v2.152m-.718-4.309V60.7h.718v2.156m-.718-4.312v-2.152h.718v2.152m-.718-4.309v-2.156h.718v2.156m-.718-4.308V47.77h.718v2.156m-.718-4.313v-2.152h.718v2.152m-.718-4.308v-2.157h.718v2.157m-.718-4.313V34.84h.718v2.152m-.718-4.308v-2.157h.718v2.157m-.718-4.309v-2.156h.718v2.156m-.718-4.313V22.63h.718v1.433M63.934 209.402v-2.156h.718v2.156m-.718-4.312v-2.152h.718v2.152m-.718-4.309v-2.156h.718v2.156m-.718-4.308v-2.157h.718v2.157m-.718-4.313v-2.152h.718v2.152m-.718-4.308v-2.157h.718v2.157m-.718-4.313v-2.152h.718v2.152m-.718-4.309v-2.156h.718v2.156m-.718-4.308v-2.156h.718v2.156m-.718-4.313v-2.156h.718v2.156m-.718-4.308v-2.156h.718v2.156m-.718-4.313v-2.152h.718v2.152m-.718-4.308v-2.157h.718v2.157m-.718-4.309v-2.156h.718v2.156m-.718-4.312v-2.157h.718v2.157m-.718-4.309v-2.156h.718v2.156m-.718-4.313v-2.152h.718v2.152m-.718-4.308v-2.156h.718v2.156m-.718-4.313v-2.152h.718v2.152m-.718-4.308v-2.156h.718v2.156m-.718-4.309v-2.156h.718v2.156m-.718-4.312v-2.153h.718v2.153m-.718-4.309v-2.156h.718v2.156m-.718-4.312v-2.153h.718v2.153m-.718-4.309v-2.156h.718v2.156m-.718-4.309v-2.156h.718v2.156m-.718-4.312V95.18h.718v2.156m-.718-4.309v-2.156h.718v2.156m-.718-4.312v-2.153h.718v2.153m-.718-4.309V82.25h.718v2.156m-.718-4.308V77.94h.718v2.157m-.718-4.313V73.63h.718v2.156m-.718-4.308V69.32h.718v2.157m-.718-4.313v-2.152h.718v2.152m-.718-4.309V60.7h.718v2.156m-.718-4.312v-2.152h.718v2.152m-.718-4.309v-2.156h.718v2.156m-.718-4.308V47.77h.718v2.156m-.718-4.313v-2.152h.718v2.152m-.718-4.308v-2.157h.718v2.157m-.718-4.313V34.84h.718v2.152m-.718-4.308v-2.157h.718v2.157m-.718-4.309v-2.156h.718v2.156m-.718-4.313V22.63h.718v1.433M106.54 209.402v-2.156h.718v2.156m-.719-4.312v-2.152h.719v2.152m-.719-4.309v-2.156h.719v2.156m-.719-4.308v-2.157h.719v2.157m-.719-4.313v-2.152h.719v2.152m-.719-4.308v-2.157h.719v2.157m-.719-4.313v-2.152h.719v2.152m-.719-4.309v-2.156h.719v2.156m-.719-4.308v-2.156h.719v2.156m-.719-4.313v-2.156h.719v2.156m-.719-4.308v-2.156h.719v2.156m-.719-4.313v-2.152h.719v2.152m-.719-4.308v-2.157h.719v2.157m-.719-4.309v-2.156h.719v2.156m-.719-4.312v-2.157h.719v2.157m-.719-4.309v-2.156h.719v2.156m-.719-4.313v-2.152h.719v2.152m-.719-4.308v-2.156h.719v2.156m-.719-4.313v-2.152h.719v2.152m-.719-4.308v-2.156h.719v2.156m-.719-4.309v-2.156h.719v2.156m-.719-4.312v-2.153h.719v2.153m-.719-4.309v-2.156h.719v2.156m-.719-4.312v-2.153h.719v2.153m-.719-4.309v-2.156h.719v2.156m-.719-4.309v-2.156h.719v2.156m-.719-4.312V95.18h.719v2.156m-.719-4.309v-2.156h.719v2.156m-.719-4.312v-2.153h.719v2.153m-.719-4.309V82.25h.719v2.156m-.719-4.308V77.94h.719v2.157m-.719-4.313V73.63h.719v2.156m-.719-4.308V69.32h.719v2.157m-.719-4.313v-2.152h.719v2.152m-.719-4.309V60.7h.719v2.156m-.719-4.312v-2.152h.719v2.152m-.719-4.309v-2.156h.719v2.156m-.719-4.308V47.77h.719v2.156m-.719-4.313v-2.152h.719v2.152m-.719-4.308v-2.157h.719v2.157m-.719-4.313V34.84h.719v2.152m-.719-4.308v-2.157h.719v2.157m-.719-4.309v-2.156h.719v2.156m-.719-4.313V22.63h.719v1.433M149.895 209.402v-2.156h.718v2.156m-.718-4.312v-2.152h.718v2.152m-.718-4.309v-2.156h.718v2.156m-.718-4.308v-2.157h.718v2.157m-.718-4.313v-2.152h.718v2.152m-.718-4.308v-2.157h.718v2.157m-.718-4.313v-2.152h.718v2.152m-.718-4.309v-2.156h.718v2.156m-.718-4.308v-2.156h.718v2.156m-.718-4.313v-2.156h.718v2.156m-.718-4.308v-2.156h.718v2.156m-.718-4.313v-2.152h.718v2.152m-.718-4.308v-2.157h.718v2.157m-.718-4.309v-2.156h.718v2.156m-.718-4.312v-2.157h.718v2.157m-.718-4.309v-2.156h.718v2.156m-.718-4.313v-2.152h.718v2.152m-.718-4.308v-2.156h.718v2.156m-.718-4.313v-2.152h.718v2.152m-.718-4.308v-2.156h.718v2.156m-.718-4.309v-2.156h.718v2.156m-.718-4.312v-2.153h.718v2.153m-.718-4.309v-2.156h.718v2.156m-.718-4.312v-2.153h.718v2.153m-.718-4.309v-2.156h.718v2.156m-.718-4.309v-2.156h.718v2.156m-.718-4.312V95.18h.718v2.156m-.718-4.309v-2.156h.718v2.156m-.718-4.312v-2.153h.718v2.153m-.718-4.309V82.25h.718v2.156m-.718-4.308V77.94h.718v2.157m-.718-4.313V73.63h.718v2.156m-.718-4.308V69.32h.718v2.157m-.718-4.313v-2.152h.718v2.152m-.718-4.309V60.7h.718v2.156m-.718-4.312v-2.152h.718v2.152m-.718-4.309v-2.156h.718v2.156m-.718-4.308V47.77h.718v2.156m-.718-4.313v-2.152h.718v2.152m-.718-4.308v-2.157h.718v2.157m-.718-4.313V34.84h.718v2.152m-.718-4.308v-2.157h.718v2.157m-.718-4.309v-2.156h.718v2.156m-.718-4.313V22.63h.718v1.433M192.742 209.402v-2.156h.719v2.156m-.719-4.312v-2.152h.719v2.152m-.719-4.309v-2.156h.719v2.156m-.719-4.308v-2.157h.719v2.157m-.719-4.313v-2.152h.719v2.152m-.719-4.308v-2.157h.719v2.157m-.719-4.313v-2.152h.719v2.152m-.719-4.309v-2.156h.719v2.156m-.719-4.308v-2.156h.719v2.156m-.719-4.313v-2.156h.719v2.156m-.719-4.308v-2.156h.719v2.156m-.719-4.313v-2.152h.719v2.152m-.719-4.308v-2.157h.719v2.157m-.719-4.309v-2.156h.719v2.156m-.719-4.312v-2.157h.719v2.157m-.719-4.309v-2.156h.719v2.156m-.719-4.313v-2.152h.719v2.152m-.719-4.308v-2.156h.719v2.156m-.719-4.313v-2.152h.719v2.152m-.719-4.308v-2.156h.719v2.156m-.719-4.309v-2.156h.719v2.156m-.719-4.312v-2.153h.719v2.153m-.719-4.309v-2.156h.719v2.156m-.719-4.312v-2.153h.719v2.153m-.719-4.309v-2.156h.719v2.156m-.719-4.309v-2.156h.719v2.156m-.719-4.312V95.18h.719v2.156m-.719-4.309v-2.156h.719v2.156m-.719-4.312v-2.153h.719v2.153m-.719-4.309V82.25h.719v2.156m-.719-4.308V77.94h.719v2.157m-.719-4.313V73.63h.719v2.156m-.719-4.308V69.32h.719v2.157m-.719-4.313v-2.152h.719v2.152m-.719-4.309V60.7h.719v2.156m-.719-4.312v-2.152h.719v2.152m-.719-4.309v-2.156h.719v2.156m-.719-4.308V47.77h.719v2.156m-.719-4.313v-2.152h.719v2.152m-.719-4.308v-2.157h.719v2.157m-.719-4.313V34.84h.719v2.152m-.719-4.308v-2.157h.719v2.157m-.719-4.309v-2.156h.719v2.156m-.719-4.313V22.63h.719v1.433M20.832 209.402v-2.156h.719v2.156m-.719-4.312v-2.152h.719v2.152m-.719-4.309v-2.156h.719v2.156m-.719-4.308v-2.157h.719v2.157m-.719-4.313v-2.152h.719v2.152m-.719-4.308v-2.157h.719v2.157m-.719-4.313v-2.152h.719v2.152m-.719-4.309v-2.156h.719v2.156m-.719-4.308v-2.156h.719v2.156m-.719-4.313v-2.156h.719v2.156m-.719-4.308v-2.156h.719v2.156m-.719-4.313v-2.152h.719v2.152m-.719-4.308v-2.157h.719v2.157m-.719-4.309v-2.156h.719v2.156m-.719-4.312v-2.157h.719v2.157m-.719-4.309v-2.156h.719v2.156m-.719-4.313v-2.152h.719v2.152m-.719-4.308v-2.156h.719v2.156m-.719-4.313v-2.152h.719v2.152m-.719-4.308v-2.156h.719v2.156m-.719-4.309v-2.156h.719v2.156m-.719-4.312v-2.153h.719v2.153m-.719-4.309v-2.156h.719v2.156m-.719-4.312v-2.153h.719v2.153m-.719-4.309v-2.156h.719v2.156m-.719-4.309v-2.156h.719v2.156m-.719-4.312V95.18h.719v2.156m-.719-4.309v-2.156h.719v2.156m-.719-4.312v-2.153h.719v2.153m-.719-4.309V82.25h.719v2.156m-.719-4.308V77.94h.719v2.157m-.719-4.313V73.63h.719v2.156m-.719-4.308V69.32h.719v2.157m-.719-4.313v-2.152h.719v2.152m-.719-4.309V60.7h.719v2.156m-.719-4.312v-2.152h.719v2.152m-.719-4.309v-2.156h.719v2.156m-.719-4.308V47.77h.719v2.156m-.719-4.313v-2.152h.719v2.152m-.719-4.308v-2.157h.719v2.157m-.719-4.313V34.84h.719v2.152m-.719-4.308v-2.157h.719v2.157m-.719-4.309v-2.156h.719v2.156m-.719-4.313V22.63h.719v1.433"/><path d="M6.824 22.629h380.66" fill="none" stroke="#000" stroke-width="2.15508" stroke-miterlimit="10"/><path d="M392.332 22.629l-6.465 3.23 1.617-3.23-1.617-3.234zm0 0"/><g clip-path="url(#b)"><path d="M392.332 22.629l-6.465 3.23 1.617-3.23-1.617-3.234zm0 0" fill="none" stroke="#000" stroke-width="2.15508" stroke-miterlimit="10"/></g><path d="M20.832 36.637h43.102V65.37H20.832zm0 0" fill="#fff" stroke="#000" stroke-width="1.43672"/><use xlink:href="#c" x="28.016" y="56.033" width="100%" height="100%"/><use xlink:href="#d" x="33.763" y="56.033" width="100%" height="100%"/><use xlink:href="#e" x="39.51" y="56.033" width="100%" height="100%"/><use xlink:href="#f" x="45.257" y="56.033" width="100%" height="100%"/><use xlink:href="#g" x="51.004" y="56.033" width="100%" height="100%"/><path d="M63.934 36.637h43.101V65.37H63.934zm0 0" fill="#fff" stroke="#000" stroke-width="1.43672"/><use xlink:href="#h" x="71.118" y="56.033" width="100%" height="100%"/><use xlink:href="#d" x="76.865" y="56.033" width="100%" height="100%"/><use xlink:href="#e" x="82.612" y="56.033" width="100%" height="100%"/><use xlink:href="#f" x="88.359" y="56.033" width="100%" height="100%"/><use xlink:href="#g" x="94.106" y="56.033" width="100%" height="100%"/><path d="M107.035 36.637h86.203V65.37h-86.203zm0 0" fill="#fff" stroke="#000" stroke-width="1.43672"/><use xlink:href="#i" x="132.898" y="56.033" width="100%" height="100%"/><use xlink:href="#d" x="138.645" y="56.033" width="100%" height="100%"/><use xlink:href="#e" x="144.392" y="56.033" width="100%" height="100%"/><use xlink:href="#f" x="150.139" y="56.033" width="100%" height="100%"/><use xlink:href="#j" x="155.886" y="56.033" width="100%" height="100%"/><use xlink:href="#k" x="161.633" y="56.033" width="100%" height="100%"/><path d="M193.238 36.637h172.407V65.37H193.238zm0 0" fill="#fff" stroke="#000" stroke-width="1.43672"/><use xlink:href="#l" x="262.204" y="56.033" width="100%" height="100%"/><use xlink:href="#d" x="267.951" y="56.033" width="100%" height="100%"/><use xlink:href="#e" x="273.698" y="56.033" width="100%" height="100%"/><use xlink:href="#f" x="279.445" y="56.033" width="100%" height="100%"/><use xlink:href="#m" x="285.192" y="56.033" width="100%" height="100%"/><use xlink:href="#n" x="290.939" y="56.033" width="100%" height="100%"/><use xlink:href="#o" x="17.959" y="12.931" width="100%" height="100%"/><use xlink:href="#p" x="61.061" y="12.931" width="100%" height="100%"/><use xlink:href="#q" x="104.163" y="12.931" width="100%" height="100%"/><use xlink:href="#r" x="147.265" y="12.931" width="100%" height="100%"/><use xlink:href="#s" x="190.367" y="12.931" width="100%" height="100%"/><use xlink:href="#t" x="233.469" y="12.931" width="100%" height="100%"/><use xlink:href="#u" x="276.571" y="12.931" width="100%" height="100%"/><use xlink:href="#v" x="319.673" y="12.931" width="100%" height="100%"/><use xlink:href="#w" x="362.775" y="12.931" width="100%" height="100%"/><path d="M13.648 87.281h15.086a3.218 3.218 0 012.285.945c.305.305.54.653.704 1.051.164.395.246.809.246 1.235v15.086a3.198 3.198 0 01-.95 2.285 3.213 3.213 0 01-2.285.95l-15.086-.001a3.213 3.213 0 01-2.285-.95 3.157 3.157 0 01-.699-1.046 3.198 3.198 0 01-.246-1.238V90.512c0-.426.082-.84.246-1.235.164-.398.395-.746.7-1.05a3.26 3.26 0 011.046-.7 3.213 3.213 0 011.238-.246zm0 0" fill="#d4e6d4" stroke="#7fb363" stroke-width=".71836"/><use xlink:href="#x" x="15.086" y="102.727" width="100%" height="100%"/><use xlink:href="#w" x="20.833" y="102.727" width="100%" height="100%"/><path d="M13.648 116.016h15.086a3.218 3.218 0 012.285.945c.305.305.54.652.704 1.05.164.395.246.81.246 1.235v15.086a3.198 3.198 0 01-.95 2.285 3.213 3.213 0 01-2.285.95H13.648a3.213 3.213 0 01-2.285-.95 3.157 3.157 0 01-.699-1.047 3.198 3.198 0 01-.246-1.238v-15.086c0-.426.082-.84.246-1.234.164-.399.395-.746.7-1.051a3.26 3.26 0 011.046-.7 3.213 3.213 0 011.238-.245zm0 0" fill="#fff" stroke="#000" stroke-width=".71836"/><use xlink:href="#x" x="12.212" y="131.461" width="100%" height="100%"/><use xlink:href="#p" x="17.959" y="131.461" width="100%" height="100%"/><use xlink:href="#u" x="23.706" y="131.461" width="100%" height="100%"/><path d="M13.648 144.75h15.086a3.218 3.218 0 012.285.945c.305.305.54.653.704 1.051.164.395.246.809.246 1.234v15.086a3.225 3.225 0 01-1.996 2.988 3.213 3.213 0 01-1.239.247H13.648c-.43 0-.84-.082-1.238-.246a3.214 3.214 0 01-1.746-1.75 3.198 3.198 0 01-.246-1.239V147.98c0-.425.082-.84.246-1.234.164-.398.395-.746.7-1.05a3.26 3.26 0 011.046-.7 3.213 3.213 0 011.238-.246zm0 0" fill="#fff" stroke="#000" stroke-width=".71836"/><use xlink:href="#x" x="12.212" y="160.196" width="100%" height="100%"/><use xlink:href="#r" x="17.959" y="160.196" width="100%" height="100%"/><use xlink:href="#q" x="23.706" y="160.196" width="100%" height="100%"/><path d="M13.648 173.484h15.086a3.218 3.218 0 012.285.945c.305.305.54.653.704 1.051.164.395.246.81.246 1.235V191.8a3.225 3.225 0 01-1.996 2.988 3.213 3.213 0 01-1.239.246H13.648c-.43 0-.84-.082-1.238-.246a3.214 3.214 0 01-1.746-1.75 3.198 3.198 0 01-.246-1.238v-15.086c0-.426.082-.84.246-1.235.164-.398.395-.746.7-1.05a3.26 3.26 0 011.046-.7 3.213 3.213 0 011.238-.246zm0 0" fill="#fff" stroke="#000" stroke-width=".71836"/><use xlink:href="#x" x="12.212" y="188.931" width="100%" height="100%"/><use xlink:href="#u" x="17.959" y="188.931" width="100%" height="100%"/><use xlink:href="#s" x="23.706" y="188.931" width="100%" height="100%"/><path d="M56.75 87.281h15.086a3.218 3.218 0 012.285.945c.305.305.54.653.703 1.051.164.395.246.809.246 1.235v15.086a3.198 3.198 0 01-.949 2.285 3.213 3.213 0 01-2.285.95l-15.086-.001a3.213 3.213 0 01-2.285-.95 3.157 3.157 0 01-.7-1.046 3.198 3.198 0 01-.245-1.238V90.512c0-.426.082-.84.246-1.235.164-.398.394-.746.699-1.05a3.26 3.26 0 011.047-.7 3.213 3.213 0 011.238-.246zm0 0" fill="#d4e6d4" stroke="#7fb363" stroke-width=".71836"/><use xlink:href="#x" x="58.188" y="102.727" width="100%" height="100%"/><use xlink:href="#w" x="63.935" y="102.727" width="100%" height="100%"/><path d="M99.852 87.281h15.085a3.218 3.218 0 012.285.945c.305.305.54.653.704 1.051.164.395.246.809.246 1.235v15.086a3.198 3.198 0 01-.95 2.285 3.213 3.213 0 01-2.285.95l-15.085-.001a3.213 3.213 0 01-2.286-.95 3.157 3.157 0 01-.699-1.046 3.198 3.198 0 01-.246-1.238V90.512c0-.426.082-.84.246-1.235.164-.398.395-.746.7-1.05a3.26 3.26 0 011.046-.7 3.213 3.213 0 011.239-.246zm0 0" fill="#fff" stroke="#000" stroke-width=".71836"/><use xlink:href="#x" x="101.29" y="102.727" width="100%" height="100%"/><use xlink:href="#w" x="107.037" y="102.727" width="100%" height="100%"/><path d="M142.953 87.281h15.086a3.218 3.218 0 012.285.945c.305.305.54.653.703 1.051.164.395.246.809.246 1.235v15.086a3.198 3.198 0 01-.949 2.285 3.213 3.213 0 01-2.285.95l-15.086-.001a3.213 3.213 0 01-2.285-.95 3.157 3.157 0 01-.7-1.046 3.198 3.198 0 01-.245-1.238V90.512c0-.426.082-.84.246-1.235.164-.398.394-.746.699-1.05a3.26 3.26 0 011.047-.7 3.213 3.213 0 011.238-.246zm0 0" fill="#fff" stroke="#000" stroke-width=".71836"/><use xlink:href="#x" x="144.392" y="102.727" width="100%" height="100%"/><use xlink:href="#w" x="150.139" y="102.727" width="100%" height="100%"/><path d="M186.055 87.281h15.086a3.218 3.218 0 012.285.945c.304.305.539.653.703 1.051.164.395.246.809.246 1.235v15.086a3.198 3.198 0 01-.95 2.285 3.213 3.213 0 01-2.285.95l-15.085-.001a3.213 3.213 0 01-2.285-.95 3.157 3.157 0 01-.7-1.046 3.198 3.198 0 01-.246-1.238V90.512c0-.426.082-.84.246-1.235.164-.398.395-.746.7-1.05a3.26 3.26 0 011.046-.7 3.213 3.213 0 011.239-.246zm0 0" fill="#fff" stroke="#000" stroke-width=".71836"/><g><use xlink:href="#x" x="187.494" y="102.727" width="100%" height="100%"/><use xlink:href="#w" x="193.241" y="102.727" width="100%" height="100%"/></g><path d="M229.156 87.281h15.086a3.218 3.218 0 012.285.945c.305.305.54.653.703 1.051.165.395.247.809.247 1.235v15.086a3.198 3.198 0 01-.95 2.285 3.213 3.213 0 01-2.285.95l-15.086-.001a3.213 3.213 0 01-2.285-.95 3.157 3.157 0 01-.7-1.046 3.198 3.198 0 01-.245-1.238V90.512c0-.426.082-.84.246-1.235.164-.398.394-.746.7-1.05a3.26 3.26 0 011.046-.7 3.213 3.213 0 011.238-.246zm0 0" fill="#fff" stroke="#000" stroke-width=".71836"/><g><use xlink:href="#x" x="230.596" y="102.727" width="100%" height="100%"/><use xlink:href="#w" x="236.343" y="102.727" width="100%" height="100%"/></g><path d="M272.258 87.281h15.086a3.218 3.218 0 012.285.945c.305.305.539.653.703 1.051.164.395.246.809.246 1.235v15.086a3.198 3.198 0 01-.95 2.285 3.213 3.213 0 01-2.285.95l-15.085-.001a3.213 3.213 0 01-2.285-.95 3.157 3.157 0 01-.7-1.046 3.198 3.198 0 01-.246-1.238V90.512c0-.426.082-.84.246-1.235.164-.398.395-.746.7-1.05a3.26 3.26 0 011.047-.7 3.213 3.213 0 011.238-.246zm0 0" fill="#fff" stroke="#000" stroke-width=".71836"/><g><use xlink:href="#x" x="273.698" y="102.727" width="100%" height="100%"/><use xlink:href="#w" x="279.445" y="102.727" width="100%" height="100%"/></g><path d="M315.36 87.281h15.085a3.218 3.218 0 012.285.945c.305.305.54.653.704 1.051.164.395.246.809.246 1.235v15.086a3.198 3.198 0 01-.95 2.285 3.213 3.213 0 01-2.285.95l-15.086-.001a3.213 3.213 0 01-2.285-.95 3.157 3.157 0 01-.699-1.046 3.198 3.198 0 01-.246-1.238V90.512c0-.426.082-.84.246-1.235.164-.398.395-.746.7-1.05a3.26 3.26 0 011.046-.7 3.213 3.213 0 011.238-.246zm0 0" fill="#fff" stroke="#000" stroke-width=".71836"/><g><use xlink:href="#x" x="316.8" y="102.727" width="100%" height="100%"/><use xlink:href="#w" x="322.547" y="102.727" width="100%" height="100%"/></g><path d="M358.46 87.281h15.087a3.218 3.218 0 012.285.945c.305.305.54.653.703 1.051.164.395.246.809.246 1.235v15.086a3.198 3.198 0 01-.949 2.285 3.213 3.213 0 01-2.285.95l-15.086-.001a3.213 3.213 0 01-2.285-.95 3.157 3.157 0 01-.7-1.046 3.198 3.198 0 01-.246-1.238V90.512c0-.426.082-.84.247-1.235.164-.398.394-.746.699-1.05a3.26 3.26 0 011.047-.7 3.213 3.213 0 011.238-.246zm0 0" fill="#fff" stroke="#000" stroke-width=".71836"/><g><use xlink:href="#x" x="359.902" y="102.727" width="100%" height="100%"/><use xlink:href="#w" x="365.649" y="102.727" width="100%" height="100%"/></g><path d="M99.852 116.016h15.085a3.218 3.218 0 012.285.945c.305.305.54.652.704 1.05.164.395.246.81.246 1.235v15.086a3.198 3.198 0 01-.95 2.285 3.213 3.213 0 01-2.285.95H99.852a3.213 3.213 0 01-2.286-.95 3.157 3.157 0 01-.699-1.047 3.198 3.198 0 01-.246-1.238v-15.086c0-.426.082-.84.246-1.234.164-.399.395-.746.7-1.051a3.26 3.26 0 011.046-.7 3.213 3.213 0 011.239-.245zm0 0" fill="#d4e6d4" stroke="#7fb363" stroke-width=".71836"/><g><use xlink:href="#x" x="98.416" y="131.461" width="100%" height="100%"/><use xlink:href="#p" x="104.163" y="131.461" width="100%" height="100%"/><use xlink:href="#u" x="109.91" y="131.461" width="100%" height="100%"/></g><path d="M186.055 116.016h15.086a3.218 3.218 0 012.285.945c.304.305.539.652.703 1.05.164.395.246.81.246 1.235v15.086a3.198 3.198 0 01-.95 2.285 3.213 3.213 0 01-2.285.95h-15.085a3.213 3.213 0 01-2.285-.95 3.157 3.157 0 01-.7-1.047 3.198 3.198 0 01-.246-1.238v-15.086c0-.426.082-.84.246-1.234.164-.399.395-.746.7-1.051a3.26 3.26 0 011.046-.7 3.213 3.213 0 011.239-.245zm0 0" fill="#fff" stroke="#000" stroke-width=".71836"/><g><use xlink:href="#x" x="184.62" y="131.461" width="100%" height="100%"/><use xlink:href="#p" x="190.367" y="131.461" width="100%" height="100%"/><use xlink:href="#u" x="196.114" y="131.461" width="100%" height="100%"/></g><path d="M272.258 116.016h15.086a3.218 3.218 0 012.285.945c.305.305.539.652.703 1.05.164.395.246.81.246 1.235v15.086a3.198 3.198 0 01-.95 2.285 3.213 3.213 0 01-2.285.95h-15.085a3.213 3.213 0 01-2.285-.95 3.157 3.157 0 01-.7-1.047 3.198 3.198 0 01-.246-1.238v-15.086c0-.426.082-.84.246-1.234.164-.399.395-.746.7-1.051a3.26 3.26 0 011.047-.7 3.213 3.213 0 011.238-.245zm0 0" fill="#fff" stroke="#000" stroke-width=".71836"/><g><use xlink:href="#x" x="270.824" y="131.461" width="100%" height="100%"/><use xlink:href="#p" x="276.571" y="131.461" width="100%" height="100%"/><use xlink:href="#u" x="282.318" y="131.461" width="100%" height="100%"/></g><path d="M358.46 116.016h15.087a3.218 3.218 0 012.285.945c.305.305.54.652.703 1.05.164.395.246.81.246 1.235v15.086a3.198 3.198 0 01-.949 2.285 3.213 3.213 0 01-2.285.95H358.46a3.213 3.213 0 01-2.285-.95 3.157 3.157 0 01-.7-1.047 3.198 3.198 0 01-.246-1.238v-15.086c0-.426.082-.84.247-1.234.164-.399.394-.746.699-1.051a3.26 3.26 0 011.047-.7 3.213 3.213 0 011.238-.245zm0 0" fill="#fff" stroke="#000" stroke-width=".71836"/><g><use xlink:href="#x" x="357.029" y="131.461" width="100%" height="100%"/><use xlink:href="#p" x="362.775" y="131.461" width="100%" height="100%"/><use xlink:href="#u" x="368.522" y="131.461" width="100%" height="100%"/></g><path d="M186.055 144.75h15.086a3.218 3.218 0 012.285.945c.304.305.539.653.703 1.051.164.395.246.809.246 1.234v15.086a3.225 3.225 0 01-1.996 2.988 3.213 3.213 0 01-1.238.247h-15.086c-.43 0-.84-.082-1.239-.246a3.214 3.214 0 01-1.746-1.75 3.198 3.198 0 01-.246-1.239V147.98c0-.425.082-.84.246-1.234.164-.398.395-.746.7-1.05a3.26 3.26 0 011.046-.7 3.213 3.213 0 011.239-.246zm0 0" fill="#d4e6d4" stroke="#7fb363" stroke-width=".71836"/><g><use xlink:href="#x" x="184.62" y="160.196" width="100%" height="100%"/><use xlink:href="#r" x="190.367" y="160.196" width="100%" height="100%"/><use xlink:href="#q" x="196.114" y="160.196" width="100%" height="100%"/></g><path d="M358.46 144.75h15.087a3.218 3.218 0 012.285.945c.305.305.54.653.703 1.051.164.395.246.809.246 1.234v15.086a3.225 3.225 0 01-1.996 2.988 3.213 3.213 0 01-1.238.247H358.46c-.43 0-.84-.082-1.238-.246a3.214 3.214 0 01-1.746-1.75 3.198 3.198 0 01-.247-1.239V147.98c0-.425.082-.84.247-1.234.164-.398.394-.746.699-1.05a3.26 3.26 0 011.047-.7 3.213 3.213 0 011.238-.246zm0 0" fill="#fff" stroke="#000" stroke-width=".71836"/><g><use xlink:href="#x" x="357.029" y="160.196" width="100%" height="100%"/><use xlink:href="#r" x="362.775" y="160.196" width="100%" height="100%"/><use xlink:href="#q" x="368.522" y="160.196" width="100%" height="100%"/></g><path d="M358.46 173.484h15.087a3.218 3.218 0 012.285.945c.305.305.54.653.703 1.051.164.395.246.81.246 1.235V191.8a3.225 3.225 0 01-1.996 2.988 3.213 3.213 0 01-1.238.246H358.46c-.43 0-.84-.082-1.238-.246a3.214 3.214 0 01-1.746-1.75 3.198 3.198 0 01-.247-1.238v-15.086c0-.426.082-.84.247-1.235.164-.398.394-.746.699-1.05a3.26 3.26 0 011.047-.7 3.213 3.213 0 011.238-.246zm0 0" fill="#fff" stroke="#000" stroke-width=".71836"/><g><use xlink:href="#x" x="357.029" y="188.931" width="100%" height="100%"/><use xlink:href="#u" x="362.775" y="188.931" width="100%" height="100%"/><use xlink:href="#s" x="368.522" y="188.931" width="100%" height="100%"/></g></svg>