<svg xmlns="http://www.w3.org/2000/svg" xmlns:xlink="http://www.w3.org/1999/xlink" width="340.16" height="417.28" viewBox="0 0 255.12 312.96" version="1.2"><defs><symbol overflow="visible" id="c"><path d="M2.86.094c.25 0 .492-.032.734-.094a1.86 1.86 0 00.672-.313c.207-.144.379-.32.515-.53a1.98 1.98 0 00.266-.688c.05-.25.078-.504.078-.766v-3.828c0-.25-.027-.492-.078-.734a1.913 1.913 0 00-.781-1.25 1.634 1.634 0 00-.672-.313 2.912 2.912 0 00-.735-.094c-.25 0-.5.032-.75.094a1.732 1.732 0 00-.671.313c-.2.148-.368.328-.5.546a2.355 2.355 0 00-.266.704 3.303 3.303 0 00-.078.734v3.828c0 .262.023.516.078.766.05.242.14.468.265.687.133.211.301.387.5.531.208.149.43.25.672.313.25.063.5.094.75.094zm0-.828c-.188 0-.376-.036-.563-.11a1.08 1.08 0 01-.469-.344 1.505 1.505 0 01-.25-.515 2.762 2.762 0 01-.062-.594v-.297L4.219-4.75v2.453c0 .2-.028.399-.078.594-.043.187-.125.36-.25.516a1.08 1.08 0 01-.47.343c-.179.074-.366.11-.562.11zM1.515-3.672v-2.453c0-.195.02-.39.062-.578.05-.195.133-.375.25-.531.125-.157.281-.27.469-.344.187-.07.375-.11.562-.11.196 0 .383.04.563.11.187.074.344.187.469.344.125.156.207.336.25.53.05.188.078.384.078.579v.313zm0 0"/></symbol><symbol overflow="visible" id="d"><path d="M3.484.094c.164 0 .32-.032.47-.094.144-.07.25-.18.312-.328.07-.156.109-.313.109-.469 0-.164-.04-.32-.11-.469a.583.583 0 00-.312-.312 1.086 1.086 0 00-.469-.11c-.156 0-.312.04-.468.11a.625.625 0 00-.329.312 1.196 1.196 0 00-.093.47c0 .155.031.312.094.468A.67.67 0 003.015 0c.156.063.312.094.468.094zm0 0"/></symbol><symbol overflow="visible" id="e"><path d="M2.86.094c.163 0 .32-.032.468-.094.145-.07.25-.18.313-.328.07-.156.109-.313.109-.469 0-.164-.04-.32-.11-.469a.583.583 0 00-.312-.312 1.086 1.086 0 00-.469-.11c-.156 0-.312.04-.468.11a.625.625 0 00-.329.312 1.196 1.196 0 00-.093.47c0 .155.031.312.093.468A.67.67 0 002.392 0c.156.063.312.094.468.094zm0 0"/></symbol><symbol overflow="visible" id="f"><path d="M2.234.094c.164 0 .32-.032.47-.094.144-.07.25-.18.312-.328.07-.156.109-.313.109-.469 0-.164-.04-.32-.11-.469a.583.583 0 00-.312-.312 1.086 1.086 0 00-.469-.11c-.156 0-.312.04-.468.11a.625.625 0 00-.329.312 1.196 1.196 0 00-.093.47c0 .155.031.312.093.468A.67.67 0 001.766 0c.156.063.312.094.468.094zm0 0"/></symbol><symbol overflow="visible" id="i"><path d="M2.75 0h.922v-8.422H2.75L.672-6.984l.5.671L2.75-7.39zm0 0"/></symbol><symbol overflow="visible" id="j"><path d="M.688 0h4.359v-.828H1.64c.03-.363.125-.711.28-1.047a3.76 3.76 0 01.626-.922c.258-.27.539-.508.844-.719.3-.218.586-.453.859-.703.27-.258.473-.562.61-.906.144-.344.218-.703.218-1.078 0-.3-.043-.598-.125-.89a1.86 1.86 0 00-.437-.782c-.211-.227-.461-.39-.75-.484a2.707 2.707 0 00-.891-.157c-.281 0-.563.043-.844.125-.273.075-.515.211-.734.407-.211.187-.367.418-.469.687a2.148 2.148 0 00-.156.813h.906c0-.22.05-.426.156-.625a.943.943 0 01.485-.438c.219-.094.437-.14.656-.14.188 0 .367.039.547.109.176.062.32.172.437.328.125.148.207.313.25.5.04.18.063.36.063.547 0 .312-.07.617-.203.906a2.292 2.292 0 01-.563.734c-.242.2-.492.391-.75.579a6.44 6.44 0 00-.719.593 4.02 4.02 0 00-.609.704 3.822 3.822 0 00-.406.843 3.763 3.763 0 00-.203.907c-.024.304-.031.609-.031.921zm0 0"/></symbol><symbol overflow="visible" id="k"><path d="M2.89.094c.313 0 .614-.043.907-.125.289-.094.547-.25.765-.469.227-.227.395-.488.5-.781.102-.29.157-.586.157-.89a2.4 2.4 0 00-.188-.923 2.096 2.096 0 00-.562-.781 2.415 2.415 0 00-.797-.484 2.46 2.46 0 00.703-.47c.219-.194.383-.429.5-.702a2.28 2.28 0 00.172-.86c0-.28-.055-.554-.156-.828a1.917 1.917 0 00-.454-.718 1.66 1.66 0 00-.703-.438 2.584 2.584 0 00-.843-.14c-.274 0-.543.042-.813.124A1.724 1.724 0 001.36-8c-.21.188-.367.418-.468.688-.094.261-.141.527-.141.796v.016h.922c0-.219.05-.426.156-.625a.899.899 0 01.453-.422 1.392 1.392 0 011.11-.047c.164.055.3.149.406.282.113.125.195.273.25.437a1.596 1.596 0 01-.094 1.219c-.105.23-.262.418-.469.562-.21.149-.437.242-.687.282-.25.03-.496.046-.735.046v.829c.27 0 .536.023.797.062.27.043.516.148.735.313.226.156.406.359.531.609.125.242.188.496.188.765 0 .188-.032.376-.094.563a1.247 1.247 0 01-.282.5 1.215 1.215 0 01-.484.297 1.77 1.77 0 01-.562.094c-.23 0-.461-.04-.688-.125a.98.98 0 01-.531-.438 1.25 1.25 0 01-.188-.656H.578c0 .293.055.574.172.844.113.273.285.507.516.703.226.187.484.32.765.39s.567.11.86.11zm0 0"/></symbol><symbol overflow="visible" id="l"><path d="M1.61-3.375l1.765-3.5v3.5zM3.374 0h.906v-2.547h.766v-.828H4.28v-5.047h-1.14L.594-3.375v.828h2.781zm0 0"/></symbol><symbol overflow="visible" id="m"><path d="M2.875.094c.27 0 .535-.043.797-.125.258-.082.488-.219.687-.406.196-.196.352-.422.47-.672.112-.25.19-.508.234-.782.039-.27.062-.535.062-.796 0-.282-.023-.551-.063-.813a2.854 2.854 0 00-.234-.766 1.958 1.958 0 00-.453-.656 1.638 1.638 0 00-.672-.422 2.212 2.212 0 00-.781-.14c-.219 0-.438.027-.656.078a1.67 1.67 0 00-.579.234v-2.422h3.141v-.828H.781V-3.5h.906a1.39 1.39 0 01.172-.594.915.915 0 01.438-.422c.195-.093.406-.14.625-.14.176 0 .344.039.5.11.164.073.3.183.406.327.102.149.18.305.235.469.062.168.101.34.125.516.019.18.03.355.03.53 0 .188-.015.372-.046.548-.024.168-.063.34-.125.515a1.511 1.511 0 01-.25.47.95.95 0 01-.406.327c-.157.074-.329.11-.516.11-.18 0-.352-.032-.516-.094a1.105 1.105 0 01-.437-.297 1.202 1.202 0 01-.25-.453 2.08 2.08 0 01-.094-.531H.672c0 .293.047.578.14.859.102.273.258.516.47.734.206.22.452.375.734.47.28.093.566.14.859.14zm0 0"/></symbol><symbol overflow="visible" id="v"><path d="M1.328 0h.922l.61-4.89L3.483 0h.907l.984-8.422h-.922l-.328 4.188-.219 2.78-.578-4.609h-.922l-.578 4.61-.562-6.969H.359zm0 0"/></symbol><symbol overflow="visible" id="w"><path d="M2.313.094c.25 0 .492-.04.734-.11.238-.07.453-.191.64-.359a1.74 1.74 0 00.438-.594V0h.922v-4.156c0-.227-.031-.453-.094-.672a1.52 1.52 0 00-.297-.594 1.795 1.795 0 00-.5-.437 2.057 2.057 0 00-.625-.235 3.838 3.838 0 00-.672-.062c-.261 0-.523.031-.78.093-.263.055-.5.157-.72.313-.218.156-.386.36-.5.61a1.728 1.728 0 00-.171.765h.921a.9.9 0 01.188-.547.893.893 0 01.469-.328c.195-.063.394-.094.593-.094.22 0 .43.047.641.14a.916.916 0 01.469.423c.101.199.156.406.156.625v.578H3.078c-.242 0-.476.015-.703.047-.23.031-.46.09-.688.172-.23.086-.437.203-.625.359-.18.156-.308.352-.39.578-.086.23-.125.461-.125.688 0 .242.031.48.094.718.07.23.191.438.359.625.176.18.379.305.61.375.226.07.46.11.702.11zm.343-.828c-.199 0-.398-.032-.594-.094a.784.784 0 01-.437-.344 1.073 1.073 0 01-.156-.562.9.9 0 01.093-.407.704.704 0 01.282-.312 1.56 1.56 0 01.39-.188c.133-.039.27-.066.407-.078.144-.02.289-.031.437-.031h1.047v.688c0 .187-.04.37-.11.546-.062.18-.167.329-.312.454a1.29 1.29 0 01-.5.265c-.18.043-.36.063-.547.063zm0 0"/></symbol><symbol overflow="visible" id="x"><path d="M3.703.094c.258 0 .508-.043.75-.125.25-.082.457-.223.625-.422.176-.195.3-.414.375-.656.07-.25.11-.5.11-.75v-.11h-.907v.063c0 .148-.015.289-.047.422-.03.136-.09.265-.171.39a.839.839 0 01-.329.266.9.9 0 01-.406.094.845.845 0 01-.781-.516 1.53 1.53 0 01-.14-.484 3.544 3.544 0 01-.032-.5V-5.25h1.844v-.813H2.75v-2.359h-.922v2.36H.578v.812h1.25v3.016c0 .23.016.46.047.687.04.219.11.434.203.64.094.212.223.4.39.563A1.5 1.5 0 003.048 0c.219.063.437.094.656.094zm0 0"/></symbol><symbol overflow="visible" id="y"><path d="M2.89.094c.258 0 .516-.032.766-.094.258-.05.5-.156.719-.313a1.51 1.51 0 00.516-.593c.125-.239.195-.489.218-.75h-.921c0 .199-.075.375-.22.531a.984.984 0 01-.5.313 2.064 2.064 0 01-.577.078c-.2 0-.391-.036-.579-.11a1.08 1.08 0 01-.468-.344 1.412 1.412 0 01-.266-.515 2.762 2.762 0 01-.062-.594v-.328h3.609v-1.156c0-.25-.027-.492-.078-.735a1.913 1.913 0 00-.781-1.25 1.77 1.77 0 00-.672-.296 2.912 2.912 0 00-.735-.094c-.25 0-.5.031-.75.093a1.884 1.884 0 00-.671.297c-.2.149-.368.329-.5.547a2.355 2.355 0 00-.266.703 3.303 3.303 0 00-.078.735v1.484c0 .262.023.516.078.766.05.242.144.468.281.687.133.211.305.39.516.547.207.149.43.246.672.297.25.063.5.094.75.094zM1.517-3.453v-.328c0-.196.02-.39.062-.578.05-.196.133-.375.25-.532.125-.156.281-.27.469-.343.187-.07.375-.11.562-.11.196 0 .383.04.563.11.187.074.344.187.469.343.125.157.207.336.25.532.05.187.078.382.078.578v.328zm0 0"/></symbol><symbol overflow="visible" id="z"><path d="M1.375 0h.922v-3.219c0-.187.004-.367.015-.547.02-.187.055-.367.11-.546.05-.176.125-.344.219-.5.101-.165.234-.297.39-.391a1.06 1.06 0 01.531-.14.75.75 0 01.329.077.54.54 0 01.25.22c.062.093.101.198.125.312.02.117.03.23.03.343h.923c0-.218-.024-.43-.063-.64a1.541 1.541 0 00-.25-.594 1.008 1.008 0 00-.484-.406 1.623 1.623 0 00-.625-.125c-.188 0-.371.039-.547.11-.18.073-.336.187-.469.343-.125.156-.23.324-.312.5a2.64 2.64 0 00-.172.531v-1.39h-.922zm0 0"/></symbol><symbol overflow="visible" id="B"><path d="M2.86.094c.288 0 .578-.043.859-.125.289-.082.547-.227.765-.438.227-.219.391-.469.485-.75.101-.289.156-.582.156-.875 0-.281-.055-.55-.156-.812a2.116 2.116 0 00-.422-.719 3.317 3.317 0 00-.64-.547 5.217 5.217 0 00-.72-.406c-.25-.125-.5-.254-.75-.39a1.786 1.786 0 01-.593-.579 1.479 1.479 0 01-.235-.797c0-.176.024-.347.079-.515.05-.164.132-.317.25-.454a1.03 1.03 0 01.437-.28c.164-.063.336-.095.516-.095.207 0 .414.047.625.141a.96.96 0 01.468.453c.102.2.157.403.157.61v.015h.921v-.015c0-.282-.054-.551-.156-.813-.105-.27-.261-.5-.468-.687a1.703 1.703 0 00-.735-.407 2.737 2.737 0 00-1.688.016 1.656 1.656 0 00-.718.453 1.97 1.97 0 00-.469.734c-.094.282-.14.57-.14.86 0 .281.05.555.156.812.101.262.25.5.437.72.188.21.395.39.625.546.227.156.469.297.719.422.258.117.508.246.75.39.25.137.453.329.61.579.156.242.234.5.234.78 0 .243-.059.477-.172.704a1.07 1.07 0 01-.516.484 1.537 1.537 0 01-.672.157c-.23 0-.453-.04-.671-.125a1.014 1.014 0 01-.516-.422 1.25 1.25 0 01-.188-.657H.578c0 .293.05.575.156.844.114.274.282.5.5.688.227.187.485.32.766.39s.566.11.86.11zm0 0"/></symbol><symbol overflow="visible" id="C"><path d="M2.86.094c.25 0 .492-.032.734-.094a1.86 1.86 0 00.672-.313c.207-.144.379-.32.515-.53a1.98 1.98 0 00.266-.688c.05-.25.078-.504.078-.766V-3.78c0-.25-.027-.492-.078-.735a1.913 1.913 0 00-.781-1.25 1.77 1.77 0 00-.672-.296 2.912 2.912 0 00-.735-.094c-.25 0-.5.031-.75.093a1.884 1.884 0 00-.671.297c-.2.149-.368.329-.5.547a2.355 2.355 0 00-.266.703 3.303 3.303 0 00-.078.735v1.484c0 .262.023.516.078.766.05.242.14.468.265.687.133.211.301.387.5.531.208.149.43.25.672.313.25.063.5.094.75.094zm0-.828c-.188 0-.376-.036-.563-.11a1.08 1.08 0 01-.469-.344 1.505 1.505 0 01-.25-.515 2.762 2.762 0 01-.062-.594V-3.78c0-.196.02-.39.062-.578.05-.196.133-.375.25-.532.125-.156.281-.27.469-.343.187-.07.375-.11.562-.11.196 0 .383.04.563.11.187.074.344.187.469.343.125.157.207.336.25.532.05.187.078.382.078.578v1.484c0 .2-.028.399-.078.594-.043.187-.125.36-.25.516a1.08 1.08 0 01-.47.343c-.179.074-.366.11-.562.11zm0 0"/></symbol><symbol overflow="visible" id="D"><path d="M2.5.094c.238 0 .469-.043.688-.125.226-.082.421-.211.578-.39.156-.177.273-.376.359-.595V0h.922v-8.422h-.922v3.375a1.993 1.993 0 00-.36-.61 1.305 1.305 0 00-.578-.374 1.949 1.949 0 00-1.515.062 1.446 1.446 0 00-.656.547c-.157.242-.266.5-.329.781-.062.282-.093.57-.093.86v1.484c0 .293.031.578.094.86.062.28.171.546.328.796.164.243.382.422.656.547.27.125.547.188.828.188zm.36-.828c-.2 0-.391-.036-.579-.11a1.081 1.081 0 01-.453-.344 1.653 1.653 0 01-.25-.53 2.57 2.57 0 01-.062-.579V-3.78c0-.196.02-.39.062-.578.05-.196.133-.375.25-.532.125-.156.274-.27.453-.343.188-.07.38-.11.578-.11.188 0 .368.043.547.125.176.074.32.196.438.36.113.156.187.328.219.515.039.188.062.375.062.563v1.484c0 .2-.023.39-.063.578-.03.188-.105.36-.218.516a1.148 1.148 0 01-.438.36c-.18.073-.36.109-.547.109zm0 0"/></symbol><symbol overflow="visible" id="F"><path d="M2.625.094c.29 0 .578-.047.86-.14.288-.102.535-.27.734-.5.207-.24.347-.505.422-.798.07-.289.109-.586.109-.89v-6.188H2.297v.828h1.547v5.36c0 .187-.024.37-.063.546-.043.18-.117.344-.219.5a1.047 1.047 0 01-.421.344c-.168.074-.34.11-.516.11-.219 0-.434-.047-.64-.141a.883.883 0 01-.438-.438 1.542 1.542 0 01-.14-.64H.5c0 .281.047.558.14.828.102.262.255.492.454.688.195.187.43.324.703.406.27.082.547.125.828.125zm0 0"/></symbol><symbol overflow="visible" id="G"><path d="M2.516.094c.226 0 .453-.043.671-.125.227-.082.422-.211.579-.39.156-.188.273-.384.359-.595V0h.922v-6.063h-.922v3.766c0 .2-.023.39-.063.578-.03.188-.105.36-.218.516a1.148 1.148 0 01-.438.36c-.168.073-.351.109-.547.109-.187 0-.37-.036-.546-.11a1.092 1.092 0 01-.438-.36 1.44 1.44 0 01-.219-.515 3.5 3.5 0 01-.047-.578v-3.765H.688v3.765c0 .23.015.461.046.688.04.218.102.433.188.64.082.211.203.403.36.578.155.168.343.293.562.375.218.07.441.11.672.11zm0 0"/></symbol><symbol overflow="visible" id="H"><path d="M.86 0h4.015v-.828H3.406v-5.234h-2.39v.812h1.468v4.422H.86zm2.015-7.14a.829.829 0 00.36-.079.477.477 0 00.265-.25.934.934 0 000-.75.505.505 0 00-.266-.25.763.763 0 00-.734 0 .568.568 0 00-.266.25.873.873 0 00-.078.375c0 .125.024.25.078.375.063.117.149.2.266.25a.85.85 0 00.375.078zm0 0"/></symbol><symbol overflow="visible" id="I"><path d="M2.844.094c.281 0 .554-.04.828-.11.281-.082.523-.218.734-.406.219-.195.38-.43.485-.703.113-.27.171-.55.171-.844h-.921c0 .23-.059.45-.172.657a.95.95 0 01-.485.437 1.555 1.555 0 01-1.218.031.97.97 0 01-.438-.344 1.653 1.653 0 01-.25-.53 2.57 2.57 0 01-.062-.579V-3.78c0-.188.02-.375.062-.563.05-.195.133-.375.25-.531a.979.979 0 01.438-.36 1.555 1.555 0 011.219.031.946.946 0 01.484.454c.113.21.172.422.172.64h.921a2.14 2.14 0 00-.171-.827 1.85 1.85 0 00-.485-.704 1.703 1.703 0 00-.734-.406 3.302 3.302 0 00-.828-.11c-.25 0-.5.032-.75.095-.242.054-.461.156-.656.312-.2.148-.368.328-.5.547-.125.21-.215.437-.266.687a3.303 3.303 0 00-.078.735v1.484c0 .25.023.5.078.75.05.242.14.469.265.688.133.218.301.402.5.546.196.149.415.25.657.313.25.063.5.094.75.094zm0 0"/></symbol><symbol overflow="visible" id="g"><path d="M3.469.14c.32 0 .633-.058.937-.171.301-.114.563-.29.782-.531a2.79 2.79 0 00.515-.797V0h2.031v-9.11h-2.03v5.672c0 .211-.024.418-.063.626-.032.21-.118.406-.25.593a1.22 1.22 0 01-.485.406c-.187.086-.39.125-.61.125-.21 0-.413-.039-.609-.125-.199-.093-.359-.226-.484-.406a1.981 1.981 0 01-.25-.594 3.056 3.056 0 01-.062-.624V-9.11H.859v5.671c0 .336.02.668.063 1 .05.336.133.657.25.97.125.304.297.585.516.843.226.262.5.453.812.578.313.125.633.188.969.188zm0 0"/></symbol><symbol overflow="visible" id="h"><path d="M4.297.14c.445 0 .89-.058 1.328-.171a2.918 2.918 0 001.188-.61c.351-.289.617-.648.796-1.078.176-.426.266-.867.266-1.328 0-.457-.094-.898-.281-1.328a3.754 3.754 0 00-.75-1.14 9.014 9.014 0 00-1.032-.907 7.4 7.4 0 00.907-.875c.281-.32.492-.68.64-1.078a3.444 3.444 0 000-2.5 2.75 2.75 0 00-.703-1.078 2.56 2.56 0 00-1.093-.625 4.356 4.356 0 00-2.531 0 2.538 2.538 0 00-1.094.625 2.933 2.933 0 00-.704 1.078 3.46 3.46 0 000 2.5c.164.398.383.758.657 1.078.27.313.566.606.89.875a7.722 7.722 0 00-1.015.906c-.313.336-.57.715-.766 1.141a3.374 3.374 0 00-.016 2.656c.176.43.438.79.782 1.078.351.293.75.496 1.187.61.445.113.895.172 1.344.172zm0-1.828c-.25 0-.508-.039-.766-.125a1.166 1.166 0 01-.594-.484 1.398 1.398 0 01-.203-.734 1.9 1.9 0 01.235-.906c.164-.301.363-.563.594-.782.238-.218.484-.422.734-.61.258.188.504.391.734.61.227.219.422.48.578.782.164.292.25.593.25.906 0 .261-.074.508-.218.734-.137.23-.329.39-.579.485-.25.085-.507.125-.765.125zm0-5.828a5.799 5.799 0 01-.625-.578 3.251 3.251 0 01-.469-.719 1.946 1.946 0 01-.172-.812 1.7 1.7 0 01.14-.672.93.93 0 01.454-.484c.219-.114.441-.172.672-.172.226 0 .445.058.656.172a.93.93 0 01.469.484 1.7 1.7 0 01.14.672c0 .281-.062.555-.187.813-.117.261-.266.5-.453.718-.188.211-.399.403-.625.578zm0 0"/></symbol><symbol overflow="visible" id="o"><path d="M.86 0h2.984c.426 0 .847-.04 1.265-.125a3.742 3.742 0 001.172-.484c.364-.227.672-.52.922-.875a3.18 3.18 0 00.516-1.157c.101-.414.156-.836.156-1.265V-8.75c0-.426-.055-.844-.156-1.25a3.239 3.239 0 00-.516-1.156 3.279 3.279 0 00-.922-.875A3.616 3.616 0 005.11-12.5a5.766 5.766 0 00-1.265-.14H.859zm2.03-1.828v-8.985h.954c.27 0 .535.047.797.141.27.086.5.227.687.422.195.2.332.434.406.703.07.274.11.54.11.797v4.844c0 .281-.04.558-.11.828-.074.262-.21.496-.406.703-.187.2-.418.34-.687.422a2.535 2.535 0 01-.797.125zm0 0"/></symbol><symbol overflow="visible" id="p"><path d="M1.75 0h2.031v-4.828c0-.219.004-.438.016-.656.02-.227.055-.446.11-.657a2.81 2.81 0 01.25-.609 1.25 1.25 0 01.452-.484c.196-.125.399-.188.61-.188.164 0 .32.031.468.094.145.062.25.168.313.312.07.137.11.29.11.454h2.015c0-.32-.031-.645-.094-.97a2.324 2.324 0 00-.36-.905 1.536 1.536 0 00-.718-.61 2.329 2.329 0 00-.937-.203 2.08 2.08 0 00-.813.172 1.802 1.802 0 00-.672.469c-.18.21-.328.437-.453.687a6.32 6.32 0 00-.297.766V-9.11H1.75zm0 0"/></symbol><symbol overflow="visible" id="q"><path d="M1.297 0h6.016v-1.828H5.438V-9.11H1.53v1.828h1.875v5.453h-2.11zm3-10.438c.238 0 .469-.05.687-.156a.99.99 0 00.5-.484 1.652 1.652 0 000-1.406.933.933 0 00-.5-.485 1.622 1.622 0 00-1.39 0 .907.907 0 00-.5.485 1.672 1.672 0 000 1.406c.101.219.27.383.5.484.226.106.46.156.703.156zm0 0"/></symbol><symbol overflow="visible" id="r"><path d="M.86 0h2.03v-5.672c0-.219.02-.43.063-.64.05-.208.133-.399.25-.579.125-.187.285-.32.485-.406a1.56 1.56 0 011.218 0c.196.086.36.219.485.406.132.18.218.371.25.579.039.21.062.421.062.64V0h2.031v-5.672c0-.332-.027-.664-.078-1a3.973 3.973 0 00-.25-.969 2.929 2.929 0 00-.5-.859 1.91 1.91 0 00-.812-.563 2.59 2.59 0 00-.969-.187 2.64 2.64 0 00-.938.172 1.804 1.804 0 00-.78.531c-.22.242-.391.508-.516.797v-1.36H.859zm0 0"/></symbol><symbol overflow="visible" id="s"><path d="M1.14 0h2.016v-2.281l.656-.922 1.891 3.11.063.093h2.296L5.047-4.938l3.016-4.171H5.719L3.156-5.25v-7.39H1.141zm0 0"/></symbol><clipPath id="a"><path d="M0 0h255v312.305H0zm0 0"/></clipPath><clipPath id="b"><path d="M0 28h50v282.871H0zm0 0"/></clipPath><clipPath id="n"><path d="M0 268h43v42.871H0zm0 0"/></clipPath><clipPath id="t"><path d="M161 30h94v120h-94zm0 0"/></clipPath><clipPath id="u"><path d="M168 39h87v46h-87zm0 0"/></clipPath><clipPath id="A"><path d="M168 67h87v47h-87zm0 0"/></clipPath><clipPath id="E"><path d="M168 96h87v47h-87zm0 0"/></clipPath></defs><g clip-path="url(#a)"><path d="M0 0h255v312.305H0zm0 0" fill="#fff"/></g><path d="M7.164 40.469h25.07c.352 0 .7.035 1.047.105.348.067.684.172 1.008.305a5.317 5.317 0 012.41 1.98 5.453 5.453 0 01.805 1.934c.066.348.101.695.101 1.05v257.864c0 .355-.035.703-.101 1.05a5.452 5.452 0 01-.805 1.934 5.347 5.347 0 01-4.465 2.387H7.164c-.355 0-.703-.031-1.05-.101a5.753 5.753 0 01-1.009-.305 5.55 5.55 0 01-.925-.496 5.347 5.347 0 01-2.285-3.418 5.268 5.268 0 01-.106-1.051V45.844a5.44 5.44 0 01.41-2.059c.137-.324.301-.633.496-.926a5.347 5.347 0 013.418-2.285c.348-.07.696-.105 1.051-.105zm0 0" fill="#fff"/><g clip-path="url(#b)"><path d="M7.164 40.469h25.07c.352 0 .7.035 1.047.105.348.067.684.172 1.008.305a5.317 5.317 0 012.41 1.98 5.453 5.453 0 01.805 1.934c.066.348.101.695.101 1.05v257.864c0 .355-.035.703-.101 1.05a5.453 5.453 0 01-.805 1.934 5.347 5.347 0 01-4.465 2.387H7.164c-.355 0-.703-.031-1.05-.101a5.757 5.757 0 01-1.009-.305 5.55 5.55 0 01-.925-.496 5.347 5.347 0 01-2.285-3.418 5.269 5.269 0 01-.106-1.051V45.844a5.44 5.44 0 01.41-2.059c.137-.324.301-.633.496-.926a5.347 5.347 0 013.418-2.285c.348-.07.696-.105 1.051-.105zm0 0" fill="none" stroke="#000" stroke-width="2.14887"/></g><path d="M30.441 61.96c0 .704-.066 1.403-.207 2.095a10.703 10.703 0 01-1.601 3.875c-.395.586-.84 1.129-1.336 1.629a10.747 10.747 0 01-7.598 3.145c-.707 0-1.406-.067-2.097-.208a10.703 10.703 0 01-6.836-4.566 10.703 10.703 0 01-1.605-3.875 10.78 10.78 0 01-.208-2.094 10.79 10.79 0 01.817-4.113c.273-.653.601-1.27.996-1.86.39-.586.836-1.129 1.336-1.625.496-.5 1.039-.945 1.628-1.336a10.47 10.47 0 011.856-.996 10.79 10.79 0 014.113-.816 10.78 10.78 0 014.11.816c.652.27 1.273.602 1.859.996.586.391 1.129.836 1.629 1.336.496.496.941 1.04 1.336 1.625a10.703 10.703 0 011.602 3.875c.14.692.206 1.39.206 2.098zm0 0" fill="#d4e6d4" stroke="#7fb363" stroke-width="2.14887"/><use xlink:href="#c" x="16.475" y="66.616" width="100%" height="100%"/><use xlink:href="#d" x="10.744" y="234.946" width="100%" height="100%"/><use xlink:href="#e" x="16.475" y="234.946" width="100%" height="100%"/><use xlink:href="#f" x="22.205" y="234.946" width="100%" height="100%"/><use xlink:href="#g" x="10.744" y="18.624" width="100%" height="100%"/><use xlink:href="#h" x="19.34" y="18.624" width="100%" height="100%"/><path d="M30.441 90.61c0 .706-.066 1.406-.207 2.097a10.703 10.703 0 01-4.566 6.836 10.703 10.703 0 01-3.875 1.605 10.78 10.78 0 01-2.094.207 10.792 10.792 0 01-4.113-.816 10.47 10.47 0 01-1.856-.996c-.59-.39-1.132-.836-1.628-1.336-.5-.496-.946-1.039-1.336-1.625a10.703 10.703 0 01-1.605-3.875 10.79 10.79 0 01-.208-2.098A10.78 10.78 0 019.77 86.5a10.766 10.766 0 013.96-4.824 10.712 10.712 0 015.97-1.809c.702 0 1.402.067 2.093.207a10.703 10.703 0 013.875 1.602c.586.394 1.129.84 1.629 1.336a10.747 10.747 0 013.145 7.598zm0 0" fill="#fff0ca" stroke="#d4b554" stroke-width="2.14887"/><use xlink:href="#i" x="16.475" y="95.268" width="100%" height="100%"/><path d="M30.441 119.262c0 .707-.066 1.406-.207 2.097a10.703 10.703 0 01-4.566 6.836c-.586.395-1.207.723-1.86.992-.652.274-1.324.477-2.015.614a10.78 10.78 0 01-2.094.207c-.707 0-1.406-.07-2.097-.207a10.434 10.434 0 01-2.016-.614c-.652-.269-1.27-.597-1.856-.992-.59-.39-1.132-.836-1.628-1.336-.5-.5-.946-1.039-1.336-1.629a10.73 10.73 0 01-.996-1.855 10.79 10.79 0 01-.816-4.113 10.78 10.78 0 01.816-4.11 10.766 10.766 0 013.96-4.824 10.712 10.712 0 015.97-1.808c.702 0 1.402.066 2.093.203.691.14 1.363.343 2.016.613a10.747 10.747 0 013.488 2.328 10.747 10.747 0 013.145 7.598zm0 0" fill="#d9e6fa" stroke="#6b8cbd" stroke-width="2.14887"/><use xlink:href="#j" x="16.475" y="123.92" width="100%" height="100%"/><path d="M30.441 147.914c0 .707-.066 1.406-.207 2.098a10.703 10.703 0 01-4.566 6.836c-.586.39-1.207.722-1.86.992a10.714 10.714 0 01-10.078-.992c-.59-.391-1.132-.836-1.628-1.336-.5-.5-.946-1.043-1.336-1.63a10.73 10.73 0 01-.996-1.855 10.79 10.79 0 01-.61-6.21c.137-.692.34-1.364.61-2.016a10.875 10.875 0 012.332-3.485c.496-.5 1.039-.945 1.628-1.336a10.712 10.712 0 013.872-1.605 10.79 10.79 0 012.097-.207c.703 0 1.403.07 2.094.207.691.14 1.363.344 2.016.613a10.747 10.747 0 013.488 2.328c.496.5.941 1.043 1.336 1.63a10.703 10.703 0 011.602 3.871c.14.695.206 1.39.206 2.097zm0 0" fill="#f5f5f5" stroke="#636363" stroke-width="2.14887"/><use xlink:href="#k" x="16.475" y="152.572" width="100%" height="100%" fill="#303030"/><path d="M30.441 176.566c0 .704-.066 1.403-.207 2.098a10.747 10.747 0 01-2.937 5.5 10.747 10.747 0 01-3.488 2.328c-.653.27-1.325.473-2.016.613-.691.137-1.39.204-2.094.204-.707 0-1.406-.067-2.097-.204a10.712 10.712 0 01-3.871-1.605 10.664 10.664 0 01-2.965-2.965 10.766 10.766 0 01-.996-1.86c-.27-.648-.473-1.32-.61-2.011a10.79 10.79 0 01.61-6.21c.273-.653.601-1.27.996-1.856.39-.586.836-1.13 1.336-1.63.496-.5 1.039-.945 1.628-1.335.586-.39 1.204-.723 1.856-.992a10.714 10.714 0 018.223 0 10.746 10.746 0 013.488 2.328 10.712 10.712 0 013.145 7.598zm0 0" fill="#f5f5f5" stroke="#636363" stroke-width="2.14887"/><use xlink:href="#l" x="16.475" y="181.224" width="100%" height="100%" fill="#303030"/><path d="M30.441 205.219c0 .703-.066 1.402-.207 2.093a10.703 10.703 0 01-1.601 3.875c-.395.586-.84 1.13-1.336 1.63a10.747 10.747 0 01-7.598 3.145c-.707-.001-1.406-.067-2.097-.208a10.703 10.703 0 01-6.836-4.567 10.703 10.703 0 01-1.605-3.875 10.78 10.78 0 01-.208-2.093 10.79 10.79 0 01.817-4.114c.273-.652.601-1.27.996-1.855.39-.59.836-1.133 1.336-1.629.496-.5 1.039-.945 1.628-1.336a10.452 10.452 0 011.856-.992 10.434 10.434 0 012.016-.613 10.79 10.79 0 012.097-.207c.703 0 1.403.07 2.094.207.691.136 1.363.34 2.016.613a10.664 10.664 0 014.824 3.957 10.712 10.712 0 011.808 5.969zm0 0" fill="#f5f5f5" stroke="#636363" stroke-width="2.14887"/><use xlink:href="#m" x="16.475" y="209.876" width="100%" height="100%" fill="#303030"/><path d="M30.441 262.52c0 .707-.066 1.406-.207 2.097a10.703 10.703 0 01-4.566 6.836 10.703 10.703 0 01-3.875 1.605 10.78 10.78 0 01-2.094.208 10.792 10.792 0 01-4.113-.817 10.73 10.73 0 01-1.856-.996c-.59-.39-1.132-.836-1.628-1.336-.5-.496-.946-1.039-1.336-1.625a10.703 10.703 0 01-1.605-3.875 10.79 10.79 0 01-.208-2.098 10.78 10.78 0 01.817-4.109 10.766 10.766 0 013.96-4.824 10.712 10.712 0 015.97-1.809c.702 0 1.402.067 2.093.207a10.703 10.703 0 013.875 1.602c.586.394 1.129.84 1.629 1.336a10.747 10.747 0 013.145 7.598zm0 0" fill="#f5f5f5" stroke="#636363" stroke-width="2.14887"/><g fill="#303030"><use xlink:href="#j" x="10.744" y="267.18" width="100%" height="100%"/><use xlink:href="#m" x="16.475" y="267.18" width="100%" height="100%"/><use xlink:href="#l" x="22.205" y="267.18" width="100%" height="100%"/></g><path d="M30.441 291.172c0 .707-.066 1.406-.207 2.098a10.703 10.703 0 01-4.566 6.835c-.586.395-1.207.723-1.86.993a10.78 10.78 0 01-4.11.82c-.706 0-1.405-.07-2.096-.207a10.435 10.435 0 01-2.016-.613c-.652-.27-1.27-.598-1.856-.993a10.3 10.3 0 01-1.628-1.335c-.5-.5-.946-1.04-1.336-1.63a10.73 10.73 0 01-.996-1.855 10.79 10.79 0 01-.816-4.113 10.78 10.78 0 01.816-4.11 10.766 10.766 0 017.832-6.43c.691-.136 1.39-.202 2.097-.202.703 0 1.403.066 2.094.203.691.14 1.363.344 2.016.613a10.747 10.747 0 013.488 2.328 10.747 10.747 0 013.145 7.598zm0 0" fill="#f5f5f5"/><g clip-path="url(#n)"><path d="M30.441 291.172c0 .707-.066 1.406-.207 2.097a10.703 10.703 0 01-4.566 6.836c-.586.395-1.207.723-1.86.993a10.78 10.78 0 01-4.11.82c-.706 0-1.405-.07-2.096-.207a10.434 10.434 0 01-2.016-.613c-.652-.27-1.27-.598-1.856-.993-.59-.39-1.132-.836-1.628-1.336-.5-.5-.946-1.039-1.336-1.628a10.73 10.73 0 01-.996-1.856 10.79 10.79 0 01-.816-4.113 10.78 10.78 0 01.816-4.11 10.766 10.766 0 013.96-4.824 10.712 10.712 0 015.97-1.808c.702 0 1.402.066 2.093.203.691.14 1.363.344 2.016.613a10.747 10.747 0 013.488 2.328 10.747 10.747 0 013.145 7.598zm0 0" fill="none" stroke="#636363" stroke-width="2.14887"/></g><g fill="#303030"><use xlink:href="#j" x="10.744" y="295.832" width="100%" height="100%"/><use xlink:href="#m" x="16.475" y="295.832" width="100%" height="100%"/><use xlink:href="#m" x="22.205" y="295.832" width="100%" height="100%"/></g><use xlink:href="#o" x="191.252" y="18.624" width="100%" height="100%"/><use xlink:href="#p" x="199.847" y="18.624" width="100%" height="100%"/><use xlink:href="#q" x="208.443" y="18.624" width="100%" height="100%"/><use xlink:href="#r" x="217.039" y="18.624" width="100%" height="100%"/><use xlink:href="#s" x="225.634" y="18.624" width="100%" height="100%"/><path d="M185.52 42.262h55.156a11.783 11.783 0 016.566 1.992 11.737 11.737 0 013.258 3.262 11.783 11.783 0 011.992 6.563v71.273a11.7 11.7 0 01-.226 2.304 11.91 11.91 0 01-.672 2.219c-.297.715-.66 1.398-1.094 2.043-.43.644-.922 1.242-1.469 1.789-.547.55-1.144 1.04-1.789 1.473a11.956 11.956 0 01-4.262 1.761 12.04 12.04 0 01-2.304.23H185.52a12.015 12.015 0 01-2.305-.23c-.762-.148-1.5-.375-2.219-.671a11.921 11.921 0 01-2.043-1.09 11.763 11.763 0 01-1.789-1.473 11.762 11.762 0 01-1.473-1.789 11.921 11.921 0 01-1.09-2.043 11.622 11.622 0 01-.671-2.219 11.705 11.705 0 01-.23-2.304V54.078c0-.773.077-1.543.23-2.305.148-.761.375-1.5.672-2.214a11.778 11.778 0 014.351-5.305 11.674 11.674 0 012.043-1.094 11.91 11.91 0 012.219-.672 11.702 11.702 0 012.305-.226zm0 0" fill="#fff"/><g clip-path="url(#t)"><path d="M185.52 42.262h55.156a11.783 11.783 0 016.566 1.992 11.737 11.737 0 013.258 3.262 11.783 11.783 0 011.992 6.562v71.274c0 .777-.074 1.543-.226 2.304-.153.762-.375 1.5-.672 2.219-.297.715-.66 1.398-1.094 2.043-.43.644-.922 1.242-1.469 1.789-.547.55-1.144 1.04-1.789 1.473a11.956 11.956 0 01-4.262 1.761 12.04 12.04 0 01-2.304.23H185.52a11.983 11.983 0 01-4.524-.901 11.921 11.921 0 01-2.043-1.09 11.762 11.762 0 01-1.789-1.473 11.762 11.762 0 01-1.473-1.789 11.92 11.92 0 01-1.09-2.043 11.622 11.622 0 01-.671-2.219 11.706 11.706 0 01-.23-2.304V54.078c0-.773.077-1.543.23-2.305.148-.761.375-1.5.672-2.214a11.777 11.777 0 014.351-5.305 11.674 11.674 0 012.043-1.094 11.91 11.91 0 012.219-.672 11.702 11.702 0 012.305-.226zm0 0" fill="none" stroke="#000" stroke-width="2.14887"/></g><path d="M180.504 61.602H38.66" fill="none" stroke="#000" stroke-width="2.86516" stroke-miterlimit="10"/><path d="M33.285 61.602l7.164-3.582-1.789 3.582 1.79 3.582zm0 0" stroke="#000" stroke-width="2.86516" stroke-miterlimit="10"/><path d="M184.086 51.215h58.02c.43 0 .84.082 1.234.246.394.164.742.394 1.047.7a3.202 3.202 0 01.941 2.276V69.48a3.19 3.19 0 01-.941 2.278 3.198 3.198 0 01-1.047.699 3.18 3.18 0 01-1.235.246h-58.02c-.425 0-.835-.082-1.23-.246a3.118 3.118 0 01-1.046-.7 3.142 3.142 0 01-.7-1.042 3.193 3.193 0 01-.246-1.235V54.437c0-.425.082-.84.246-1.234.164-.394.395-.742.7-1.043.3-.305.648-.535 1.046-.7a3.174 3.174 0 011.23-.245zm0 0" fill="#d4e6d4"/><g clip-path="url(#u)"><path d="M184.086 51.215h58.02c.43 0 .84.082 1.234.246.394.164.742.394 1.047.7a3.202 3.202 0 01.941 2.276V69.48a3.19 3.19 0 01-.941 2.278 3.198 3.198 0 01-1.047.699 3.18 3.18 0 01-1.235.246h-58.02c-.425 0-.835-.082-1.23-.246a3.118 3.118 0 01-1.046-.7 3.141 3.141 0 01-.7-1.042 3.193 3.193 0 01-.246-1.235V54.437c0-.425.082-.84.246-1.234.164-.394.395-.742.7-1.043.3-.305.648-.535 1.046-.7a3.174 3.174 0 011.23-.245zm0 0" fill="none" stroke="#7fb363" stroke-width="2.14887"/></g><use xlink:href="#v" x="198.415" y="66.616" width="100%" height="100%"/><use xlink:href="#w" x="204.145" y="66.616" width="100%" height="100%"/><use xlink:href="#x" x="209.876" y="66.616" width="100%" height="100%"/><use xlink:href="#y" x="215.606" y="66.616" width="100%" height="100%"/><use xlink:href="#z" x="221.336" y="66.616" width="100%" height="100%"/><path d="M180.504 90.254H38.66" fill="none" stroke="#000" stroke-width="2.86516" stroke-miterlimit="10"/><path d="M33.285 90.254l7.164-3.582-1.789 3.582 1.79 3.582zm0 0" stroke="#000" stroke-width="2.86516" stroke-miterlimit="10"/><path d="M184.086 79.867h58.02c.43 0 .84.082 1.234.246.394.164.742.395 1.047.7a3.202 3.202 0 01.941 2.277v15.043a3.203 3.203 0 01-1.988 2.976 3.18 3.18 0 01-1.235.246h-58.02c-.425 0-.835-.082-1.23-.246a3.118 3.118 0 01-1.046-.699 3.208 3.208 0 01-.945-2.277V83.09c0-.426.081-.84.245-1.235.164-.394.395-.742.7-1.043.3-.304.648-.535 1.046-.699a3.174 3.174 0 011.23-.246zm0 0" fill="#fff0ca"/><g clip-path="url(#A)"><path d="M184.086 79.867h58.02c.43 0 .84.082 1.234.246.394.164.742.395 1.047.7a3.202 3.202 0 01.941 2.277v15.043a3.204 3.204 0 01-1.988 2.976 3.18 3.18 0 01-1.235.246h-58.02c-.425 0-.835-.082-1.23-.246a3.118 3.118 0 01-1.046-.699 3.208 3.208 0 01-.945-2.277V83.09c0-.426.081-.84.245-1.235.164-.394.395-.742.7-1.043.3-.304.648-.535 1.046-.699a3.174 3.174 0 011.23-.246zm0 0" fill="none" stroke="#d4b554" stroke-width="2.14887"/></g><g><use xlink:href="#B" x="201.28" y="95.268" width="100%" height="100%"/><use xlink:href="#C" x="207.01" y="95.268" width="100%" height="100%"/><use xlink:href="#D" x="212.741" y="95.268" width="100%" height="100%"/><use xlink:href="#w" x="218.471" y="95.268" width="100%" height="100%"/></g><path d="M180.504 118.906H38.66" fill="none" stroke="#000" stroke-width="2.86516" stroke-miterlimit="10"/><path d="M33.285 118.906l7.164-3.582-1.789 3.582 1.79 3.578zm0 0" stroke="#000" stroke-width="2.86516" stroke-miterlimit="10"/><path d="M184.086 108.52h58.02c.43 0 .84.082 1.234.242a3.26 3.26 0 011.047.699c.3.305.535.652.699 1.047.164.394.242.804.242 1.234v15.043a3.218 3.218 0 01-1.988 2.977 3.18 3.18 0 01-1.235.246h-58.02c-.425 0-.835-.082-1.23-.246a3.177 3.177 0 01-1.046-.7 3.158 3.158 0 01-.7-1.046 3.174 3.174 0 01-.246-1.23v-15.044c0-.43.082-.84.246-1.234.164-.395.395-.742.7-1.047.3-.3.648-.535 1.046-.7.395-.16.805-.241 1.23-.241zm0 0" fill="#d9e6fa"/><g clip-path="url(#E)"><path d="M184.086 108.52h58.02c.43 0 .84.082 1.234.242a3.26 3.26 0 011.047.699c.3.305.535.652.699 1.047.164.394.242.804.242 1.234v15.043a3.218 3.218 0 01-1.988 2.977 3.18 3.18 0 01-1.235.246h-58.02c-.425 0-.835-.082-1.23-.246a3.177 3.177 0 01-1.046-.7 3.157 3.157 0 01-.7-1.046 3.174 3.174 0 01-.246-1.23v-15.044c0-.43.082-.84.246-1.234.164-.395.395-.742.7-1.047.3-.3.648-.535 1.046-.7.395-.16.805-.241 1.23-.241zm0 0" fill="none" stroke="#6b8cbd" stroke-width="2.14887"/></g><g><use xlink:href="#F" x="198.415" y="123.92" width="100%" height="100%"/><use xlink:href="#G" x="204.145" y="123.92" width="100%" height="100%"/><use xlink:href="#H" x="209.876" y="123.92" width="100%" height="100%"/><use xlink:href="#I" x="215.606" y="123.92" width="100%" height="100%"/><use xlink:href="#y" x="221.336" y="123.92" width="100%" height="100%"/></g></svg>