<svg xmlns="http://www.w3.org/2000/svg" xmlns:xlink="http://www.w3.org/1999/xlink" width="406.72" height="236.16" viewBox="0 0 305.04 177.12" version="1.2"><defs><symbol overflow="visible" id="b"><path d="M2.5.094c.238 0 .469-.043.688-.125.226-.082.421-.211.578-.39.164-.177.289-.376.375-.595V0h.906v-8.438H4.14v3.376a1.908 1.908 0 00-.375-.594 1.243 1.243 0 00-.579-.39 1.949 1.949 0 00-1.515.062 1.446 1.446 0 00-.656.546 2.388 2.388 0 00-.329.797 3.879 3.879 0 00-.093.844v1.5c0 .293.031.578.094.86.062.28.171.546.328.796.164.243.382.422.656.547.27.125.547.188.828.188zm.36-.828c-.188 0-.376-.036-.563-.11a1.08 1.08 0 01-.469-.344 1.653 1.653 0 01-.25-.53 2.698 2.698 0 01-.062-.579v-1.5c0-.195.02-.39.062-.578.05-.188.133-.36.25-.516.125-.164.281-.285.469-.359.187-.07.375-.11.562-.11.188 0 .368.044.547.126a.902.902 0 01.438.359c.113.156.191.328.234.516.04.187.063.375.063.562v1.5c0 .188-.024.375-.063.563a1.537 1.537 0 01-.234.53.997.997 0 01-.438.36c-.18.074-.36.11-.547.11zm0 0"/></symbol><symbol overflow="visible" id="c"><path d="M.86 0h4.015v-.828H3.406v-5.266h-2.39v.828h1.468v4.438H.86zm2.015-7.156a.873.873 0 00.375-.078.477.477 0 00.266-.25.934.934 0 000-.75.492.492 0 00-.266-.266.785.785 0 00-.375-.094.832.832 0 00-.375.094.549.549 0 00-.266.266.873.873 0 00-.078.375c0 .125.024.25.078.375.063.117.149.199.266.25.125.054.25.078.375.078zm0 0"/></symbol><symbol overflow="visible" id="d"><path d="M2.844.094c.27 0 .535-.028.797-.078.27-.051.52-.149.75-.297a1.44 1.44 0 00.546-.578c.133-.25.204-.504.204-.766 0-.188-.04-.367-.11-.547a1.366 1.366 0 00-.281-.469 1.647 1.647 0 00-.438-.328 2.785 2.785 0 00-.5-.234 9.966 9.966 0 00-.515-.172c-.18-.05-.356-.098-.531-.14-.18-.051-.356-.11-.532-.172A1.103 1.103 0 011.766-4a.72.72 0 01-.063-.89.93.93 0 01.328-.282c.133-.07.27-.117.406-.14.145-.032.29-.047.438-.047.145 0 .285.015.422.046.133.024.265.063.39.125A.888.888 0 014-4.921c.094.117.14.246.14.39h.907c0-.257-.063-.503-.188-.734a1.475 1.475 0 00-.515-.546 1.825 1.825 0 00-.703-.282 3.857 3.857 0 00-1.547 0c-.25.055-.492.157-.719.313a1.616 1.616 0 00-.703 1.328c0 .18.035.355.11.531.07.18.171.336.296.469.125.137.266.25.422.344.164.093.332.171.5.234.176.055.352.105.531.156.176.055.348.106.516.156.176.043.351.094.531.157.176.062.328.168.453.312a.686.686 0 01.063.906.986.986 0 01-.36.297 1.487 1.487 0 01-.437.125 2.88 2.88 0 01-.453.032c-.149 0-.293-.008-.438-.032a1.423 1.423 0 01-.422-.125.884.884 0 01-.343-.28.658.658 0 01-.141-.407H.578c0 .262.067.512.203.75.133.23.317.418.547.562.227.137.473.23.734.282.258.05.52.078.782.078zm0 0"/></symbol><symbol overflow="visible" id="e"><path d="M2.844.094c.281 0 .562-.04.844-.11.28-.082.523-.218.734-.406.219-.195.379-.43.484-.703.114-.27.172-.55.172-.844h-.922c0 .23-.058.45-.172.657a.95.95 0 01-.484.437 1.6 1.6 0 01-1.234.031.97.97 0 01-.438-.344 1.653 1.653 0 01-.25-.53 2.698 2.698 0 01-.062-.579v-1.5c0-.187.02-.375.062-.562.05-.196.133-.375.25-.532a.979.979 0 01.438-.359 1.6 1.6 0 011.234.031.946.946 0 01.484.453c.114.211.172.422.172.641h.922a2.14 2.14 0 00-.172-.828 1.85 1.85 0 00-.484-.703 1.703 1.703 0 00-.734-.407 3.473 3.473 0 00-.844-.109c-.25 0-.496.031-.735.094a1.732 1.732 0 00-.671.312c-.2.149-.368.329-.5.547-.125.211-.215.438-.266.688a3.303 3.303 0 00-.078.734v1.5c0 .25.023.5.078.75.05.242.14.469.265.688.133.21.301.39.5.546.208.149.43.25.672.313.239.063.485.094.735.094zm0 0"/></symbol><symbol overflow="visible" id="f"><path d="M1.375 0h.922v-3.234c0-.176.008-.352.031-.532.02-.187.05-.367.094-.546.05-.188.125-.36.219-.516a1.113 1.113 0 01.937-.531.75.75 0 01.328.078.54.54 0 01.25.218c.063.094.102.2.125.313.02.117.032.23.032.344h.906c0-.219-.024-.43-.063-.64a1.357 1.357 0 00-.234-.595 1.008 1.008 0 00-.484-.406 1.623 1.623 0 00-.625-.125c-.188 0-.376.04-.563.11-.18.074-.328.187-.453.343-.125.157-.23.324-.313.5a2.096 2.096 0 00-.187.532v-1.407h-.922zm0 0"/></symbol><symbol overflow="visible" id="g"><path d="M.547 0h.906v-4.625c0-.102.008-.207.031-.313a.654.654 0 01.172-.296.39.39 0 01.282-.125c.113 0 .207.043.28.125a.593.593 0 01.157.296c.02.106.031.211.031.313V0h.922v-4.625c0-.102.008-.207.031-.313a.749.749 0 01.157-.296.39.39 0 01.28-.125c.114 0 .212.043.298.125a.593.593 0 01.156.296c.02.106.031.211.031.313V0h.922v-4.625c0-.176-.016-.348-.047-.516A1.493 1.493 0 005-5.64a.964.964 0 00-.36-.39.864.864 0 00-.468-.14.931.931 0 00-.438.109.765.765 0 00-.328.28 1.725 1.725 0 00-.172.391 1.339 1.339 0 00-.187-.39.813.813 0 00-.328-.282.917.917 0 00-.422-.109c-.125 0-.246.024-.36.063a.74.74 0 00-.28.203 1.146 1.146 0 00-.204.265v-.453H.547zm0 0"/></symbol><symbol overflow="visible" id="h"><path d="M.688 0h.921v-3.797c0-.187.016-.375.047-.562.04-.188.117-.36.235-.516.113-.164.254-.285.421-.36a1.299 1.299 0 011.11 0 .92.92 0 01.422.36c.113.156.191.328.234.516.04.187.063.375.063.562V0h.906v-3.797c0-.226-.016-.453-.047-.672a2.145 2.145 0 00-.172-.656 2.082 2.082 0 00-.375-.563 1.3 1.3 0 00-.562-.375 2.052 2.052 0 00-1.36.016 1.239 1.239 0 00-.562.39c-.157.18-.278.376-.36.595v-1.032H.688zm0 0"/></symbol><symbol overflow="visible" id="i"><path d="M2.313.094c.25 0 .492-.04.734-.11.238-.07.453-.191.64-.359.196-.164.348-.363.454-.594V0h.906v-4.172c0-.226-.031-.453-.094-.672a1.664 1.664 0 00-.281-.593 1.795 1.795 0 00-.5-.438 2.07 2.07 0 00-.64-.234 3.732 3.732 0 00-.657-.063c-.273 0-.54.031-.797.094-.262.055-.5.156-.719.312-.218.157-.386.36-.5.61a1.79 1.79 0 00-.171.765h.921c0-.195.063-.375.188-.53a.959.959 0 01.484-.345c.196-.062.395-.093.594-.093.207 0 .414.046.625.14a.906.906 0 01.484.422c.102.2.157.406.157.625v.594H3.094c-.242 0-.48.015-.719.047-.23.031-.46.09-.688.172A2.197 2.197 0 001.079-3a1.337 1.337 0 00-.406.578c-.086.219-.125.45-.125.688 0 .242.035.48.11.718.07.23.19.438.359.625.164.18.363.305.593.375.227.07.461.11.704.11zm.359-.828c-.211 0-.406-.032-.594-.094a.932.932 0 01-.453-.36 1.073 1.073 0 01-.156-.562.9.9 0 01.093-.406.81.81 0 01.282-.313c.125-.07.254-.129.39-.172.145-.039.286-.066.422-.078.145-.02.29-.031.438-.031H4.14v.688c0 .18-.04.359-.11.546a.986.986 0 01-.328.454 1.37 1.37 0 01-.5.25c-.18.054-.355.078-.531.078zm0 0"/></symbol><symbol overflow="visible" id="j"><path d="M3.719.094c.25 0 .492-.043.734-.125.25-.082.461-.223.64-.422.177-.195.302-.422.376-.672.07-.25.11-.5.11-.75v-.094h-.923v.047c0 .149-.015.293-.047.438a1.015 1.015 0 01-.156.39.839.839 0 01-.328.266.976.976 0 01-.406.094.845.845 0 01-.469-.141.847.847 0 01-.328-.375 3.05 3.05 0 01-.14-.484 3.544 3.544 0 01-.032-.5v-3.032h1.86v-.828H2.75v-2.343h-.906v2.343H.578v.828h1.266v3.032c0 .23.015.46.047.687.03.219.093.434.187.64.102.212.235.4.39.563A1.5 1.5 0 003.048 0c.219.063.441.094.672.094zm0 0"/></symbol><symbol overflow="visible" id="k"><path d="M2.875-4.39c.156 0 .305-.032.453-.094a.613.613 0 00.328-.329c.07-.156.11-.312.11-.468 0-.164-.04-.32-.11-.469a.575.575 0 00-.328-.313 1.045 1.045 0 00-.453-.109c-.168 0-.324.04-.469.11a.625.625 0 00-.328.312c-.074.148-.11.305-.11.469 0 .156.036.312.11.468a.67.67 0 00.328.329c.145.062.301.093.469.093zm0 4.484c.156 0 .305-.032.453-.094a.613.613 0 00.328-.328c.07-.156.11-.313.11-.469 0-.164-.04-.32-.11-.469a.566.566 0 00-.328-.328 1.045 1.045 0 00-.453-.11c-.168 0-.324.04-.469.11a.613.613 0 00-.328.328c-.074.149-.11.305-.11.47 0 .155.036.312.11.468A.67.67 0 002.406 0c.145.063.301.094.469.094zm0 0"/></symbol><symbol overflow="visible" id="o"><path d="M2.516.094c.238 0 .468-.043.687-.125.219-.082.406-.211.563-.39.164-.188.289-.384.375-.595V0h.906v-6.094H4.14v3.797c0 .188-.024.375-.063.563a1.537 1.537 0 01-.234.53 1.022 1.022 0 01-.422.36c-.18.074-.36.11-.547.11-.2 0-.387-.036-.563-.11a1.13 1.13 0 01-.421-.36 1.403 1.403 0 01-.235-.53 3.416 3.416 0 01-.047-.563v-3.797H.688v3.797c0 .23.015.461.046.688.04.218.102.433.188.64.094.211.219.403.375.578.156.168.344.293.562.375.22.07.438.11.657.11zm0 0"/></symbol><symbol overflow="visible" id="p"><path d="M3.234.094c.29 0 .57-.063.844-.188.27-.125.484-.304.64-.547.165-.25.274-.515.329-.796a3.94 3.94 0 00.094-.86v-1.5c0-.281-.032-.562-.094-.844a2.103 2.103 0 00-.328-.796 1.387 1.387 0 00-.64-.547 2.009 2.009 0 00-.845-.188c-.242 0-.468.043-.687.125a1.239 1.239 0 00-.563.39c-.156.18-.28.376-.375.595v-3.375H.688V0h.921v-1.016c.094.22.22.418.375.594.157.18.344.309.563.39.219.083.445.126.687.126zm-.359-.828c-.188 0-.371-.036-.547-.11a1.093 1.093 0 01-.437-.36 1.578 1.578 0 01-.22-.53 2.508 2.508 0 01-.062-.563v-1.5c0-.187.02-.375.063-.562.039-.188.113-.36.219-.516a.979.979 0 01.437-.36c.176-.081.36-.124.547-.124.195 0 .39.039.578.109a.999.999 0 01.453.36c.125.156.207.327.25.515.04.188.063.383.063.578v1.5c0 .188-.024.383-.063.578a1.38 1.38 0 01-.25.532.993.993 0 01-.453.343c-.187.074-.383.11-.578.11zm0 0"/></symbol><symbol overflow="visible" id="q"><path d="M2.89.094c.258 0 .52-.032.782-.094.258-.05.5-.156.719-.313a1.51 1.51 0 00.515-.593c.125-.25.196-.504.219-.766h-.922a.896.896 0 01-.219.547.984.984 0 01-.5.313c-.199.054-.398.078-.593.078-.2 0-.391-.036-.579-.11a1.08 1.08 0 01-.468-.344 1.412 1.412 0 01-.266-.515 2.762 2.762 0 01-.062-.594v-.328H5.14v-1.172c0-.25-.028-.492-.079-.734a1.913 1.913 0 00-.781-1.25 1.77 1.77 0 00-.672-.297 2.912 2.912 0 00-.734-.094c-.262 0-.516.031-.766.094-.242.055-.46.152-.656.297-.2.148-.367.328-.5.547-.137.218-.23.453-.281.703a3.303 3.303 0 00-.078.734v1.5c0 .25.023.5.078.75.05.242.144.469.281.688.133.218.305.406.516.562.207.149.43.246.672.297.25.063.5.094.75.094zM1.517-3.453v-.344c0-.195.02-.39.062-.578.05-.188.133-.36.25-.516.125-.164.281-.285.469-.359a1.534 1.534 0 011.14 0c.188.074.344.195.47.36.124.156.206.327.25.515.038.188.062.383.062.578v.344zm0 0"/></symbol><symbol overflow="visible" id="v"><path d="M.5 0h1.078l1.297-2.188L4.172 0H5.25L3.375-3.047 5.25-6.094H4.172L2.875-3.89 1.578-6.094H.5l1.86 3.047zm0 0"/></symbol><symbol overflow="visible" id="G"><path d="M2.875.094c.281 0 .563-.032.844-.094.281-.07.531-.195.75-.375.218-.188.383-.41.5-.672.113-.27.172-.55.172-.844 0-.32-.075-.632-.22-.937a2.767 2.767 0 00-.577-.813 6.016 6.016 0 00-.75-.656c.25-.187.476-.39.687-.61.207-.226.375-.484.5-.765.125-.289.188-.586.188-.89a2.1 2.1 0 00-.157-.797 1.668 1.668 0 00-.453-.672 1.644 1.644 0 00-.703-.39 3.015 3.015 0 00-.781-.11c-.273 0-.543.039-.813.11a1.74 1.74 0 00-.703.39c-.199.187-.343.414-.437.672a2.25 2.25 0 00.047 1.687c.125.281.289.54.5.766.218.218.445.422.687.61-.273.198-.527.417-.765.655-.243.23-.434.5-.579.813a2.113 2.113 0 00-.218.937c0 .293.054.575.172.844.113.262.285.484.515.672.227.18.477.305.75.375.281.063.563.094.844.094zm0-.828a2.07 2.07 0 01-.672-.11 1.042 1.042 0 01-.5-.406 1.168 1.168 0 01-.187-.64c0-.27.066-.524.203-.766.133-.239.3-.446.5-.625.207-.176.426-.344.656-.5.219.156.426.324.625.5.207.18.379.386.516.625.132.242.203.496.203.765 0 .23-.063.446-.188.641a.975.975 0 01-.5.406c-.219.074-.437.11-.656.11zm0-4.047a4.388 4.388 0 01-.563-.485 2.311 2.311 0 01-.437-.593 1.508 1.508 0 01-.172-.704c0-.207.047-.406.14-.593a.853.853 0 01.423-.422 1.56 1.56 0 01.609-.125c.207 0 .406.043.594.125a.853.853 0 01.422.422c.101.187.156.386.156.593 0 .243-.059.477-.172.704a2.509 2.509 0 01-.438.593c-.18.18-.367.34-.562.485zm0 0"/></symbol><symbol overflow="visible" id="H"><path d="M1.719 2.36h.937l.328-1.079.032-.14 2.171-7.235h-.953L2.875-1.406 1.5-6.094H.547L2.407.031l-.266.86c-.075.25-.149.492-.22.734-.073.238-.14.484-.202.734zm0 0"/></symbol><symbol overflow="visible" id="I"><path d="M4.61 1.844l.437-.719A4.66 4.66 0 013.89.203a5.01 5.01 0 01-.829-1.219c-.21-.457-.359-.93-.453-1.421a8.442 8.442 0 01-.125-1.47c0-.5.04-.991.125-1.484.094-.488.243-.957.454-1.406.218-.445.492-.851.828-1.219a5.155 5.155 0 011.156-.921l-.438-.72c-.5.274-.953.618-1.359 1.032a5.836 5.836 0 00-.984 1.39 6.637 6.637 0 00-.547 1.626 9.24 9.24 0 00-.157 1.703c0 .574.051 1.14.157 1.703.113.562.297 1.105.547 1.625.257.512.586.973.984 1.39.406.426.86.77 1.36 1.032zm0 0"/></symbol><symbol overflow="visible" id="J"><path d="M2.875.094c.32 0 .64-.063.953-.188.32-.125.582-.316.781-.578.207-.258.348-.55.422-.875.07-.32.11-.648.11-.984 0-.32-.04-.645-.11-.969a2.195 2.195 0 00-.422-.875c-.199-.27-.453-.46-.765-.578a2.483 2.483 0 00-.953-.188c-.137 0-.274.012-.407.032A1.188 1.188 0 002.078-5c.219-.352.414-.719.594-1.094l1.187-2.343H2.844L1.859-6.47c-.199.399-.398.793-.593 1.188-.2.386-.36.793-.485 1.218A4.442 4.442 0 00.594-2.78c0 .281.02.562.062.844.04.273.117.53.235.78.113.25.27.481.468.688.196.2.426.344.688.438.27.082.547.125.828.125zm0-.828c-.219 0-.43-.047-.625-.141a1.206 1.206 0 01-.453-.422 1.909 1.909 0 01-.219-.594 3.295 3.295 0 010-1.265c.04-.219.113-.414.219-.594.113-.188.27-.328.469-.422a1.392 1.392 0 011.218 0c.196.094.348.234.454.422.113.188.187.387.218.594.04.21.063.418.063.625 0 .21-.024.422-.063.64-.031.211-.105.407-.218.594a1.008 1.008 0 01-.454.422c-.199.094-.402.14-.609.14zm0 0"/></symbol><symbol overflow="visible" id="K"><path d="M1.61-3.375l1.765-3.516v3.516zM3.374 0h.922v-2.547h.75v-.828h-.75v-5.063H3.14L.594-3.375v.828h2.781zm0 0"/></symbol><symbol overflow="visible" id="L"><path d="M1.125 1.844c.508-.262.96-.606 1.36-1.032a5.715 5.715 0 001-1.39c.257-.52.44-1.063.546-1.625a9.559 9.559 0 00.157-1.703c0-.57-.055-1.14-.157-1.703a6.04 6.04 0 00-.547-1.625 5.791 5.791 0 00-1-1.391 5.481 5.481 0 00-1.359-1.031l-.438.719c.438.25.82.558 1.157.921.343.368.617.774.828 1.22.219.448.367.917.453 1.405.094.493.14.985.14 1.485 0 .492-.046.98-.14 1.469a5.436 5.436 0 01-.453 1.421c-.211.45-.485.856-.828 1.22-.336.374-.719.679-1.157.921zm0 0"/></symbol><symbol overflow="visible" id="N"><path d="M.688 2.36h.921v-3.376c.094.22.22.418.375.594.157.18.344.309.563.39.219.083.445.126.687.126.29 0 .57-.063.844-.188.27-.125.484-.304.64-.547.165-.25.274-.515.329-.796a3.94 3.94 0 00.094-.86v-1.5c0-.281-.032-.562-.094-.844a2.103 2.103 0 00-.328-.796 1.387 1.387 0 00-.64-.547 2.009 2.009 0 00-.845-.188c-.242 0-.468.043-.687.125a1.239 1.239 0 00-.563.39c-.156.18-.28.376-.375.595v-1.032H.688zM2.874-.735c-.188 0-.371-.036-.547-.11a1.093 1.093 0 01-.437-.36 1.578 1.578 0 01-.22-.53 2.508 2.508 0 01-.062-.563v-1.5c0-.187.02-.375.063-.562.039-.188.113-.36.219-.516a.979.979 0 01.437-.36c.176-.081.36-.124.547-.124.195 0 .39.039.578.109a.999.999 0 01.453.36c.125.156.207.327.25.515.04.188.063.383.063.578v1.5c0 .188-.024.383-.063.578a1.38 1.38 0 01-.25.532.993.993 0 01-.453.343c-.187.074-.383.11-.578.11zm0 0"/></symbol><symbol overflow="visible" id="O"><path d="M2.828 2.453c.25 0 .492-.031.735-.094a1.79 1.79 0 00.656-.328c.207-.148.375-.328.5-.547.133-.218.222-.453.265-.703.04-.242.063-.48.063-.719v-6.156H4.14v1.032a1.908 1.908 0 00-.375-.594 1.243 1.243 0 00-.579-.39 1.949 1.949 0 00-1.515.062 1.446 1.446 0 00-.656.546 2.388 2.388 0 00-.329.797 3.879 3.879 0 00-.093.844v1.5c0 .293.031.578.094.86.062.28.171.546.328.796.164.243.382.422.656.547a1.953 1.953 0 001.516.063c.226-.082.421-.211.578-.39.164-.177.289-.376.375-.595V.063c0 .187-.024.374-.063.562a1.282 1.282 0 01-.25.531 1.02 1.02 0 01-.453.344c-.18.082-.36.125-.547.125-.2 0-.39-.031-.578-.094a.902.902 0 01-.453-.312.905.905 0 01-.219-.5H.672a1.716 1.716 0 00.688 1.313c.206.163.44.273.703.327.257.063.515.094.765.094zM2.86-.734c-.187 0-.375-.036-.562-.11a1.08 1.08 0 01-.469-.344 1.653 1.653 0 01-.25-.53 2.698 2.698 0 01-.062-.579v-1.5c0-.195.02-.39.062-.578.05-.188.133-.36.25-.516.125-.164.281-.285.469-.359.187-.07.375-.11.562-.11.188 0 .368.044.547.126a.902.902 0 01.438.359c.113.156.191.328.234.516.04.187.063.375.063.562v1.5c0 .188-.024.375-.063.563a1.537 1.537 0 01-.234.53.997.997 0 01-.438.36c-.18.074-.36.11-.547.11zm0 0"/></symbol><symbol overflow="visible" id="P"><path d="M2.625 2.36c.227-.313.426-.641.594-.985.176-.336.312-.688.406-1.063a4.43 4.43 0 00.14-1.109c0-.164-.038-.32-.109-.469a.566.566 0 00-.328-.328 1.045 1.045 0 00-.453-.11c-.168 0-.324.04-.469.11a.613.613 0 00-.328.328c-.074.149-.11.305-.11.47 0 .148.024.292.079.437a.64.64 0 00.297.312c.133.07.273.117.422.14-.075.321-.188.634-.344.938-.149.301-.32.586-.516.86zm0 0"/></symbol><symbol overflow="visible" id="Q"><path d="M2.875.094c.25 0 .492-.032.734-.094a1.86 1.86 0 00.672-.313 2.14 2.14 0 00.516-.546 1.98 1.98 0 00.266-.688c.05-.25.078-.5.078-.75v-1.5c0-.25-.028-.492-.079-.734a1.913 1.913 0 00-.781-1.25 1.77 1.77 0 00-.672-.297 2.912 2.912 0 00-.734-.094c-.262 0-.516.031-.766.094-.242.055-.46.152-.656.297-.2.148-.367.328-.5.547-.137.218-.23.453-.281.703a3.303 3.303 0 00-.078.734v1.5c0 .25.023.5.078.75a2.097 2.097 0 00.781 1.234c.195.149.414.25.656.313.25.063.504.094.766.094zm0-.828c-.2 0-.39-.036-.578-.11a1.08 1.08 0 01-.469-.344 1.48 1.48 0 01-.25-.53 2.698 2.698 0 01-.062-.579v-1.5c0-.195.02-.39.062-.578.05-.188.133-.36.25-.516.125-.164.281-.285.469-.359a1.534 1.534 0 011.14 0c.188.074.344.195.47.36.124.156.206.327.25.515.038.188.062.383.062.578v1.5c0 .188-.024.383-.063.578a1.26 1.26 0 01-.25.532 1.08 1.08 0 01-.469.343c-.18.074-.367.11-.562.11zm0 0"/></symbol><symbol overflow="visible" id="R"><path d="M.86 0h4.015v-.828H3.406v-7.61h-2.39v.829h1.468v6.78H.86zm0 0"/></symbol><symbol overflow="visible" id="m"><path d="M2.188-2.703h1.359c0-.207.015-.406.047-.594.039-.195.117-.379.234-.547.113-.164.227-.328.344-.484.125-.156.242-.313.36-.469.124-.164.234-.332.327-.5.094-.176.164-.36.22-.547.062-.195.093-.394.093-.593 0-.29-.059-.579-.172-.86A1.791 1.791 0 004.484-8a1.816 1.816 0 00-.765-.406 3.07 3.07 0 00-.86-.125c-.293 0-.578.039-.859.11-.281.073-.54.21-.766.405-.23.188-.402.422-.515.704a2.071 2.071 0 00-.172.828v.046h1.36v-.015c0-.164.038-.317.124-.453a.704.704 0 01.36-.313c.156-.062.312-.093.468-.093.157 0 .313.03.47.093.163.055.288.153.374.297a.957.957 0 01.125.469c0 .23-.055.453-.156.672a2.562 2.562 0 01-.39.593c-.15.18-.294.36-.438.547a3.66 3.66 0 00-.39.579c-.106.21-.18.43-.22.656-.03.23-.046.465-.046.703zM2.875.094c.176 0 .348-.04.516-.11a.764.764 0 00.359-.359 1.165 1.165 0 000-1.047.701.701 0 00-.36-.36c-.167-.07-.34-.109-.515-.109a1.3 1.3 0 00-.516.11.674.674 0 00-.359.36c-.074.167-.11.339-.11.515 0 .187.036.367.11.531a.73.73 0 00.36.36c.163.07.335.109.515.109zm0 0"/></symbol><symbol overflow="visible" id="r"><path d="M2.313.094c.218 0 .425-.04.624-.11.208-.082.383-.203.532-.359.144-.164.258-.344.344-.531V0h1.359v-6.094h-1.36v3.797c0 .137-.015.277-.046.422a1.015 1.015 0 01-.157.39.839.839 0 01-.328.266.9.9 0 01-.406.094.95.95 0 01-.406-.094.787.787 0 01-.328-.265 1.118 1.118 0 01-.172-.391 1.994 1.994 0 01-.047-.422v-3.797H.578v3.797c0 .219.016.445.047.672.031.219.082.434.156.64.082.212.196.403.344.579.156.168.336.293.547.375.207.082.422.125.64.125zm0 0"/></symbol><symbol overflow="visible" id="s"><path d="M2.875.094c.344 0 .676-.063 1-.188.32-.125.594-.32.813-.594a2.48 2.48 0 00.453-.921 4.229 4.229 0 000-2.032 2.535 2.535 0 00-.438-.906 1.796 1.796 0 00-.797-.61 2.752 2.752 0 00-1.297-.171c.04-.07.079-.145.11-.219.031-.07.066-.144.11-.219L4.14-8.437H2.656L1.61-6.297c-.168.356-.343.711-.53 1.063-.18.343-.325.71-.438 1.093A4.205 4.205 0 00.484-3c0 .305.02.602.063.89.039.294.117.575.234.844.125.274.285.516.485.735.207.219.453.383.734.484.29.094.582.14.875.14zm0-1.219a.926.926 0 01-.484-.14.961.961 0 01-.36-.36 1.949 1.949 0 01-.156-.484 3.657 3.657 0 01-.031-.516c0-.164.008-.336.031-.516.031-.175.086-.336.172-.484a.872.872 0 01.344-.36.926.926 0 01.484-.14c.176 0 .336.047.484.14.157.087.27.204.344.36.082.156.133.324.156.5a2.74 2.74 0 010 1.016 1.466 1.466 0 01-.156.484c-.086.148-.2.266-.344.36a.887.887 0 01-.484.14zm0 0"/></symbol><symbol overflow="visible" id="t"><path d="M1.875-3.375L3.015-6v2.625zM3.015 0H4.36v-2.156h.813v-1.219h-.813v-5.063H2.688L.483-3.375v1.219h2.532zm0 0"/></symbol><symbol overflow="visible" id="w"><path d="M2-4.14l.875-1.344.875 1.343 1.078-.703L3.75-6.172l1.625-.437-.406-1.157-1.516.579.094-1.672h-1.36l.094 1.671-1.484-.578-.422 1.157 1.61.437L.905-4.844zm0 0"/></symbol><symbol overflow="visible" id="x"><path d="M2.844.094c.3 0 .597-.043.89-.125.29-.082.551-.223.782-.422.226-.195.394-.438.5-.719.113-.281.171-.57.171-.875H3.829c0 .168-.043.328-.125.485a.765.765 0 01-.375.343c-.156.063-.32.094-.484.094-.2 0-.387-.05-.563-.156a.784.784 0 01-.344-.438 1.902 1.902 0 01-.093-.578v-1.5c0-.195.031-.39.093-.578a.797.797 0 01.344-.438 1.11 1.11 0 011.047-.046c.164.062.29.171.375.328.082.156.125.32.125.484h1.36c0-.289-.06-.578-.172-.86a1.775 1.775 0 00-.5-.734 1.843 1.843 0 00-.782-.421c-.293-.07-.59-.11-.89-.11-.262 0-.516.031-.766.094a2.054 2.054 0 00-.687.297 1.97 1.97 0 00-.547.547c-.137.21-.23.437-.281.687-.055.25-.079.5-.079.75v1.5c0 .25.024.508.079.766.05.25.144.484.28.703.145.21.329.387.548.531.218.149.445.246.687.297.25.063.504.094.766.094zm0 0"/></symbol><symbol overflow="visible" id="y"><path d="M2.875.094c.258 0 .516-.032.766-.094.25-.05.476-.145.687-.281a1.97 1.97 0 00.547-.547c.145-.219.242-.453.297-.703.062-.258.094-.516.094-.766v-1.5a2.99 2.99 0 00-.094-.75 2.063 2.063 0 00-.297-.703 2.024 2.024 0 00-1.234-.844 3.828 3.828 0 00-1.531 0c-.25.055-.485.153-.704.297a1.97 1.97 0 00-.547.547 2.426 2.426 0 00-.296.703 3.394 3.394 0 00-.079.75v1.5c0 .25.024.508.079.766.062.25.16.484.296.703.145.219.329.402.547.547.219.136.453.23.703.281.25.063.504.094.766.094zm0-1.219c-.2 0-.387-.05-.563-.156a.822.822 0 01-.374-.438 1.81 1.81 0 01-.094-.578v-1.5c0-.195.031-.39.093-.578a.837.837 0 01.375-.438 1.11 1.11 0 01.563-.156c.195 0 .383.055.563.157.175.105.296.25.359.437.07.188.11.383.11.578v1.5c0 .2-.04.39-.11.578a.779.779 0 01-.36.438c-.18.105-.367.156-.562.156zm0 0"/></symbol><symbol overflow="visible" id="z"><path d="M.578 0h1.344v-3.797c0-.144.016-.285.047-.422a1.02 1.02 0 01.172-.375.765.765 0 01.328-.281.95.95 0 01.406-.094.9.9 0 01.734.375.926.926 0 01.157.375c.03.137.046.278.046.422V0h1.36v-3.797c0-.219-.016-.437-.047-.656a2.88 2.88 0 00-.172-.64 1.99 1.99 0 00-.344-.579 1.106 1.106 0 00-.53-.375 1.86 1.86 0 00-1.298-.016c-.199.075-.37.196-.515.36a2.34 2.34 0 00-.344.531v-.922H.578zm0 0"/></symbol><symbol overflow="visible" id="A"><path d="M2.844.094c.281 0 .562-.032.844-.094.289-.05.554-.156.796-.313.239-.164.426-.378.563-.64.144-.258.219-.531.219-.813 0-.144-.024-.285-.063-.421a1.814 1.814 0 00-.172-.376 1.46 1.46 0 00-.265-.328 1.406 1.406 0 00-.344-.25 2.798 2.798 0 00-.375-.187 3.44 3.44 0 00-.406-.125 4.673 4.673 0 00-.407-.11c-.136-.039-.273-.078-.406-.109a4.787 4.787 0 01-.406-.11 1.184 1.184 0 01-.36-.234.537.537 0 01-.156-.375c0-.101.032-.195.094-.28a.727.727 0 01.25-.188c.102-.04.207-.067.313-.079a1.531 1.531 0 01.734.031.774.774 0 01.36.204.511.511 0 01.155.36h1.36a1.917 1.917 0 00-.203-.782 1.593 1.593 0 00-.532-.625 1.95 1.95 0 00-.75-.328 3.662 3.662 0 00-1.64 0 1.9 1.9 0 00-1.297.953 1.8 1.8 0 00-.14 1.219c.038.136.097.265.171.39.07.118.16.22.266.313.101.094.219.18.344.25.125.074.25.137.375.187.132.055.27.102.406.141l.406.094c.145.031.281.07.406.11.133.042.27.085.407.124a.93.93 0 01.359.219c.113.105.172.23.172.375a.404.404 0 01-.125.297.807.807 0 01-.281.187 2.873 2.873 0 01-.329.078c-.117.012-.23.016-.343.016a2.29 2.29 0 01-.453-.047A.904.904 0 012-1.39a.57.57 0 01-.188-.39H.454c.008.281.082.554.219.812.133.262.316.477.547.64.238.157.5.267.781.329.281.063.563.094.844.094zm0 0"/></symbol><symbol overflow="visible" id="B"><path d="M3.656.094c.27 0 .535-.047.797-.14.27-.095.5-.243.688-.454.187-.207.316-.445.39-.719.082-.27.125-.547.125-.828v-.11H4.313v.048a1.353 1.353 0 01-.14.64.648.648 0 01-.22.25.533.533 0 01-.297.094.515.515 0 01-.36-.14.819.819 0 01-.218-.344A2.112 2.112 0 012.984-2a4.647 4.647 0 01-.015-.406v-2.469h1.61v-1.219h-1.61v-2.343H1.625v2.343H.562v1.219h1.063v2.469c0 .242.016.48.047.719.039.242.113.476.219.703.101.23.242.433.421.609.176.168.38.29.61.36.238.07.484.109.734.109zm0 0"/></symbol><symbol overflow="visible" id="C"><path d="M.578 1.219h4.594V0H.578zm0 0"/></symbol><symbol overflow="visible" id="D"><path d="M.578 0h1.344v-3.797c0-.144.016-.285.047-.422a1.02 1.02 0 01.172-.375.765.765 0 01.328-.281.95.95 0 01.406-.094.9.9 0 01.734.375.926.926 0 01.157.375c.03.137.046.278.046.422V0h1.36v-3.797c0-.219-.016-.437-.047-.656a2.88 2.88 0 00-.172-.64 1.99 1.99 0 00-.344-.579 1.106 1.106 0 00-.53-.375 1.86 1.86 0 00-1.298-.016c-.199.075-.37.196-.515.36a2.34 2.34 0 00-.344.531v-3.266H.578zm0 0"/></symbol><symbol overflow="visible" id="E"><path d="M2.188.094c.218 0 .43-.032.64-.094.219-.07.41-.18.578-.328.164-.156.301-.332.406-.531V0h1.36v-4.14c0-.227-.031-.458-.094-.688a1.544 1.544 0 00-.328-.61 1.589 1.589 0 00-.531-.437 2.278 2.278 0 00-.657-.234c-.23-.04-.46-.063-.687-.063-.281 0-.563.031-.844.094a1.92 1.92 0 00-.765.36c-.22.179-.391.402-.516.671a1.928 1.928 0 00-.172.797h1.344c0-.145.047-.273.14-.39a.747.747 0 01.36-.25 1.222 1.222 0 01.906.016.596.596 0 01.36.296.835.835 0 01.124.437v.391h-.718c-.242 0-.485.016-.735.047a3.03 3.03 0 00-.734.187c-.23.086-.445.211-.64.375a1.586 1.586 0 00-.422.61c-.086.23-.125.469-.125.719 0 .242.03.48.093.718.063.242.172.461.328.657.164.187.364.324.594.406.238.082.484.125.734.125zm.53-1.219c-.148 0-.292-.016-.437-.047a.647.647 0 01-.36-.25.693.693 0 01-.124-.406c0-.102.023-.203.078-.297a.522.522 0 01.25-.219c.102-.05.207-.086.313-.11a2.1 2.1 0 01.328-.062c.113-.007.222-.015.328-.015h.719v.469c0 .18-.047.351-.141.515a.754.754 0 01-.406.328c-.18.063-.36.094-.547.094zm0 0"/></symbol><symbol overflow="visible" id="F"><path d="M1.172 0h1.36v-3.234c0-.145.003-.29.015-.438.008-.144.031-.285.062-.422.04-.144.094-.281.157-.406a.92.92 0 01.296-.328.72.72 0 01.422-.14.65.65 0 01.313.077.4.4 0 01.219.204c.039.093.062.195.062.296h1.36c0-.207-.024-.421-.063-.64a1.664 1.664 0 00-.25-.61 1.008 1.008 0 00-.484-.406 1.623 1.623 0 00-.625-.125c-.18 0-.356.04-.532.11-.18.074-.328.18-.453.312-.125.137-.23.29-.312.453-.074.168-.137.34-.188.516v-1.313h-1.36zm0 0"/></symbol><clipPath id="a"><path d="M0 0h305v176.543H0zm0 0"/></clipPath><clipPath id="n"><path d="M0 86h89v89.824H0zm0 0"/></clipPath><clipPath id="u"><path d="M86 86h90v89.824H86zm0 0"/></clipPath><clipPath id="M"><path d="M153 67h61v108.824h-61zm0 0"/></clipPath></defs><g clip-path="url(#a)"><path d="M0 0h305v176.543H0zm0 0" fill="#fff"/></g><path d="M1.793 1.793h172.238v43.059H1.793zm0 0" fill="#d9e6fa" stroke="#6b8cbd" stroke-width="2.15295"/><use xlink:href="#b" x="44.495" y="27.989" width="100%" height="100%"/><use xlink:href="#c" x="50.236" y="27.989" width="100%" height="100%"/><use xlink:href="#d" x="55.977" y="27.989" width="100%" height="100%"/><use xlink:href="#e" x="61.718" y="27.989" width="100%" height="100%"/><use xlink:href="#f" x="67.459" y="27.989" width="100%" height="100%"/><use xlink:href="#c" x="73.201" y="27.989" width="100%" height="100%"/><use xlink:href="#g" x="78.942" y="27.989" width="100%" height="100%"/><use xlink:href="#c" x="84.683" y="27.989" width="100%" height="100%"/><use xlink:href="#h" x="90.424" y="27.989" width="100%" height="100%"/><use xlink:href="#i" x="96.166" y="27.989" width="100%" height="100%"/><use xlink:href="#h" x="101.907" y="27.989" width="100%" height="100%"/><use xlink:href="#j" x="107.648" y="27.989" width="100%" height="100%"/><use xlink:href="#k" x="113.389" y="27.989" width="100%" height="100%"/><use xlink:href="#l" x="119.131" y="27.989" width="100%" height="100%"/><use xlink:href="#m" x="124.872" y="27.989" width="100%" height="100%"/><path d="M1.793 87.91H87.91v86.121H1.793zm0 0" fill="#fff0ca"/><g clip-path="url(#n)"><path d="M1.793 87.91H87.91v86.121H1.793zm0 0" fill="none" stroke="#d4b554" stroke-width="2.15295"/></g><g><use xlink:href="#h" x="12.918" y="135.637" width="100%" height="100%"/><use xlink:href="#o" x="18.659" y="135.637" width="100%" height="100%"/><use xlink:href="#g" x="24.4" y="135.637" width="100%" height="100%"/><use xlink:href="#p" x="30.141" y="135.637" width="100%" height="100%"/><use xlink:href="#q" x="35.883" y="135.637" width="100%" height="100%"/><use xlink:href="#f" x="41.624" y="135.637" width="100%" height="100%"/><use xlink:href="#k" x="47.365" y="135.637" width="100%" height="100%"/><use xlink:href="#l" x="53.106" y="135.637" width="100%" height="100%"/></g><g><use xlink:href="#r" x="58.848" y="135.637" width="100%" height="100%"/><use xlink:href="#s" x="64.589" y="135.637" width="100%" height="100%"/><use xlink:href="#t" x="70.33" y="135.637" width="100%" height="100%"/></g><path d="M87.91 87.91h86.121v86.121h-86.12zm0 0" fill="#f8ccca"/><g clip-path="url(#u)"><path d="M87.91 87.91h86.121v86.121h-86.12zm0 0" fill="none" stroke="#b8514f" stroke-width="2.15295"/></g><g><use xlink:href="#j" x="96.166" y="129.178" width="100%" height="100%"/><use xlink:href="#q" x="101.907" y="129.178" width="100%" height="100%"/><use xlink:href="#v" x="107.648" y="129.178" width="100%" height="100%"/><use xlink:href="#j" x="113.389" y="129.178" width="100%" height="100%"/><use xlink:href="#k" x="119.131" y="129.178" width="100%" height="100%"/><use xlink:href="#l" x="124.872" y="129.178" width="100%" height="100%"/></g><g><use xlink:href="#w" x="130.613" y="129.178" width="100%" height="100%"/><use xlink:href="#x" x="136.354" y="129.178" width="100%" height="100%"/><use xlink:href="#y" x="142.096" y="129.178" width="100%" height="100%"/><use xlink:href="#z" x="147.837" y="129.178" width="100%" height="100%"/><use xlink:href="#A" x="153.578" y="129.178" width="100%" height="100%"/><use xlink:href="#B" x="159.319" y="129.178" width="100%" height="100%"/></g><g><use xlink:href="#x" x="113.389" y="142.813" width="100%" height="100%"/><use xlink:href="#C" x="119.131" y="142.813" width="100%" height="100%"/><use xlink:href="#x" x="124.872" y="142.813" width="100%" height="100%"/><use xlink:href="#D" x="130.613" y="142.813" width="100%" height="100%"/><use xlink:href="#E" x="136.354" y="142.813" width="100%" height="100%"/><use xlink:href="#F" x="142.096" y="142.813" width="100%" height="100%"/></g><path d="M173.672 87.555h5.383c3.586 0 5.379-2.395 5.379-7.18V51.672c0-4.785 1.796-7.18 5.382-7.18h0-2.691c-1.793 0-2.691-2.39-2.691-7.176V8.613c0-4.785-1.793-7.18-5.38-7.18h-5.382" fill="none" stroke="#000" stroke-width="1.4353" stroke-miterlimit="10"/><g><use xlink:href="#G" x="198.073" y="49.518" width="100%" height="100%"/><use xlink:href="#l" x="203.814" y="49.518" width="100%" height="100%"/><use xlink:href="#p" x="209.555" y="49.518" width="100%" height="100%"/><use xlink:href="#H" x="215.296" y="49.518" width="100%" height="100%"/><use xlink:href="#j" x="221.037" y="49.518" width="100%" height="100%"/><use xlink:href="#q" x="226.779" y="49.518" width="100%" height="100%"/><use xlink:href="#d" x="232.52" y="49.518" width="100%" height="100%"/><use xlink:href="#l" x="238.261" y="49.518" width="100%" height="100%"/><use xlink:href="#I" x="244.002" y="49.518" width="100%" height="100%"/><use xlink:href="#J" x="249.744" y="49.518" width="100%" height="100%"/><use xlink:href="#K" x="255.485" y="49.518" width="100%" height="100%"/><use xlink:href="#l" x="261.226" y="49.518" width="100%" height="100%"/><use xlink:href="#p" x="266.967" y="49.518" width="100%" height="100%"/><use xlink:href="#c" x="272.709" y="49.518" width="100%" height="100%"/><use xlink:href="#j" x="278.45" y="49.518" width="100%" height="100%"/><use xlink:href="#d" x="284.191" y="49.518" width="100%" height="100%"/><use xlink:href="#L" x="289.932" y="49.518" width="100%" height="100%"/></g><g clip-path="url(#M)"><path d="M173.672 173.672h5.383c3.586 0 5.379-2.395 5.379-7.18V137.79c0-4.785 1.796-7.176 5.382-7.176h0-2.691c-1.793 0-2.691-2.394-2.691-7.18V94.73c0-4.785-1.793-7.175-5.38-7.175h-5.382" fill="none" stroke="#000" stroke-width="1.4353" stroke-miterlimit="10"/></g><g><use xlink:href="#G" x="198.073" y="135.637" width="100%" height="100%"/><use xlink:href="#l" x="203.814" y="135.637" width="100%" height="100%"/><use xlink:href="#p" x="209.555" y="135.637" width="100%" height="100%"/><use xlink:href="#H" x="215.296" y="135.637" width="100%" height="100%"/><use xlink:href="#j" x="221.037" y="135.637" width="100%" height="100%"/><use xlink:href="#q" x="226.779" y="135.637" width="100%" height="100%"/><use xlink:href="#d" x="232.52" y="135.637" width="100%" height="100%"/><use xlink:href="#l" x="238.261" y="135.637" width="100%" height="100%"/><use xlink:href="#I" x="244.002" y="135.637" width="100%" height="100%"/><use xlink:href="#J" x="249.744" y="135.637" width="100%" height="100%"/><use xlink:href="#K" x="255.485" y="135.637" width="100%" height="100%"/><use xlink:href="#l" x="261.226" y="135.637" width="100%" height="100%"/><use xlink:href="#p" x="266.967" y="135.637" width="100%" height="100%"/><use xlink:href="#c" x="272.709" y="135.637" width="100%" height="100%"/><use xlink:href="#j" x="278.45" y="135.637" width="100%" height="100%"/><use xlink:href="#d" x="284.191" y="135.637" width="100%" height="100%"/><use xlink:href="#L" x="289.932" y="135.637" width="100%" height="100%"/></g><path d="M1.793 44.852h172.238V87.91H1.793zm0 0" fill="#f5f5f5" stroke="#636363" stroke-width="2.15295"/><g fill="#303030"><use xlink:href="#I" x="33.012" y="71.048" width="100%" height="100%"/><use xlink:href="#N" x="38.753" y="71.048" width="100%" height="100%"/><use xlink:href="#i" x="44.495" y="71.048" width="100%" height="100%"/><use xlink:href="#b" x="50.236" y="71.048" width="100%" height="100%"/><use xlink:href="#b" x="55.977" y="71.048" width="100%" height="100%"/><use xlink:href="#c" x="61.718" y="71.048" width="100%" height="100%"/><use xlink:href="#h" x="67.459" y="71.048" width="100%" height="100%"/><use xlink:href="#O" x="73.201" y="71.048" width="100%" height="100%"/><use xlink:href="#P" x="78.942" y="71.048" width="100%" height="100%"/><use xlink:href="#l" x="84.683" y="71.048" width="100%" height="100%"/><use xlink:href="#N" x="90.424" y="71.048" width="100%" height="100%"/><use xlink:href="#f" x="96.166" y="71.048" width="100%" height="100%"/><use xlink:href="#Q" x="101.907" y="71.048" width="100%" height="100%"/><use xlink:href="#p" x="107.648" y="71.048" width="100%" height="100%"/><use xlink:href="#i" x="113.389" y="71.048" width="100%" height="100%"/><use xlink:href="#p" x="119.131" y="71.048" width="100%" height="100%"/><use xlink:href="#R" x="124.872" y="71.048" width="100%" height="100%"/><use xlink:href="#H" x="130.613" y="71.048" width="100%" height="100%"/><use xlink:href="#L" x="136.354" y="71.048" width="100%" height="100%"/></g></svg>