<svg xmlns="http://www.w3.org/2000/svg" xmlns:xlink="http://www.w3.org/1999/xlink" width="568" height="448" viewBox="0 0 426 336" version="1.2"><defs><symbol overflow="visible" id="b"><path d="M2.516.094c.226 0 .453-.043.671-.125.227-.082.422-.211.579-.39.156-.188.273-.384.359-.595V0h.922v-6.078h-.922v3.781c0 .2-.023.39-.063.578-.03.188-.105.36-.218.516a1.022 1.022 0 01-.422.36 1.458 1.458 0 01-1.11 0 1.092 1.092 0 01-.437-.36 1.44 1.44 0 01-.219-.516 3.5 3.5 0 01-.047-.578v-3.781H.688v3.781c0 .23.015.461.046.688.04.218.102.433.188.64.094.211.219.403.375.578.156.168.336.293.547.375.218.07.441.11.672.11zm0 0"/></symbol><symbol overflow="visible" id="c"><path d="M.688 0h.921v-3.781c0-.196.016-.39.047-.578.04-.188.114-.36.219-.516a.998.998 0 01.438-.344 1.286 1.286 0 011.109 0 .934.934 0 01.422.344c.113.156.187.328.219.516.039.187.062.382.062.578V0h.922v-3.781c0-.227-.016-.457-.047-.688a2.424 2.424 0 00-.188-.656 2.082 2.082 0 00-.375-.563 1.379 1.379 0 00-.562-.359 1.797 1.797 0 00-.656-.125c-.23 0-.461.043-.688.125a1.449 1.449 0 00-.562.39c-.157.18-.278.376-.36.595v-1.016H.688zm0 0"/></symbol><symbol overflow="visible" id="d"><path d="M2.844.094c.27 0 .535-.028.797-.078.27-.051.52-.149.75-.297a1.62 1.62 0 00.75-1.344c0-.188-.04-.367-.11-.547a1.145 1.145 0 00-.297-.453 1.983 1.983 0 00-.421-.344 2.785 2.785 0 00-.5-.234 4.621 4.621 0 00-.516-.156c-.18-.051-.356-.102-.531-.157-.18-.05-.356-.101-.532-.156a1.103 1.103 0 01-.468-.312.744.744 0 01-.188-.5c0-.145.04-.274.125-.391a.945.945 0 01.313-.297c.132-.07.273-.117.421-.14.145-.02.286-.032.422-.032.145 0 .286.012.422.032.145.023.281.062.406.125a.825.825 0 01.313.28.665.665 0 01.125.391h.922c0-.257-.063-.504-.188-.734a1.475 1.475 0 00-.515-.547 2.076 2.076 0 00-.719-.297 3.857 3.857 0 00-.766-.078c-.25 0-.507.027-.765.078-.262.055-.5.157-.719.313a1.616 1.616 0 00-.703 1.328c0 .187.035.371.11.547.07.168.171.32.296.453.125.137.266.25.422.344.164.093.332.171.5.234.176.055.348.105.516.156.175.055.351.106.53.156.177.043.352.094.532.157.176.062.328.168.453.312a.715.715 0 01.203.485.656.656 0 01-.156.421 1.04 1.04 0 01-.344.297 1.487 1.487 0 01-.437.125 2.88 2.88 0 01-.453.032c-.149 0-.293-.008-.438-.032a1.423 1.423 0 01-.422-.125.992.992 0 01-.359-.28.658.658 0 01-.14-.407H.577c0 .262.067.512.203.75.133.23.317.418.547.562.227.137.473.23.734.282.258.05.52.078.782.078zm0 0"/></symbol><symbol overflow="visible" id="e"><path d="M2.313.094c.25 0 .492-.04.734-.11.238-.07.453-.191.64-.359a1.52 1.52 0 00.438-.594V0h.922v-4.156c0-.227-.031-.453-.094-.672a1.664 1.664 0 00-.797-1.047 2.057 2.057 0 00-.625-.234 3.838 3.838 0 00-.672-.063c-.261 0-.523.031-.78.094-.263.055-.5.164-.72.328-.218.156-.386.36-.5.61a1.728 1.728 0 00-.171.765h.921a.9.9 0 01.188-.547.893.893 0 01.469-.328c.195-.063.394-.094.593-.094.22 0 .43.043.641.125a.916.916 0 01.469.422c.101.2.156.414.156.64v.579H3.078c-.23 0-.465.015-.703.047-.23.031-.46.09-.688.172A2.197 2.197 0 001.079-3a1.337 1.337 0 00-.406.578c-.086.219-.125.45-.125.688 0 .242.031.48.094.718.07.23.191.438.359.625.176.18.379.305.61.375.226.07.46.11.702.11zm.343-.828c-.199 0-.39-.032-.578-.094a.86.86 0 01-.453-.344 1.098 1.098 0 01-.156-.578.9.9 0 01.093-.406.71.71 0 01.282-.297 1.56 1.56 0 01.39-.188c.133-.039.27-.066.407-.078.144-.02.289-.031.437-.031h1.047v.688c0 .18-.031.359-.094.546a.986.986 0 01-.328.454 1.37 1.37 0 01-.5.25c-.18.054-.36.078-.547.078zm0 0"/></symbol><symbol overflow="visible" id="f"><path d="M1.984 0h.922v-4.906h1.922v-.828H2.906v-1.094c0-.113.004-.227.016-.344.02-.125.055-.242.11-.36a.593.593 0 01.25-.25.65.65 0 01.343-.093c.125 0 .242.04.36.11.124.062.21.156.265.28.05.126.078.258.078.391v.047h.906v-.094c0-.207-.039-.414-.109-.625a1.344 1.344 0 00-.344-.53 1.28 1.28 0 00-.531-.313 2.185 2.185 0 00-.625-.094c-.242 0-.477.043-.703.125a1.341 1.341 0 00-.563.422 1.532 1.532 0 00-.296.64 2.97 2.97 0 00-.079.688v1.094H.688v.828h1.296zm0 0"/></symbol><symbol overflow="visible" id="g"><path d="M2.89.094c.258 0 .52-.032.782-.094.258-.05.5-.156.719-.313.218-.156.39-.351.515-.593.125-.239.192-.489.203-.75h-.906a.835.835 0 01-.234.531.984.984 0 01-.5.313 2.064 2.064 0 01-.578.078c-.2 0-.391-.036-.579-.11a1.08 1.08 0 01-.468-.344 1.412 1.412 0 01-.266-.515 2.762 2.762 0 01-.062-.594v-.328H5.14v-1.156c0-.25-.028-.492-.079-.735a2.288 2.288 0 00-.28-.703 1.715 1.715 0 00-.5-.547 1.634 1.634 0 00-.673-.312 3.082 3.082 0 00-1.5 0 1.732 1.732 0 00-.671.312c-.2.149-.368.329-.5.547a2.355 2.355 0 00-.266.703 3.303 3.303 0 00-.078.735v1.484c0 .25.023.5.078.75.05.242.144.469.281.688.133.218.305.406.516.562.207.149.43.246.672.297.25.063.5.094.75.094zM1.517-3.453v-.328c0-.196.02-.39.062-.578.05-.196.133-.375.25-.532.125-.156.281-.27.469-.343.187-.07.375-.11.562-.11.207 0 .399.04.579.11.187.074.335.187.453.343.125.157.207.336.25.532.05.187.078.382.078.578v.328zm0 0"/></symbol><symbol overflow="visible" id="h"><path d="M2.844.094c.281 0 .562-.04.844-.11.28-.082.523-.218.734-.406.219-.195.379-.43.484-.703.102-.27.157-.55.157-.844h-.907c0 .23-.058.45-.172.657-.117.199-.28.343-.5.437a1.555 1.555 0 01-1.218.031.97.97 0 01-.438-.344 1.653 1.653 0 01-.25-.53 2.57 2.57 0 01-.062-.579V-3.78c0-.196.02-.39.062-.578.05-.188.133-.36.25-.516a.979.979 0 01.438-.36 1.555 1.555 0 011.219.031c.218.095.382.247.5.454.113.2.171.406.171.625h.907c0-.281-.055-.555-.157-.828-.105-.27-.265-.5-.484-.688a1.703 1.703 0 00-.734-.406 2.89 2.89 0 00-1.578-.031 2.068 2.068 0 00-.672.312c-.2.149-.368.329-.5.547a2.355 2.355 0 00-.266.703 3.303 3.303 0 00-.078.735v1.484c0 .25.023.5.078.75.05.242.14.469.265.688.133.218.301.402.5.546.208.149.43.25.672.313.239.063.485.094.735.094zm0 0"/></symbol><symbol overflow="visible" id="i"><path d="M2.86.094c.257 0 .507-.032.75-.094a1.86 1.86 0 00.671-.313c.207-.144.375-.328.5-.546a2.28 2.28 0 00.282-.688c.05-.25.078-.5.078-.75V-3.78c0-.25-.028-.492-.079-.735a2.288 2.288 0 00-.28-.703 1.715 1.715 0 00-.5-.547 1.634 1.634 0 00-.673-.312 3.082 3.082 0 00-1.5 0 1.732 1.732 0 00-.671.312c-.2.149-.368.329-.5.547a2.355 2.355 0 00-.266.703 3.303 3.303 0 00-.078.735v1.484c0 .25.023.5.078.75.05.242.14.469.265.688.133.218.301.402.5.546.208.149.43.25.672.313.25.063.5.094.75.094zm0-.828c-.188 0-.376-.036-.563-.11a1.08 1.08 0 01-.469-.344 1.505 1.505 0 01-.25-.515 2.762 2.762 0 01-.062-.594V-3.78c0-.196.02-.39.062-.578.05-.196.133-.375.25-.532.125-.156.281-.27.469-.343.187-.07.375-.11.562-.11.207 0 .399.04.579.11.187.074.335.187.453.343.125.157.207.336.25.532.05.187.078.382.078.578v1.484c0 .2-.028.399-.078.594-.043.187-.125.36-.25.516a.993.993 0 01-.454.343c-.18.074-.37.11-.578.11zm0 0"/></symbol><symbol overflow="visible" id="j"><path d="M2.5.094c.238 0 .469-.043.688-.125.226-.082.421-.211.578-.39.156-.177.273-.376.359-.595V0h.922v-8.422h-.922v3.36a2.013 2.013 0 00-.36-.594 1.447 1.447 0 00-.578-.39 1.949 1.949 0 00-1.515.062 1.53 1.53 0 00-.656.562c-.157.242-.266.5-.329.781-.062.282-.093.57-.093.86v1.484c0 .293.031.578.094.86.062.28.171.546.328.796.164.243.382.422.656.547.27.125.547.188.828.188zm.36-.828c-.2 0-.391-.036-.579-.11a1.081 1.081 0 01-.453-.344 1.653 1.653 0 01-.25-.53 2.57 2.57 0 01-.062-.579V-3.78c0-.196.02-.39.062-.578.05-.196.133-.375.25-.532.125-.156.274-.27.453-.343.188-.07.38-.11.578-.11.188 0 .368.043.547.125a.917.917 0 01.438.344c.113.156.187.328.219.516.039.187.062.382.062.578v1.484c0 .2-.023.39-.063.578-.03.188-.105.36-.218.516a.997.997 0 01-.438.36c-.18.073-.36.109-.547.109zm0 0"/></symbol><symbol overflow="visible" id="l"><path d="M.86 0h4.015v-.828H3.406v-7.594h-2.39v.813h1.468v6.78H.86zm0 0"/></symbol><symbol overflow="visible" id="m"><path d="M.86 0h4.015v-.828H3.406v-5.25h-2.39v.828h1.468v4.422H.86zm2.015-7.14a.829.829 0 00.36-.079.549.549 0 00.265-.265.907.907 0 000-.735.492.492 0 00-.266-.265.748.748 0 00-.359-.094.859.859 0 00-.39.094.549.549 0 00-.266.265.829.829 0 00-.078.36.85.85 0 00.078.375.623.623 0 00.265.265.956.956 0 00.391.078zm0 0"/></symbol><symbol overflow="visible" id="n"><path d="M3.234.094c.29 0 .567-.063.829-.188.269-.125.488-.304.656-.547.164-.25.273-.515.328-.796a3.94 3.94 0 00.094-.86V-3.78c0-.29-.032-.578-.094-.86a2.086 2.086 0 00-.328-.78 1.577 1.577 0 00-.657-.563 1.933 1.933 0 00-1.516-.063 1.449 1.449 0 00-.562.39c-.156.18-.28.376-.375.595v-3.36H.688V0h.921v-1.016c.094.22.22.418.375.594.157.18.344.309.563.39.219.083.445.126.687.126zm-.359-.828c-.188 0-.375-.036-.563-.11a.975.975 0 01-.421-.36 1.44 1.44 0 01-.22-.515 2.57 2.57 0 01-.062-.578V-3.78c0-.196.02-.39.063-.578.039-.188.113-.36.219-.516a.895.895 0 01.421-.344c.188-.082.376-.125.563-.125.195 0 .39.04.578.11.188.074.336.187.453.343.114.157.192.336.235.532.05.187.078.382.078.578v1.484c0 .2-.028.39-.078.578a1.537 1.537 0 01-.235.532.993.993 0 01-.453.343c-.187.074-.383.11-.578.11zm0 0"/></symbol><symbol overflow="visible" id="o"><path d="M3.719.094c.25 0 .492-.043.734-.125.25-.082.457-.223.625-.422.176-.195.3-.414.375-.656.082-.25.125-.504.125-.766v-.094h-.922v.047c0 .149-.015.293-.047.438-.03.136-.09.265-.171.39a.719.719 0 01-.313.266.976.976 0 01-.406.094.845.845 0 01-.469-.141.847.847 0 01-.328-.375 2.554 2.554 0 01-.14-.484 3.544 3.544 0 01-.032-.5V-5.25h1.844v-.828H2.75v-2.344h-.922v2.344H.578v.828h1.25v3.016c0 .23.016.46.047.687.04.219.11.434.203.64.094.212.223.4.39.563A1.5 1.5 0 003.048 0c.219.063.441.094.672.094zm0 0"/></symbol><symbol overflow="visible" id="p"><path d="M4.61 1.844l.437-.719A5.155 5.155 0 013.89.203a5.01 5.01 0 01-.829-1.219 5.294 5.294 0 01-.453-1.421 8.442 8.442 0 01-.125-1.47c0-.488.04-.976.125-1.468.082-.488.235-.957.454-1.406.218-.446.492-.852.828-1.219a4.66 4.66 0 011.156-.922l-.438-.719A5.42 5.42 0 003.25-8.625a5.695 5.695 0 00-.984 1.406 5.765 5.765 0 00-.547 1.61 9.24 9.24 0 00-.157 1.703c0 .574.051 1.14.157 1.703.101.562.285 1.105.547 1.625.257.512.586.973.984 1.39.406.415.86.758 1.36 1.032zm0 0"/></symbol><symbol overflow="visible" id="q"><path d="M.688 0h.921v-3.469h.875L4.375 0h.984L3.438-3.516c.269-.062.519-.164.75-.312.226-.156.414-.348.562-.578.145-.227.242-.473.297-.735.062-.27.094-.539.094-.812 0-.258-.028-.516-.079-.766a2.5 2.5 0 00-.28-.718 1.735 1.735 0 00-.516-.579 1.77 1.77 0 00-.688-.312c-.25-.063-.5-.094-.75-.094H.688zm2.14-4.297H1.61v-3.312h1.22c.194 0 .39.043.577.125.196.074.36.195.485.359.125.168.207.355.25.563a2.46 2.46 0 010 1.234c-.043.2-.125.383-.25.547-.125.168-.29.293-.485.375-.187.074-.383.11-.578.11zm0 0"/></symbol><symbol overflow="visible" id="r"><path d="M1.375 0h.922v-3.219c0-.187.004-.367.015-.547.02-.187.055-.367.11-.546.05-.188.125-.36.219-.516.101-.156.238-.281.406-.375.164-.094.336-.14.515-.14a.75.75 0 01.329.077.524.524 0 01.265.22c.063.093.098.198.11.312.02.105.03.214.03.328h.923c0-.207-.024-.422-.063-.64a1.357 1.357 0 00-.234-.595 1.084 1.084 0 00-.5-.406 1.59 1.59 0 00-.61-.125c-.199 0-.386.043-.562.125-.18.074-.328.188-.453.344a2.385 2.385 0 00-.5 1.031v-1.406h-.922zm0 0"/></symbol><symbol overflow="visible" id="s"><path d="M1.703 2.344h.953l.328-1.078.032-.125 2.171-7.22h-.953L2.875-1.405 1.5-6.078H.547L2.39.032 2.14.89c-.075.25-.149.492-.22.734-.073.238-.148.477-.218.719zm0 0"/></symbol><symbol overflow="visible" id="t"><path d="M1.125 1.844c.5-.274.945-.617 1.344-1.032a5.715 5.715 0 001-1.39c.258-.52.441-1.063.547-1.625a9.559 9.559 0 00.156-1.703c0-.57-.055-1.14-.156-1.703a6.027 6.027 0 00-.547-1.61 5.652 5.652 0 00-1-1.406 5.208 5.208 0 00-1.344-1.016l-.438.72c.438.241.82.546 1.157.921.343.367.617.773.828 1.219.219.449.367.918.453 1.406.082.492.125.98.125 1.469 0 .492-.043.98-.125 1.469a5.436 5.436 0 01-.453 1.421c-.211.45-.485.856-.828 1.22a4.827 4.827 0 01-1.157.921zm0 0"/></symbol><symbol overflow="visible" id="u"><path d="M.531 0h.922v-4.625c0-.102.008-.207.031-.313a.553.553 0 01.172-.28.39.39 0 01.282-.126c.101 0 .195.043.28.125a.505.505 0 01.157.282c.02.105.031.21.031.312V0h.922v-4.625c0-.102.008-.207.031-.313a.462.462 0 01.157-.28.39.39 0 01.28-.126c.114 0 .208.043.282.125a.505.505 0 01.156.282c.032.105.047.21.047.312V0h.907v-4.625c0-.176-.016-.348-.047-.516a1.493 1.493 0 00-.157-.5.856.856 0 00-.343-.39.887.887 0 00-.907-.032.751.751 0 00-.328.297 1.725 1.725 0 00-.172.391 1.537 1.537 0 00-.187-.406.813.813 0 00-.328-.282.917.917 0 00-.422-.109c-.125 0-.246.024-.36.063a.74.74 0 00-.28.203c-.087.086-.153.18-.204.281v-.453H.531zm0 0"/></symbol><symbol overflow="visible" id="v"><path d="M.688 2.344h.921v-3.36c.094.22.22.418.375.594.157.18.344.309.563.39a1.933 1.933 0 001.515-.062c.27-.125.489-.304.657-.547.164-.25.273-.515.328-.796a3.94 3.94 0 00.094-.86V-3.78c0-.29-.032-.578-.094-.86a2.086 2.086 0 00-.328-.78 1.577 1.577 0 00-.657-.563 1.933 1.933 0 00-1.516-.063 1.449 1.449 0 00-.562.39c-.156.18-.28.376-.375.595v-1.016H.688zM2.874-.734c-.188 0-.375-.036-.563-.11a.975.975 0 01-.421-.36 1.44 1.44 0 01-.22-.515 2.57 2.57 0 01-.062-.578V-3.78c0-.196.02-.39.063-.578.039-.188.113-.36.219-.516a.895.895 0 01.421-.344c.188-.082.376-.125.563-.125.195 0 .39.04.578.11.188.074.336.187.453.343.114.157.192.336.235.532.05.187.078.382.078.578v1.484c0 .2-.028.39-.078.578a1.537 1.537 0 01-.235.532.993.993 0 01-.453.343c-.187.074-.383.11-.578.11zm0 0"/></symbol><symbol overflow="visible" id="w"><path d="M1.328 0h.922l.61-3.516L3.483 0h.922l.969-6.078h-.906l-.563 5.016-.578-3.313h-.922l-.578 3.313-.562-5.016H.359zm0 0"/></symbol><symbol overflow="visible" id="x"><path d="M.5 0h1.078L2.86-2.188 4.156 0h1.078L3.375-3.047l1.86-3.031H4.155L2.86-3.891 1.58-6.078H.5l1.86 3.031zm0 0"/></symbol><symbol overflow="visible" id="y"><path d="M2.625 2.344a6.68 6.68 0 00.578-.969c.176-.336.313-.688.406-1.063.102-.363.157-.734.157-1.109 0-.164-.04-.32-.11-.469a.64.64 0 00-.328-.328 1.086 1.086 0 00-.469-.11c-.156 0-.312.04-.468.11a.703.703 0 00-.329.328 1.196 1.196 0 00-.093.47c0 .148.023.292.078.437a.64.64 0 00.297.312c.133.07.273.117.422.14-.075.321-.188.634-.344.938-.149.301-.32.582-.516.844zm0 0"/></symbol><symbol overflow="visible" id="z"><path d="M.688 0h.921v-3.781c0-.196.016-.39.047-.578.04-.188.114-.36.219-.516a.998.998 0 01.438-.344 1.286 1.286 0 011.109 0 .934.934 0 01.422.344c.113.156.187.328.219.516.039.187.062.382.062.578V0h.922v-3.781c0-.227-.016-.457-.047-.688a2.424 2.424 0 00-.188-.656 2.082 2.082 0 00-.375-.563 1.379 1.379 0 00-.562-.359 1.797 1.797 0 00-.656-.125c-.23 0-.461.043-.688.125a1.449 1.449 0 00-.562.39c-.157.18-.278.376-.36.595v-3.36H.688zm0 0"/></symbol><symbol overflow="visible" id="A"><path d="M2.438-5.172h.859a88.46 88.46 0 00.078-3.687H2.359c0 1.242.024 2.468.079 3.687zm0 0"/></symbol><symbol overflow="visible" id="B"><path d="M2.828 2.438c.25 0 .492-.032.735-.094.238-.055.457-.156.656-.313a1.81 1.81 0 00.484-.547c.133-.218.223-.453.266-.703.05-.242.078-.48.078-.719v-6.14h-.922v1.016a2.013 2.013 0 00-.36-.594 1.447 1.447 0 00-.578-.39 1.949 1.949 0 00-1.515.062 1.53 1.53 0 00-.656.562c-.157.242-.266.5-.329.781-.062.282-.093.57-.093.86v1.484c0 .293.031.578.094.86.062.28.171.546.328.796.164.243.382.422.656.547a1.953 1.953 0 001.516.063c.226-.082.421-.211.578-.39.156-.177.273-.376.359-.595V.063c0 .187-.023.374-.063.562a1.418 1.418 0 01-.234.531 1.02 1.02 0 01-.453.344c-.18.07-.36.11-.547.11-.2 0-.39-.028-.578-.079a.902.902 0 01-.453-.312.905.905 0 01-.219-.5H.672a1.716 1.716 0 00.688 1.313c.206.155.437.257.687.312.258.062.52.094.781.094zM2.86-.735c-.199 0-.39-.036-.578-.11a1.081 1.081 0 01-.453-.344 1.653 1.653 0 01-.25-.53 2.57 2.57 0 01-.062-.579V-3.78c0-.196.02-.39.062-.578.05-.196.133-.375.25-.532.125-.156.274-.27.453-.343.188-.07.38-.11.578-.11.188 0 .368.043.547.125a.917.917 0 01.438.344c.113.156.187.328.219.516.039.187.062.382.062.578v1.484c0 .2-.023.39-.063.578-.03.188-.105.36-.218.516a.997.997 0 01-.438.36c-.18.073-.36.109-.547.109zm0 0"/></symbol><symbol overflow="visible" id="C"><path d="M4.125 2.344h.922v-8.422h-.922v1.016a2.013 2.013 0 00-.36-.594 1.447 1.447 0 00-.578-.39 1.949 1.949 0 00-1.515.062 1.53 1.53 0 00-.656.562c-.157.242-.266.5-.329.781-.062.282-.093.57-.093.86v1.484c0 .293.031.578.094.86.062.28.171.546.328.796.164.243.382.422.656.547a1.953 1.953 0 001.516.063c.226-.082.421-.211.578-.39.156-.177.273-.376.359-.595zM2.859-.734c-.199 0-.39-.036-.578-.11a1.081 1.081 0 01-.453-.344 1.653 1.653 0 01-.25-.53 2.57 2.57 0 01-.062-.579V-3.78c0-.196.02-.39.062-.578.05-.196.133-.375.25-.532.125-.156.274-.27.453-.343.188-.07.38-.11.578-.11.188 0 .368.043.547.125a.917.917 0 01.438.344c.113.156.187.328.219.516.039.187.062.382.062.578v1.484c0 .2-.023.39-.063.578-.03.188-.105.36-.218.516a.997.997 0 01-.438.36c-.18.073-.36.109-.547.109zm0 0"/></symbol><symbol overflow="visible" id="D"><path d="M2.344 0H3.39L5.25-6.078h-.953L3.125-2.031c-.043.156-.086.32-.125.484-.043.168-.09.328-.14.484a12.429 12.429 0 01-.126-.484 45.58 45.58 0 01-.125-.484L1.453-6.078H.484zm0 0"/></symbol><clipPath id="a"><path d="M0 0h426v335.637H0zm0 0"/></clipPath></defs><g clip-path="url(#a)"><path d="M0 0h426v335.637H0zm0 0" fill="#fff"/></g><path d="M24.023 189.691h40.165c.562 0 1.125.055 1.68.165.554.113 1.09.273 1.612.492a8.492 8.492 0 012.793 1.863c.399.402.754.836 1.07 1.305a8.779 8.779 0 011.286 3.101c.11.555.164 1.117.164 1.68v40.164c0 .563-.055 1.125-.164 1.676a8.68 8.68 0 01-1.285 3.105 9.014 9.014 0 01-1.07 1.305 8.738 8.738 0 01-2.794 1.863 8.63 8.63 0 01-1.613.489 8.39 8.39 0 01-1.68.168H24.024a8.354 8.354 0 01-1.675-.168 8.528 8.528 0 01-3.105-1.285 8.514 8.514 0 01-2.372-2.372 8.529 8.529 0 01-1.285-3.105 8.323 8.323 0 01-.168-1.676v-40.164a8.72 8.72 0 01.656-3.293c.215-.52.48-1.016.797-1.488a8.529 8.529 0 011.07-1.305 8.777 8.777 0 011.301-1.07 8.68 8.68 0 013.105-1.285 8.642 8.642 0 011.676-.165zm0 0" fill="#fff0ca" stroke="#d4b554" stroke-width="2.15151"/><use xlink:href="#b" x="26.536" y="216.588" width="100%" height="100%"/><use xlink:href="#c" x="32.273" y="216.588" width="100%" height="100%"/><use xlink:href="#d" x="38.01" y="216.588" width="100%" height="100%"/><use xlink:href="#e" x="43.748" y="216.588" width="100%" height="100%"/><use xlink:href="#f" x="49.485" y="216.588" width="100%" height="100%"/><use xlink:href="#g" x="55.223" y="216.588" width="100%" height="100%"/><use xlink:href="#h" x="32.273" y="230.214" width="100%" height="100%"/><use xlink:href="#i" x="38.01" y="230.214" width="100%" height="100%"/><use xlink:href="#j" x="43.748" y="230.214" width="100%" height="100%"/><use xlink:href="#g" x="49.485" y="230.214" width="100%" height="100%"/><path d="M95.742 189.691H329.54a8.553 8.553 0 013.293.656 8.493 8.493 0 012.793 1.864c.399.402.758.836 1.07 1.305a8.8 8.8 0 01.797 1.488c.215.523.38 1.062.489 1.613.109.555.164 1.117.164 1.68v40.164a8.615 8.615 0 01-1.45 4.781 8.764 8.764 0 01-1.07 1.305 8.36 8.36 0 01-1.305 1.066 8.543 8.543 0 01-3.102 1.285 8.362 8.362 0 01-1.679.169H95.742a8.364 8.364 0 01-1.68-.168 8.63 8.63 0 01-1.613-.489 8.257 8.257 0 01-1.488-.797 8.545 8.545 0 01-1.305-1.066 9.014 9.014 0 01-1.07-1.305 8.779 8.779 0 01-1.285-3.105 8.612 8.612 0 01-.164-1.676v-40.164a8.443 8.443 0 01.656-3.293c.215-.52.48-1.016.793-1.488a9.014 9.014 0 011.07-1.305 8.492 8.492 0 012.793-1.863 8.641 8.641 0 011.614-.492 8.652 8.652 0 011.68-.165zm0 0" fill="#d4e6d4" stroke="#7fb363" stroke-width="2.15151"/><use xlink:href="#d" x="186.467" y="223.043" width="100%" height="100%"/><use xlink:href="#e" x="192.204" y="223.043" width="100%" height="100%"/><use xlink:href="#f" x="197.941" y="223.043" width="100%" height="100%"/><use xlink:href="#g" x="203.679" y="223.043" width="100%" height="100%"/><use xlink:href="#k" x="209.416" y="223.043" width="100%" height="100%"/><use xlink:href="#h" x="215.154" y="223.043" width="100%" height="100%"/><use xlink:href="#i" x="220.891" y="223.043" width="100%" height="100%"/><use xlink:href="#j" x="226.629" y="223.043" width="100%" height="100%"/><use xlink:href="#g" x="232.366" y="223.043" width="100%" height="100%"/><g><use xlink:href="#l" x="16.495" y="183.598" width="100%" height="100%"/><use xlink:href="#m" x="22.233" y="183.598" width="100%" height="100%"/><use xlink:href="#n" x="27.97" y="183.598" width="100%" height="100%"/><use xlink:href="#d" x="33.707" y="183.598" width="100%" height="100%"/><use xlink:href="#o" x="39.445" y="183.598" width="100%" height="100%"/><use xlink:href="#j" x="45.182" y="183.598" width="100%" height="100%"/><use xlink:href="#k" x="50.92" y="183.598" width="100%" height="100%"/><use xlink:href="#p" x="56.657" y="183.598" width="100%" height="100%"/><use xlink:href="#q" x="62.395" y="183.598" width="100%" height="100%"/><use xlink:href="#b" x="68.132" y="183.598" width="100%" height="100%"/><use xlink:href="#d" x="73.869" y="183.598" width="100%" height="100%"/><use xlink:href="#o" x="79.607" y="183.598" width="100%" height="100%"/><use xlink:href="#k" x="85.344" y="183.598" width="100%" height="100%"/><use xlink:href="#d" x="91.082" y="183.598" width="100%" height="100%"/><use xlink:href="#o" x="96.819" y="183.598" width="100%" height="100%"/><use xlink:href="#e" x="102.557" y="183.598" width="100%" height="100%"/><use xlink:href="#c" x="108.294" y="183.598" width="100%" height="100%"/><use xlink:href="#j" x="114.031" y="183.598" width="100%" height="100%"/><use xlink:href="#e" x="119.769" y="183.598" width="100%" height="100%"/><use xlink:href="#r" x="125.506" y="183.598" width="100%" height="100%"/><use xlink:href="#j" x="131.244" y="183.598" width="100%" height="100%"/><use xlink:href="#k" x="136.981" y="183.598" width="100%" height="100%"/><use xlink:href="#l" x="142.719" y="183.598" width="100%" height="100%"/><use xlink:href="#m" x="148.456" y="183.598" width="100%" height="100%"/><use xlink:href="#n" x="154.193" y="183.598" width="100%" height="100%"/><use xlink:href="#r" x="159.931" y="183.598" width="100%" height="100%"/><use xlink:href="#e" x="165.668" y="183.598" width="100%" height="100%"/><use xlink:href="#r" x="171.406" y="183.598" width="100%" height="100%"/><use xlink:href="#s" x="177.143" y="183.598" width="100%" height="100%"/><use xlink:href="#t" x="182.881" y="183.598" width="100%" height="100%"/></g><path d="M24.023 74.945H329.54a8.655 8.655 0 013.293.653 8.78 8.78 0 011.488.797 8.57 8.57 0 012.375 2.375 8.51 8.51 0 011.286 3.101c.109.555.164 1.113.164 1.68v40.16a8.654 8.654 0 01-.653 3.293 8.51 8.51 0 01-.797 1.488 8.384 8.384 0 01-1.07 1.305 8.384 8.384 0 01-1.305 1.07 8.51 8.51 0 01-3.101 1.285 8.652 8.652 0 01-1.68.164H24.023a8.644 8.644 0 01-3.293-.652 8.54 8.54 0 01-2.79-1.867 8.168 8.168 0 01-1.069-1.305 8.543 8.543 0 01-1.285-3.102 8.362 8.362 0 01-.168-1.679v-40.16c0-.567.055-1.125.168-1.68a8.543 8.543 0 011.285-3.101 8.344 8.344 0 011.07-1.305 8.54 8.54 0 014.407-2.356 8.642 8.642 0 011.675-.164zm0 0" fill="#d4e6d4" stroke="#7fb363" stroke-width="2.15151"/><g><use xlink:href="#d" x="150.608" y="108.294" width="100%" height="100%"/><use xlink:href="#e" x="156.345" y="108.294" width="100%" height="100%"/><use xlink:href="#f" x="162.082" y="108.294" width="100%" height="100%"/><use xlink:href="#g" x="167.82" y="108.294" width="100%" height="100%"/><use xlink:href="#k" x="173.557" y="108.294" width="100%" height="100%"/><use xlink:href="#h" x="179.295" y="108.294" width="100%" height="100%"/><use xlink:href="#i" x="185.032" y="108.294" width="100%" height="100%"/><use xlink:href="#j" x="190.77" y="108.294" width="100%" height="100%"/><use xlink:href="#g" x="196.507" y="108.294" width="100%" height="100%"/></g><g><use xlink:href="#d" x="16.495" y="68.849" width="100%" height="100%"/><use xlink:href="#i" x="22.233" y="68.849" width="100%" height="100%"/><use xlink:href="#u" x="27.97" y="68.849" width="100%" height="100%"/><use xlink:href="#g" x="33.707" y="68.849" width="100%" height="100%"/><use xlink:href="#k" x="39.445" y="68.849" width="100%" height="100%"/><use xlink:href="#e" x="45.182" y="68.849" width="100%" height="100%"/><use xlink:href="#v" x="50.92" y="68.849" width="100%" height="100%"/><use xlink:href="#v" x="56.657" y="68.849" width="100%" height="100%"/><use xlink:href="#l" x="62.395" y="68.849" width="100%" height="100%"/><use xlink:href="#m" x="68.132" y="68.849" width="100%" height="100%"/><use xlink:href="#h" x="73.869" y="68.849" width="100%" height="100%"/><use xlink:href="#e" x="79.607" y="68.849" width="100%" height="100%"/><use xlink:href="#o" x="85.344" y="68.849" width="100%" height="100%"/><use xlink:href="#m" x="91.082" y="68.849" width="100%" height="100%"/><use xlink:href="#i" x="96.819" y="68.849" width="100%" height="100%"/><use xlink:href="#c" x="102.557" y="68.849" width="100%" height="100%"/></g><path d="M49.484 290.098l-4.48-35.84" fill="none" stroke="#000" stroke-width="2.15151" stroke-miterlimit="10"/><path d="M44.406 249.453l4.004 6.004-3.406-1.2-3 2.005zm0 0" stroke="#000" stroke-width="2.15151" stroke-miterlimit="10"/><g><use xlink:href="#w" x="14.344" y="302.65" width="100%" height="100%"/><use xlink:href="#r" x="20.081" y="302.65" width="100%" height="100%"/><use xlink:href="#m" x="25.818" y="302.65" width="100%" height="100%"/><use xlink:href="#o" x="31.556" y="302.65" width="100%" height="100%"/><use xlink:href="#o" x="37.293" y="302.65" width="100%" height="100%"/><use xlink:href="#g" x="43.031" y="302.65" width="100%" height="100%"/><use xlink:href="#c" x="48.768" y="302.65" width="100%" height="100%"/><use xlink:href="#k" x="54.506" y="302.65" width="100%" height="100%"/><use xlink:href="#n" x="60.243" y="302.65" width="100%" height="100%"/><use xlink:href="#s" x="65.98" y="302.65" width="100%" height="100%"/><use xlink:href="#k" x="71.718" y="302.65" width="100%" height="100%"/><use xlink:href="#g" x="77.455" y="302.65" width="100%" height="100%"/><use xlink:href="#x" x="83.193" y="302.65" width="100%" height="100%"/><use xlink:href="#v" x="88.93" y="302.65" width="100%" height="100%"/><use xlink:href="#g" x="94.668" y="302.65" width="100%" height="100%"/><use xlink:href="#r" x="100.405" y="302.65" width="100%" height="100%"/><use xlink:href="#o" x="106.142" y="302.65" width="100%" height="100%"/><use xlink:href="#d" x="111.88" y="302.65" width="100%" height="100%"/><use xlink:href="#y" x="117.617" y="302.65" width="100%" height="100%"/><use xlink:href="#k" x="123.355" y="302.65" width="100%" height="100%"/><use xlink:href="#h" x="129.092" y="302.65" width="100%" height="100%"/><use xlink:href="#e" x="134.83" y="302.65" width="100%" height="100%"/><use xlink:href="#r" x="140.567" y="302.65" width="100%" height="100%"/><use xlink:href="#g" x="146.304" y="302.65" width="100%" height="100%"/><use xlink:href="#f" x="152.042" y="302.65" width="100%" height="100%"/><use xlink:href="#b" x="157.779" y="302.65" width="100%" height="100%"/><use xlink:href="#l" x="163.517" y="302.65" width="100%" height="100%"/><use xlink:href="#l" x="169.254" y="302.65" width="100%" height="100%"/><use xlink:href="#s" x="174.992" y="302.65" width="100%" height="100%"/></g><g><use xlink:href="#e" x="14.344" y="316.276" width="100%" height="100%"/><use xlink:href="#b" x="20.081" y="316.276" width="100%" height="100%"/><use xlink:href="#j" x="25.818" y="316.276" width="100%" height="100%"/><use xlink:href="#m" x="31.556" y="316.276" width="100%" height="100%"/><use xlink:href="#o" x="37.293" y="316.276" width="100%" height="100%"/><use xlink:href="#g" x="43.031" y="316.276" width="100%" height="100%"/><use xlink:href="#j" x="48.768" y="316.276" width="100%" height="100%"/><use xlink:href="#y" x="54.506" y="316.276" width="100%" height="100%"/><use xlink:href="#k" x="60.243" y="316.276" width="100%" height="100%"/><use xlink:href="#b" x="65.98" y="316.276" width="100%" height="100%"/><use xlink:href="#d" x="71.718" y="316.276" width="100%" height="100%"/><use xlink:href="#b" x="77.455" y="316.276" width="100%" height="100%"/><use xlink:href="#e" x="83.193" y="316.276" width="100%" height="100%"/><use xlink:href="#l" x="88.93" y="316.276" width="100%" height="100%"/><use xlink:href="#l" x="94.668" y="316.276" width="100%" height="100%"/><use xlink:href="#s" x="100.405" y="316.276" width="100%" height="100%"/><use xlink:href="#k" x="106.142" y="316.276" width="100%" height="100%"/><use xlink:href="#h" x="111.88" y="316.276" width="100%" height="100%"/><use xlink:href="#i" x="117.617" y="316.276" width="100%" height="100%"/><use xlink:href="#u" x="123.355" y="316.276" width="100%" height="100%"/><use xlink:href="#g" x="129.092" y="316.276" width="100%" height="100%"/><use xlink:href="#d" x="134.83" y="316.276" width="100%" height="100%"/><use xlink:href="#k" x="140.567" y="316.276" width="100%" height="100%"/><use xlink:href="#w" x="146.304" y="316.276" width="100%" height="100%"/><use xlink:href="#m" x="152.042" y="316.276" width="100%" height="100%"/><use xlink:href="#o" x="157.779" y="316.276" width="100%" height="100%"/><use xlink:href="#z" x="163.517" y="316.276" width="100%" height="100%"/><use xlink:href="#k" x="169.254" y="316.276" width="100%" height="100%"/><use xlink:href="#e" x="174.992" y="316.276" width="100%" height="100%"/></g><g><use xlink:href="#d" x="57.374" y="329.902" width="100%" height="100%"/><use xlink:href="#e" x="63.112" y="329.902" width="100%" height="100%"/><use xlink:href="#f" x="68.849" y="329.902" width="100%" height="100%"/><use xlink:href="#g" x="74.587" y="329.902" width="100%" height="100%"/><use xlink:href="#k" x="80.324" y="329.902" width="100%" height="100%"/><use xlink:href="#m" x="86.061" y="329.902" width="100%" height="100%"/><use xlink:href="#c" x="91.799" y="329.902" width="100%" height="100%"/><use xlink:href="#o" x="97.536" y="329.902" width="100%" height="100%"/><use xlink:href="#g" x="103.274" y="329.902" width="100%" height="100%"/><use xlink:href="#r" x="109.011" y="329.902" width="100%" height="100%"/><use xlink:href="#f" x="114.749" y="329.902" width="100%" height="100%"/><use xlink:href="#e" x="120.486" y="329.902" width="100%" height="100%"/><use xlink:href="#h" x="126.223" y="329.902" width="100%" height="100%"/><use xlink:href="#g" x="131.961" y="329.902" width="100%" height="100%"/></g><path d="M217.633 40.234l-6.797 26.973" fill="none" stroke="#000" stroke-width="2.15151" stroke-miterlimit="10"/><path d="M209.652 71.902l-1.55-7.047 2.734 2.352 3.527-.777zm0 0" stroke="#000" stroke-width="2.15151" stroke-miterlimit="10"/><g><use xlink:href="#w" x="164.234" y="12.192" width="100%" height="100%"/><use xlink:href="#r" x="169.971" y="12.192" width="100%" height="100%"/><use xlink:href="#m" x="175.709" y="12.192" width="100%" height="100%"/><use xlink:href="#o" x="181.446" y="12.192" width="100%" height="100%"/><use xlink:href="#o" x="187.184" y="12.192" width="100%" height="100%"/><use xlink:href="#g" x="192.921" y="12.192" width="100%" height="100%"/><use xlink:href="#c" x="198.659" y="12.192" width="100%" height="100%"/><use xlink:href="#k" x="204.396" y="12.192" width="100%" height="100%"/><use xlink:href="#n" x="210.133" y="12.192" width="100%" height="100%"/><use xlink:href="#s" x="215.871" y="12.192" width="100%" height="100%"/><use xlink:href="#k" x="221.608" y="12.192" width="100%" height="100%"/><use xlink:href="#e" x="227.346" y="12.192" width="100%" height="100%"/><use xlink:href="#c" x="233.083" y="12.192" width="100%" height="100%"/><use xlink:href="#s" x="238.821" y="12.192" width="100%" height="100%"/><use xlink:href="#i" x="244.558" y="12.192" width="100%" height="100%"/><use xlink:href="#c" x="250.295" y="12.192" width="100%" height="100%"/><use xlink:href="#g" x="256.033" y="12.192" width="100%" height="100%"/><use xlink:href="#y" x="261.77" y="12.192" width="100%" height="100%"/><use xlink:href="#k" x="267.508" y="12.192" width="100%" height="100%"/><use xlink:href="#h" x="273.245" y="12.192" width="100%" height="100%"/><use xlink:href="#i" x="278.983" y="12.192" width="100%" height="100%"/><use xlink:href="#u" x="284.72" y="12.192" width="100%" height="100%"/><use xlink:href="#g" x="290.457" y="12.192" width="100%" height="100%"/><use xlink:href="#d" x="296.195" y="12.192" width="100%" height="100%"/><use xlink:href="#k" x="301.932" y="12.192" width="100%" height="100%"/><use xlink:href="#w" x="307.67" y="12.192" width="100%" height="100%"/><use xlink:href="#m" x="313.407" y="12.192" width="100%" height="100%"/><use xlink:href="#o" x="319.145" y="12.192" width="100%" height="100%"/><use xlink:href="#z" x="324.882" y="12.192" width="100%" height="100%"/><use xlink:href="#k" x="330.619" y="12.192" width="100%" height="100%"/><use xlink:href="#e" x="336.357" y="12.192" width="100%" height="100%"/><use xlink:href="#l" x="342.094" y="12.192" width="100%" height="100%"/><use xlink:href="#l" x="347.832" y="12.192" width="100%" height="100%"/><use xlink:href="#k" x="353.569" y="12.192" width="100%" height="100%"/><use xlink:href="#i" x="359.307" y="12.192" width="100%" height="100%"/><use xlink:href="#f" x="365.044" y="12.192" width="100%" height="100%"/><use xlink:href="#k" x="370.781" y="12.192" width="100%" height="100%"/><use xlink:href="#q" x="376.519" y="12.192" width="100%" height="100%"/><use xlink:href="#b" x="382.256" y="12.192" width="100%" height="100%"/><use xlink:href="#d" x="387.994" y="12.192" width="100%" height="100%"/><use xlink:href="#o" x="393.731" y="12.192" width="100%" height="100%"/><use xlink:href="#A" x="399.469" y="12.192" width="100%" height="100%"/><use xlink:href="#d" x="405.206" y="12.192" width="100%" height="100%"/></g><g><use xlink:href="#d" x="164.234" y="25.818" width="100%" height="100%"/><use xlink:href="#e" x="169.971" y="25.818" width="100%" height="100%"/><use xlink:href="#f" x="175.709" y="25.818" width="100%" height="100%"/><use xlink:href="#g" x="181.446" y="25.818" width="100%" height="100%"/><use xlink:href="#o" x="187.184" y="25.818" width="100%" height="100%"/><use xlink:href="#s" x="192.921" y="25.818" width="100%" height="100%"/><use xlink:href="#k" x="198.659" y="25.818" width="100%" height="100%"/><use xlink:href="#B" x="204.396" y="25.818" width="100%" height="100%"/><use xlink:href="#b" x="210.133" y="25.818" width="100%" height="100%"/><use xlink:href="#e" x="215.871" y="25.818" width="100%" height="100%"/><use xlink:href="#r" x="221.608" y="25.818" width="100%" height="100%"/><use xlink:href="#e" x="227.346" y="25.818" width="100%" height="100%"/><use xlink:href="#c" x="233.083" y="25.818" width="100%" height="100%"/><use xlink:href="#o" x="238.821" y="25.818" width="100%" height="100%"/><use xlink:href="#g" x="244.558" y="25.818" width="100%" height="100%"/><use xlink:href="#g" x="250.295" y="25.818" width="100%" height="100%"/><use xlink:href="#d" x="256.033" y="25.818" width="100%" height="100%"/><use xlink:href="#y" x="261.77" y="25.818" width="100%" height="100%"/><use xlink:href="#k" x="267.508" y="25.818" width="100%" height="100%"/><use xlink:href="#j" x="273.245" y="25.818" width="100%" height="100%"/><use xlink:href="#i" x="278.983" y="25.818" width="100%" height="100%"/><use xlink:href="#g" x="284.72" y="25.818" width="100%" height="100%"/><use xlink:href="#d" x="290.457" y="25.818" width="100%" height="100%"/><use xlink:href="#c" x="296.195" y="25.818" width="100%" height="100%"/><use xlink:href="#A" x="301.932" y="25.818" width="100%" height="100%"/><use xlink:href="#o" x="307.67" y="25.818" width="100%" height="100%"/><use xlink:href="#k" x="313.407" y="25.818" width="100%" height="100%"/><use xlink:href="#r" x="319.145" y="25.818" width="100%" height="100%"/><use xlink:href="#g" x="324.882" y="25.818" width="100%" height="100%"/><use xlink:href="#C" x="330.619" y="25.818" width="100%" height="100%"/><use xlink:href="#b" x="336.357" y="25.818" width="100%" height="100%"/><use xlink:href="#m" x="342.094" y="25.818" width="100%" height="100%"/><use xlink:href="#r" x="347.832" y="25.818" width="100%" height="100%"/><use xlink:href="#g" x="353.569" y="25.818" width="100%" height="100%"/><use xlink:href="#k" x="359.307" y="25.818" width="100%" height="100%"/><use xlink:href="#d" x="365.044" y="25.818" width="100%" height="100%"/><use xlink:href="#v" x="370.781" y="25.818" width="100%" height="100%"/><use xlink:href="#g" x="376.519" y="25.818" width="100%" height="100%"/><use xlink:href="#h" x="382.256" y="25.818" width="100%" height="100%"/><use xlink:href="#m" x="387.994" y="25.818" width="100%" height="100%"/><use xlink:href="#f" x="393.731" y="25.818" width="100%" height="100%"/><use xlink:href="#m" x="399.469" y="25.818" width="100%" height="100%"/><use xlink:href="#h" x="405.206" y="25.818" width="100%" height="100%"/></g><g><use xlink:href="#e" x="221.608" y="39.445" width="100%" height="100%"/><use xlink:href="#o" x="227.346" y="39.445" width="100%" height="100%"/><use xlink:href="#o" x="233.083" y="39.445" width="100%" height="100%"/><use xlink:href="#g" x="238.821" y="39.445" width="100%" height="100%"/><use xlink:href="#c" x="244.558" y="39.445" width="100%" height="100%"/><use xlink:href="#o" x="250.295" y="39.445" width="100%" height="100%"/><use xlink:href="#m" x="256.033" y="39.445" width="100%" height="100%"/><use xlink:href="#i" x="261.77" y="39.445" width="100%" height="100%"/><use xlink:href="#c" x="267.508" y="39.445" width="100%" height="100%"/><use xlink:href="#k" x="273.245" y="39.445" width="100%" height="100%"/><use xlink:href="#j" x="278.983" y="39.445" width="100%" height="100%"/><use xlink:href="#b" x="284.72" y="39.445" width="100%" height="100%"/><use xlink:href="#r" x="290.457" y="39.445" width="100%" height="100%"/><use xlink:href="#m" x="296.195" y="39.445" width="100%" height="100%"/><use xlink:href="#c" x="301.932" y="39.445" width="100%" height="100%"/><use xlink:href="#B" x="307.67" y="39.445" width="100%" height="100%"/><use xlink:href="#k" x="313.407" y="39.445" width="100%" height="100%"/><use xlink:href="#r" x="319.145" y="39.445" width="100%" height="100%"/><use xlink:href="#g" x="324.882" y="39.445" width="100%" height="100%"/><use xlink:href="#D" x="330.619" y="39.445" width="100%" height="100%"/><use xlink:href="#m" x="336.357" y="39.445" width="100%" height="100%"/><use xlink:href="#g" x="342.094" y="39.445" width="100%" height="100%"/><use xlink:href="#w" x="347.832" y="39.445" width="100%" height="100%"/></g></svg>